<svg width="10" height="10" viewBox="0 0 10 10" fill="none" xmlns="http://www.w3.org/2000/svg">
<g filter="url(#filter0_i_1686_162)">
<path d="M6.7002 7.66017C6.7002 8.16774 6.7002 8.42152 6.55644 8.58984C6.53603 8.61374 6.51377 8.636 6.48986 8.65641C6.32155 8.80017 6.06776 8.80017 5.5602 8.80017H4.4398C3.93224 8.80017 3.67845 8.80017 3.51014 8.65641C3.48623 8.636 3.46397 8.61374 3.44356 8.58984C3.2998 8.42152 3.2998 8.16774 3.2998 7.66017V6.38939C3.2998 5.88182 3.2998 5.62804 3.44356 5.45972C3.46397 5.43582 3.48623 5.41356 3.51014 5.39315C3.67845 5.24939 3.93224 5.24939 4.4398 5.24939H5.5602C6.06776 5.24939 6.32155 5.24939 6.48986 5.39315C6.51377 5.41356 6.53603 5.43582 6.55644 5.45972C6.7002 5.62804 6.7002 5.88182 6.7002 6.38939V7.66017ZM6.61639 3.77403C6.67104 3.85603 6.7002 3.95236 6.7002 4.0509C6.7002 4.32664 6.47666 4.55017 6.20092 4.55017H3.79908C3.52334 4.55017 3.2998 4.32664 3.2998 4.0509C3.2998 3.95236 3.32896 3.85603 3.38361 3.77403L3.7612 3.2074C3.91794 2.9722 3.99631 2.85459 4.11198 2.78516C4.12884 2.77504 4.14619 2.76575 4.16396 2.75733C4.28588 2.69958 4.42721 2.69958 4.70986 2.69958H5.29014C5.57279 2.69958 5.71412 2.69958 5.83604 2.75733C5.85381 2.76575 5.87116 2.77504 5.88802 2.78516C6.00369 2.85459 6.08206 2.9722 6.2388 3.2074L6.61639 3.77403ZM5.90039 1.59998C5.90039 1.82111 5.72113 2.00037 5.5 2.00037H4.5C4.27887 2.00037 4.09961 1.82111 4.09961 1.59998C4.09961 1.37885 4.27887 1.19958 4.5 1.19958H5.5C5.72113 1.19958 5.90039 1.37885 5.90039 1.59998Z" fill="white"/>
</g>
<defs>
<filter id="filter0_i_1686_162" x="0" y="0" width="10" height="10" filterUnits="userSpaceOnUse" color-interpolation-filters="sRGB">
<feFlood flood-opacity="0" result="BackgroundImageFix"/>
<feBlend mode="normal" in="SourceGraphic" in2="BackgroundImageFix" result="shape"/>
<feColorMatrix in="SourceAlpha" type="matrix" values="0 0 0 0 0 0 0 0 0 0 0 0 0 0 0 0 0 0 127 0" result="hardAlpha"/>
<feOffset/>
<feGaussianBlur stdDeviation="1"/>
<feComposite in2="hardAlpha" operator="arithmetic" k2="-1" k3="1"/>
<feColorMatrix type="matrix" values="0 0 0 0 0.942 0 0 0 0 0.94 0 0 0 0 1 0 0 0 0.1 0"/>
<feBlend mode="hard-light" in2="shape" result="effect1_innerShadow_1686_162"/>
</filter>
</defs>
</svg>
