<svg width="10" height="10" viewBox="0 0 10 10" fill="none" xmlns="http://www.w3.org/2000/svg">
<g filter="url(#filter0_i_1242_589)">
<path d="M4.41946 5.04715C4.76713 4.79899 5.23397 4.79886 5.58157 5.04715L6.68118 5.83231C6.94398 6.02002 7.10013 6.32381 7.10013 6.64676V6.66629C7.09984 7.31195 6.49686 7.78842 5.86868 7.63895L5.23196 7.4866C5.07986 7.45039 4.92119 7.45047 4.76907 7.4866L4.13138 7.63895C3.50334 7.78814 2.90022 7.31182 2.89993 6.66629V6.64676C2.89993 6.32381 3.05608 6.02002 3.31888 5.83231L4.41946 5.04715ZM2.11966 3.8157C2.47004 3.65232 2.92424 3.88573 3.13431 4.33621C3.34436 4.78669 3.23077 5.28416 2.8804 5.44754C2.53011 5.61075 2.07584 5.37827 1.86575 4.92801C1.65569 4.47752 1.76928 3.97909 2.11966 3.8157ZM6.86575 4.33621C7.07577 3.88584 7.53006 3.65255 7.8804 3.8157C8.23078 3.97909 8.34437 4.47752 8.13431 4.92801C7.92416 5.37824 7.46993 5.61088 7.11966 5.44754C6.7694 5.28413 6.65582 4.78661 6.86575 4.33621ZM3.92142 2.33524C4.30655 2.30154 4.65446 2.67601 4.69778 3.17117C4.7409 3.66615 4.46366 4.09452 4.07864 4.1282C3.69365 4.16189 3.34677 3.78816 3.30325 3.29324C3.25995 2.79823 3.53648 2.36916 3.92142 2.33524ZM6.07864 2.33524C6.46376 2.36895 6.7411 2.79809 6.69778 3.29324C6.6543 3.78819 6.30643 4.16189 5.92142 4.1282C5.53656 4.0943 5.26012 3.66603 5.30325 3.17117C5.34657 2.67601 5.69352 2.30154 6.07864 2.33524Z" fill="white"/>
</g>
<defs>
<filter id="filter0_i_1242_589" x="0" y="0" width="10" height="10" filterUnits="userSpaceOnUse" color-interpolation-filters="sRGB">
<feFlood flood-opacity="0" result="BackgroundImageFix"/>
<feBlend mode="normal" in="SourceGraphic" in2="BackgroundImageFix" result="shape"/>
<feColorMatrix in="SourceAlpha" type="matrix" values="0 0 0 0 0 0 0 0 0 0 0 0 0 0 0 0 0 0 127 0" result="hardAlpha"/>
<feOffset/>
<feGaussianBlur stdDeviation="1"/>
<feComposite in2="hardAlpha" operator="arithmetic" k2="-1" k3="1"/>
<feColorMatrix type="matrix" values="0 0 0 0 0.942 0 0 0 0 0.94 0 0 0 0 1 0 0 0 0.1 0"/>
<feBlend mode="hard-light" in2="shape" result="effect1_innerShadow_1242_589"/>
</filter>
</defs>
</svg>
