<svg width="10" height="10" viewBox="0 0 10 10" fill="none" xmlns="http://www.w3.org/2000/svg">
<g filter="url(#filter0_i_1559_517)">
<path fill-rule="evenodd" clip-rule="evenodd" d="M2.30011 5.50093C2.30011 4.37403 2.87498 3.43267 4.20803 3.82366C4.45762 3.89687 4.59609 4.15305 4.5882 4.41304C4.58776 4.42732 4.58737 4.44159 4.58702 4.45585C4.58231 4.64467 4.39798 4.80618 4.25031 4.68843C4.07783 4.55045 3.82583 4.57851 3.68781 4.75093C3.55033 4.92333 3.57822 5.17453 3.75031 5.31245C4.11374 5.60296 4.56793 5.65034 5.00031 5.65034C5.43269 5.65032 5.88691 5.60304 6.25031 5.31245C6.4222 5.17456 6.45007 4.92327 6.31281 4.75093C6.17484 4.57847 5.92281 4.55056 5.75031 4.68843C5.74822 4.6901 5.74611 4.69175 5.74398 4.69339C5.58224 4.81797 5.38183 4.64152 5.388 4.43745C5.3972 4.13413 5.59642 3.87119 5.89081 3.79754C7.15349 3.48163 7.69952 4.40626 7.69952 5.50093C7.69891 6.73185 6.40323 8.78366 5.25714 7.91792C5.10828 7.80568 4.89124 7.8055 4.74249 7.91792C3.59637 8.78431 2.30072 6.73638 2.30011 5.50093ZM6.03253 1.99995C6.12381 1.99787 6.19526 2.06787 6.19464 2.15913C6.19263 2.37805 6.14454 2.78443 5.84894 3.08003C5.55353 3.3754 5.14801 3.42366 4.92902 3.42574C4.83757 3.42658 4.76682 3.35501 4.76886 3.26363C4.77406 3.04705 4.82781 2.64707 5.12238 2.35249C5.4169 2.0583 5.81607 2.00516 6.03253 1.99995Z" fill="white"/>
</g>
<defs>
<filter id="filter0_i_1559_517" x="0" y="0" width="10" height="10" filterUnits="userSpaceOnUse" color-interpolation-filters="sRGB">
<feFlood flood-opacity="0" result="BackgroundImageFix"/>
<feBlend mode="normal" in="SourceGraphic" in2="BackgroundImageFix" result="shape"/>
<feColorMatrix in="SourceAlpha" type="matrix" values="0 0 0 0 0 0 0 0 0 0 0 0 0 0 0 0 0 0 127 0" result="hardAlpha"/>
<feOffset/>
<feGaussianBlur stdDeviation="1"/>
<feComposite in2="hardAlpha" operator="arithmetic" k2="-1" k3="1"/>
<feColorMatrix type="matrix" values="0 0 0 0 0.942 0 0 0 0 0.94 0 0 0 0 1 0 0 0 0.1 0"/>
<feBlend mode="hard-light" in2="shape" result="effect1_innerShadow_1559_517"/>
</filter>
</defs>
</svg>
