<svg width="10" height="10" viewBox="0 0 10 10" fill="none" xmlns="http://www.w3.org/2000/svg">
<g filter="url(#filter0_i_1587_818)">
<path fill-rule="evenodd" clip-rule="evenodd" d="M4.8448 5.60342C5.09503 5.85365 5.22009 5.97884 5.21423 6.11096C5.21334 6.13042 5.21178 6.14725 5.20733 6.16621C5.17702 6.29511 5.01311 6.38654 4.68598 6.56879C4.45596 6.69693 4.22816 6.84154 4.09488 6.97482C3.96163 7.10811 3.81695 7.33596 3.68884 7.56592C3.50692 7.8925 3.41557 8.05597 3.28695 8.08658C3.26796 8.09105 3.25051 8.09328 3.23102 8.09418C3.09896 8.0999 2.97359 7.97486 2.72348 7.72474L2.07299 7.07426C1.82259 6.82386 1.69702 6.6982 1.70287 6.56603C1.70377 6.54654 1.70669 6.52977 1.71115 6.51078C1.74155 6.38196 1.90483 6.29107 2.23182 6.10889C2.46178 5.98077 2.68893 5.83543 2.82222 5.70217C2.9555 5.56889 3.10081 5.34177 3.22895 5.11176C3.41126 4.78451 3.5026 4.62073 3.63153 4.59041C3.65031 4.58602 3.66676 4.58371 3.68608 4.58281C3.81831 4.57686 3.94381 4.70243 4.19431 4.95294L4.8448 5.60342ZM8.21744 6.15721C8.37332 6.21171 8.45127 6.23896 8.4802 6.33752C8.48341 6.34847 8.48689 6.36755 8.48774 6.37894C8.4954 6.48137 8.43209 6.53432 8.30548 6.64021C8.03912 6.86298 7.61016 7.14203 7.05105 7.24068C6.25673 7.38074 5.96884 7.02127 5.88718 6.87697C5.87929 6.86303 5.87535 6.85606 5.869 6.82537C5.86855 6.82321 5.86696 6.81393 5.86667 6.81175C5.86245 6.7807 5.86383 6.7729 5.86661 6.75731C5.89527 6.59606 6.04597 6.17117 6.83768 6.03155C7.39507 5.93328 7.89152 6.04325 8.21744 6.15721ZM7.53167 2.91655C7.78199 3.16688 7.90706 3.29191 7.9011 3.4241C7.9002 3.44358 7.89866 3.46035 7.8942 3.47934C7.86383 3.60822 7.70001 3.69964 7.37284 3.88192C7.14283 4.01007 6.91503 4.15467 6.78175 4.28795C6.64857 4.42123 6.50444 4.64855 6.3764 4.87836C6.19422 5.20537 6.10258 5.36919 5.97382 5.39971C5.95483 5.40418 5.93807 5.40572 5.91858 5.40662C5.78631 5.41273 5.66082 5.28835 5.41035 5.03787L4.75986 4.38739C4.50921 4.13674 4.38431 4.01078 4.39043 3.87847C4.39133 3.85907 4.39357 3.84284 4.39802 3.82392C4.42834 3.69498 4.59208 3.60368 4.91938 3.42133C5.14913 3.29332 5.37585 3.14845 5.50909 3.0153C5.64235 2.88204 5.7877 2.65488 5.91582 2.42489C6.09816 2.09757 6.18946 1.93386 6.3184 1.90354C6.33725 1.89912 6.35357 1.89684 6.37295 1.89594C6.50524 1.88989 6.63057 2.01546 6.88118 2.26607L7.53167 2.91655Z" fill="white"/>
</g>
<defs>
<filter id="filter0_i_1587_818" x="0" y="0" width="10" height="10" filterUnits="userSpaceOnUse" color-interpolation-filters="sRGB">
<feFlood flood-opacity="0" result="BackgroundImageFix"/>
<feBlend mode="normal" in="SourceGraphic" in2="BackgroundImageFix" result="shape"/>
<feColorMatrix in="SourceAlpha" type="matrix" values="0 0 0 0 0 0 0 0 0 0 0 0 0 0 0 0 0 0 127 0" result="hardAlpha"/>
<feOffset/>
<feGaussianBlur stdDeviation="1"/>
<feComposite in2="hardAlpha" operator="arithmetic" k2="-1" k3="1"/>
<feColorMatrix type="matrix" values="0 0 0 0 0.942 0 0 0 0 0.94 0 0 0 0 1 0 0 0 0.1 0"/>
<feBlend mode="hard-light" in2="shape" result="effect1_innerShadow_1587_818"/>
</filter>
</defs>
</svg>
