<svg width="10" height="10" viewBox="0 0 10 10" fill="none" xmlns="http://www.w3.org/2000/svg">
<g filter="url(#filter0_i_1587_813)">
<path d="M6.84804 6.88019C6.88089 6.8894 6.89732 6.89401 6.91341 6.9006C7.00968 6.94007 7.08558 7.04017 7.0976 7.14352C7.09961 7.16079 7.09961 7.17393 7.09961 7.2002C7.09922 8.59994 2.90078 8.59994 2.90039 7.2002C2.90039 6.99318 2.91984 6.73141 2.95708 6.43569C2.99065 6.16905 3.00744 6.03573 3.10304 5.95966C3.11608 5.94929 3.13133 5.93917 3.14595 5.93118C3.25316 5.87258 3.38748 5.91023 3.65612 5.98553L6.84804 6.88019ZM5.9858 4.10243C6.21281 4.05262 6.32632 4.02772 6.4212 4.07519C6.43434 4.08177 6.44806 4.08998 6.46006 4.09845C6.54671 4.15966 6.57734 4.26782 6.6386 4.48413C6.71861 4.76665 6.78953 5.05318 6.85028 5.3328C6.9275 5.68826 6.96612 5.86599 6.86823 5.97936C6.8552 5.99446 6.83921 6.00952 6.82337 6.02163C6.70438 6.11261 6.52367 6.06194 6.16227 5.9606L3.46194 5.2034C3.31331 5.16172 3.22334 5.0111 3.26125 4.86146C3.2878 4.75667 3.37202 4.67587 3.47761 4.65271L5.9858 4.10243ZM5 1.90039C5.34489 1.90039 5.66366 2.22291 5.94402 2.71548C6.0833 2.96018 6.15294 3.08254 6.11 3.20992C6.10441 3.22652 6.09579 3.24589 6.0872 3.26116C6.02131 3.37833 5.87225 3.41103 5.57414 3.47644L4.5192 3.70791C4.09964 3.79997 3.88985 3.846 3.77364 3.72825C3.75879 3.71321 3.7433 3.69353 3.73216 3.67556C3.64501 3.53494 3.73353 3.35311 3.91059 2.98946C4.22399 2.34575 4.59452 1.9004 5 1.90039Z" fill="white"/>
</g>
<defs>
<filter id="filter0_i_1587_813" x="0" y="0" width="10" height="10" filterUnits="userSpaceOnUse" color-interpolation-filters="sRGB">
<feFlood flood-opacity="0" result="BackgroundImageFix"/>
<feBlend mode="normal" in="SourceGraphic" in2="BackgroundImageFix" result="shape"/>
<feColorMatrix in="SourceAlpha" type="matrix" values="0 0 0 0 0 0 0 0 0 0 0 0 0 0 0 0 0 0 127 0" result="hardAlpha"/>
<feOffset/>
<feGaussianBlur stdDeviation="1"/>
<feComposite in2="hardAlpha" operator="arithmetic" k2="-1" k3="1"/>
<feColorMatrix type="matrix" values="0 0 0 0 0.942 0 0 0 0 0.94 0 0 0 0 1 0 0 0 0.1 0"/>
<feBlend mode="hard-light" in2="shape" result="effect1_innerShadow_1587_813"/>
</filter>
</defs>
</svg>
