<svg width="10" height="10" viewBox="0 0 10 10" fill="none" xmlns="http://www.w3.org/2000/svg">
<g filter="url(#filter0_i_1686_236)">
<path fill-rule="evenodd" clip-rule="evenodd" d="M4.09556 3.54858C4.08261 3.53564 4.07614 3.52916 4.06822 3.52024C3.92824 3.36247 3.94445 3.09484 4.10244 2.95512C4.11138 2.94722 4.11759 2.94236 4.13 2.93264C4.13036 2.93235 4.12945 2.93306 4.13782 2.92718C4.28359 2.82457 4.50373 2.8379 4.63606 2.95735C4.64365 2.9642 4.64902 2.96957 4.65975 2.9803L5.53815 3.85869C5.67478 3.99533 5.89587 3.99524 6.03257 3.85869C6.16925 3.72201 6.16925 3.50096 6.03257 3.36427L5.78084 3.11254C5.45081 2.78251 5.28579 2.6175 5.32766 2.40767C5.33262 2.38282 5.3437 2.34777 5.35392 2.32458C5.44023 2.1288 5.63814 2.09418 6.03396 2.02493C7.23817 1.81425 8.11919 2.38906 8.11936 3.25793C8.11932 4.67219 4.72465 8.06686 3.31048 8.06681C2.44166 8.06662 1.86683 7.18562 2.07749 5.98142C2.14673 5.5856 2.18136 5.38769 2.37713 5.30137C2.40032 5.29115 2.43538 5.28007 2.46023 5.27511C2.67005 5.23324 2.83507 5.39826 3.1651 5.72829L3.41683 5.98002C3.5535 6.11669 3.77456 6.11667 3.91125 5.98002C4.04793 5.84333 4.04793 5.62228 3.91125 5.48559L3.03285 4.6072C3.02212 4.59646 3.01676 4.5911 3.0099 4.58351C2.89045 4.45117 2.87712 4.23104 2.97973 4.08526C2.98562 4.0769 2.9849 4.07781 2.98519 4.07744C2.99491 4.06503 2.99977 4.05883 3.00768 4.04988C3.1474 3.89189 3.41503 3.87569 3.57279 4.01566C3.58172 4.02359 3.58819 4.03006 3.60114 4.04301L4.33662 4.77849C4.47329 4.91487 4.69444 4.91497 4.83104 4.77849C4.96764 4.64189 4.96746 4.42077 4.83104 4.28406L4.09556 3.54858Z" fill="white"/>
</g>
<defs>
<filter id="filter0_i_1686_236" x="0" y="0" width="10" height="10" filterUnits="userSpaceOnUse" color-interpolation-filters="sRGB">
<feFlood flood-opacity="0" result="BackgroundImageFix"/>
<feBlend mode="normal" in="SourceGraphic" in2="BackgroundImageFix" result="shape"/>
<feColorMatrix in="SourceAlpha" type="matrix" values="0 0 0 0 0 0 0 0 0 0 0 0 0 0 0 0 0 0 127 0" result="hardAlpha"/>
<feOffset/>
<feGaussianBlur stdDeviation="1"/>
<feComposite in2="hardAlpha" operator="arithmetic" k2="-1" k3="1"/>
<feColorMatrix type="matrix" values="0 0 0 0 0.942 0 0 0 0 0.94 0 0 0 0 1 0 0 0 0.1 0"/>
<feBlend mode="hard-light" in2="shape" result="effect1_innerShadow_1686_236"/>
</filter>
</defs>
</svg>
