<svg width="10" height="10" viewBox="0 0 10 10" fill="none" xmlns="http://www.w3.org/2000/svg">
<g filter="url(#filter0_i_1587_796)">
<path fill-rule="evenodd" clip-rule="evenodd" d="M4.9999 1.99883C5.2207 1.99883 5.4001 2.17847 5.4003 2.39922C5.4003 2.46412 5.4003 2.49657 5.40672 2.52131C5.41478 2.55231 5.42071 2.56469 5.43983 2.59039C5.45509 2.6109 5.49128 2.63998 5.56366 2.69814C5.76881 2.86299 5.90018 3.11565 5.9003 3.39922V4.99883C5.9003 5.26772 5.78209 5.50873 5.59495 5.67353C5.49105 5.76503 5.4391 5.81078 5.4217 5.84531C5.41837 5.85191 5.41746 5.85391 5.41471 5.86077C5.4003 5.89665 5.4003 5.94435 5.4003 6.03975V6.62873C5.4003 6.87802 5.4003 7.00267 5.52137 7.05467C5.53461 7.06036 5.55681 7.06665 5.57106 7.06875C5.70142 7.08802 5.75775 6.99662 5.87041 6.81383C5.91445 6.74236 5.95767 6.66504 5.9999 6.58183C6.3121 5.96687 6.65154 5.8341 6.90518 5.84843C7.13672 5.86162 7.16565 6.14634 7.05362 6.34941C6.9132 6.60373 6.7705 6.987 6.79971 7.46562C6.81607 7.73526 6.62454 7.9998 6.3544 7.9998H3.66201C3.38705 7.99969 3.19557 7.7253 3.21475 7.45097C3.24753 6.98146 3.10366 6.60507 2.95987 6.35332C2.84287 6.14856 2.86975 5.85795 3.10537 5.84843C3.35783 5.83829 3.69191 5.97536 3.9999 6.58183C4.04208 6.66489 4.08524 6.74211 4.12924 6.81349C4.24201 6.99645 4.2984 7.08793 4.42875 7.06867C4.44301 7.06656 4.4652 7.06027 4.47844 7.05459C4.59951 7.00259 4.59951 6.87785 4.59951 6.62838V6.03849C4.59951 5.94311 4.59951 5.89542 4.58509 5.85953C4.58233 5.85268 4.58142 5.85065 4.57809 5.84406C4.56068 5.80952 4.50883 5.76389 4.40513 5.67265C4.21802 5.50801 4.09951 5.2675 4.09951 4.99883V3.39922C4.09962 3.11633 4.23093 2.86456 4.43545 2.69982C4.50862 2.64088 4.5452 2.61142 4.5606 2.5905C4.57913 2.56532 4.58489 2.55327 4.59288 2.52304C4.59951 2.49793 4.59951 2.46502 4.59951 2.39922C4.59971 2.17856 4.77924 1.99898 4.9999 1.99883Z" fill="white"/>
</g>
<defs>
<filter id="filter0_i_1587_796" x="0" y="0" width="10" height="10" filterUnits="userSpaceOnUse" color-interpolation-filters="sRGB">
<feFlood flood-opacity="0" result="BackgroundImageFix"/>
<feBlend mode="normal" in="SourceGraphic" in2="BackgroundImageFix" result="shape"/>
<feColorMatrix in="SourceAlpha" type="matrix" values="0 0 0 0 0 0 0 0 0 0 0 0 0 0 0 0 0 0 127 0" result="hardAlpha"/>
<feOffset/>
<feGaussianBlur stdDeviation="1"/>
<feComposite in2="hardAlpha" operator="arithmetic" k2="-1" k3="1"/>
<feColorMatrix type="matrix" values="0 0 0 0 0.942 0 0 0 0 0.94 0 0 0 0 1 0 0 0 0.1 0"/>
<feBlend mode="hard-light" in2="shape" result="effect1_innerShadow_1587_796"/>
</filter>
</defs>
</svg>
