<svg width="10" height="10" viewBox="0 0 10 10" fill="none" xmlns="http://www.w3.org/2000/svg">
<g filter="url(#filter0_i_1587_810)">
<path fill-rule="evenodd" clip-rule="evenodd" d="M4.99622 1.90039C5.43545 1.90039 5.78773 2.26416 5.77259 2.70312L5.71472 4.38221C5.70962 4.53015 5.70707 4.60412 5.73496 4.66056C5.75798 4.70713 5.79493 4.74538 5.84068 4.76998C5.89613 4.7998 5.97014 4.7998 6.11817 4.7998C6.25465 4.7998 6.32289 4.7998 6.37588 4.77317C6.41966 4.75116 6.456 4.71677 6.4804 4.67427C6.50992 4.62284 6.5137 4.5547 6.52124 4.41843L6.57337 3.47656L6.57435 3.46875C6.59077 3.20662 6.80683 3.00184 7.06947 3H7.08509C7.36541 3.00201 7.58918 3.23444 7.58118 3.51465V3.52246L7.53919 4.70117C7.52167 5.19184 7.51263 5.4373 7.36927 5.59863C7.34891 5.62153 7.32648 5.64259 7.30286 5.66211C7.13647 5.79958 6.89074 5.7998 6.39954 5.7998H6.17532C5.96384 5.7998 5.85809 5.7998 5.78796 5.8597C5.778 5.86821 5.76873 5.87748 5.76022 5.88744C5.70032 5.95757 5.70032 6.06332 5.70032 6.2748V7.43457C5.70032 7.73065 5.7002 7.87935 5.61634 7.97754C5.60443 7.99148 5.59122 8.00469 5.57728 8.0166C5.47913 8.10025 5.33093 8.09961 5.03529 8.09961H4.96497C4.6693 8.09961 4.52117 8.1001 4.42298 8.0166C4.4091 8.00475 4.39578 7.99141 4.38392 7.97754C4.30006 7.87935 4.29992 7.73067 4.29993 7.43457V7.1752C4.29993 6.96371 4.29993 6.85797 4.24004 6.78783C4.23153 6.77787 4.22225 6.7686 4.2123 6.76009C4.14216 6.7002 4.03642 6.7002 3.82493 6.7002H3.589C3.10269 6.7002 2.85929 6.69999 2.69349 6.56445C2.6699 6.54512 2.64747 6.52367 2.62708 6.50098C2.4838 6.34147 2.47244 6.09777 2.45032 5.61133L2.42396 5.03027V5.0166C2.41463 4.73635 2.63765 4.50316 2.9181 4.5H2.94251C3.1995 4.50282 3.4121 4.70007 3.4347 4.95605L3.43568 4.96777L3.47083 5.42159C3.48158 5.56039 3.48696 5.62978 3.51902 5.68151C3.5428 5.71988 3.57652 5.75109 3.61661 5.77184C3.67066 5.7998 3.74027 5.7998 3.87948 5.7998C4.0323 5.7998 4.1087 5.7998 4.16561 5.76794C4.20775 5.74435 4.24215 5.70906 4.26466 5.66634C4.29506 5.60864 4.29311 5.53225 4.28922 5.37949L4.22083 2.69629C4.20964 2.25996 4.55977 1.90049 4.99622 1.90039Z" fill="white"/>
</g>
<defs>
<filter id="filter0_i_1587_810" x="0" y="0" width="10" height="10" filterUnits="userSpaceOnUse" color-interpolation-filters="sRGB">
<feFlood flood-opacity="0" result="BackgroundImageFix"/>
<feBlend mode="normal" in="SourceGraphic" in2="BackgroundImageFix" result="shape"/>
<feColorMatrix in="SourceAlpha" type="matrix" values="0 0 0 0 0 0 0 0 0 0 0 0 0 0 0 0 0 0 127 0" result="hardAlpha"/>
<feOffset/>
<feGaussianBlur stdDeviation="1"/>
<feComposite in2="hardAlpha" operator="arithmetic" k2="-1" k3="1"/>
<feColorMatrix type="matrix" values="0 0 0 0 0.942 0 0 0 0 0.94 0 0 0 0 1 0 0 0 0.1 0"/>
<feBlend mode="hard-light" in2="shape" result="effect1_innerShadow_1587_810"/>
</filter>
</defs>
</svg>
