<svg width="10" height="10" viewBox="0 0 10 10" fill="none" xmlns="http://www.w3.org/2000/svg">
<g filter="url(#filter0_i_1678_730)">
<path fill-rule="evenodd" clip-rule="evenodd" d="M3.49986 4.89992C3.9001 3.80026 6.0997 3.8002 6.49986 4.89992C6.89977 5.99992 5.9998 8.29916 4.99986 8.29933C4.51708 8.29924 4.05833 7.76287 3.75767 7.08449C3.67776 6.90419 3.63814 6.81358 3.68248 6.67043C3.68695 6.65607 3.69924 6.6254 3.70592 6.61183C3.77245 6.47747 3.84662 6.44588 3.99498 6.38429C4.06462 6.35538 4.13789 6.33014 4.21275 6.30812C4.39594 6.25426 4.57172 6.22628 4.70201 6.21242C4.7663 6.20559 4.81857 6.20233 4.85338 6.2007C4.87044 6.19991 4.88348 6.1999 4.89146 6.19972H4.90025L4.98033 6.19093C5.16256 6.1536 5.29967 5.9926 5.29967 5.79933C5.29931 5.57889 5.12071 5.39922 4.90025 5.39894H4.89146C4.88717 5.399 4.88088 5.39976 4.87388 5.39992C4.85982 5.40023 4.84026 5.40075 4.81627 5.40187C4.76764 5.40414 4.69915 5.40877 4.61705 5.4175C4.45374 5.43487 4.2287 5.46953 3.98717 5.54054C3.70943 5.62223 3.38479 5.4462 3.43248 5.16066C3.44793 5.06827 3.47048 4.98076 3.49986 4.89992ZM4.99986 1.69972C5.18537 1.69972 5.35704 1.79939 5.44908 1.96046L5.54771 2.13332C5.63004 2.27731 5.81681 2.32169 5.95494 2.23L6.06529 2.15578C6.366 1.9553 6.75769 2.22523 6.6776 2.57765L6.60941 2.87823C6.52643 3.24406 6.48494 3.42698 6.38275 3.49336C6.36549 3.50457 6.35635 3.50945 6.33742 3.51755C6.22541 3.56552 6.01348 3.48404 5.58962 3.32109C5.40426 3.24983 5.20204 3.19972 4.99986 3.19972C4.79768 3.19972 4.59546 3.24983 4.4101 3.32109C3.98624 3.48405 3.77431 3.56553 3.6623 3.51756C3.64338 3.50945 3.63423 3.50457 3.61697 3.49336C3.51479 3.42698 3.47329 3.24406 3.39031 2.87823L3.32213 2.57765C3.24203 2.22523 3.63372 1.9553 3.93443 2.15578L4.04478 2.23C4.18291 2.3217 4.36968 2.27731 4.45201 2.13332L4.55064 1.96046C4.64268 1.7994 4.81435 1.69972 4.99986 1.69972Z" fill="white"/>
</g>
<defs>
<filter id="filter0_i_1678_730" x="0" y="0" width="10" height="10" filterUnits="userSpaceOnUse" color-interpolation-filters="sRGB">
<feFlood flood-opacity="0" result="BackgroundImageFix"/>
<feBlend mode="normal" in="SourceGraphic" in2="BackgroundImageFix" result="shape"/>
<feColorMatrix in="SourceAlpha" type="matrix" values="0 0 0 0 0 0 0 0 0 0 0 0 0 0 0 0 0 0 127 0" result="hardAlpha"/>
<feOffset/>
<feGaussianBlur stdDeviation="1"/>
<feComposite in2="hardAlpha" operator="arithmetic" k2="-1" k3="1"/>
<feColorMatrix type="matrix" values="0 0 0 0 0.942 0 0 0 0 0.94 0 0 0 0 1 0 0 0 0.1 0"/>
<feBlend mode="hard-light" in2="shape" result="effect1_innerShadow_1678_730"/>
</filter>
</defs>
</svg>
