<svg width="10" height="10" viewBox="0 0 10 10" fill="none" xmlns="http://www.w3.org/2000/svg">
<g filter="url(#filter0_i_1251_726)">
<path d="M6.75832 2.43037C7.11184 2.1559 7.2886 2.01866 7.43871 2.06616C7.45918 2.07264 7.47899 2.08134 7.4976 2.09203C7.63414 2.17044 7.65168 2.38146 7.68674 2.80352C7.75809 3.66223 7.76566 4.63268 7.60528 5.44853C7.59363 5.50783 7.5878 5.53748 7.58639 5.55142C7.56859 5.72748 7.68071 5.86379 7.8569 5.88029C7.87085 5.88159 7.89567 5.88159 7.94531 5.88159C8.1383 5.88177 8.29468 6.03822 8.29492 6.2312C8.29492 6.42438 8.13846 6.58063 7.94531 6.58081H7.25679C7.22366 6.58081 7.19363 6.59807 7.1769 6.62666C7.14822 6.67568 7.16838 6.73988 7.22106 6.76108L7.69531 6.9519C7.87447 7.02376 7.96115 7.2277 7.88965 7.40698C7.8177 7.58599 7.61476 7.67281 7.43555 7.60132L7.00025 7.42698C6.85244 7.36778 6.77853 7.33818 6.71049 7.34268C6.69909 7.34344 6.69217 7.34424 6.6809 7.34612C6.61364 7.35735 6.53492 7.41265 6.37748 7.52325C6.02539 7.7706 5.57499 7.9421 5 7.94214C4.42474 7.94211 3.95855 7.77079 3.59409 7.52345C3.43853 7.41787 3.36075 7.36509 3.29454 7.35463C3.28345 7.35288 3.27661 7.35214 3.26541 7.35148C3.19849 7.34754 3.12601 7.37655 2.98104 7.43458L2.56445 7.60132C2.38514 7.67286 2.18122 7.58618 2.10938 7.40698C2.03786 7.22769 2.12552 7.02376 2.30469 6.9519L2.74379 6.77453C2.79888 6.75228 2.82047 6.68516 2.79253 6.63273C2.77535 6.60048 2.74257 6.58081 2.70603 6.58081H2.05469C1.86148 6.5807 1.70508 6.42443 1.70508 6.2312C1.70532 6.03817 1.86163 5.88169 2.05469 5.88159C2.187 5.88159 2.25316 5.88159 2.30105 5.86492C2.40239 5.82965 2.47202 5.75142 2.4953 5.64668C2.5063 5.59717 2.49826 5.52829 2.48218 5.39054C2.39966 4.68382 2.34357 3.72048 2.36241 2.87411C2.37134 2.47271 2.37581 2.27201 2.51122 2.18592C2.52914 2.17453 2.54991 2.16432 2.56987 2.15708C2.72071 2.10236 2.89341 2.22943 3.2388 2.48356C3.42098 2.6176 3.59841 2.74378 3.76609 2.86019C3.88863 2.94526 3.94989 2.98779 4.01319 2.99957C4.02413 3.00161 4.03002 3.00242 4.0411 3.00342C4.10523 3.00921 4.19711 2.97745 4.38089 2.91394C4.57494 2.84688 4.78321 2.81032 5 2.8103C5.20737 2.81033 5.40696 2.84373 5.59376 2.90529C5.78012 2.9667 5.87329 2.99741 5.9378 2.99044C5.94895 2.98923 5.95487 2.98831 5.96585 2.98606C6.02941 2.97302 6.09019 2.92886 6.21175 2.84054C6.38525 2.71448 6.56938 2.57706 6.75832 2.43037ZM4.90251 6.51636C4.84749 6.51636 4.81997 6.51636 4.79908 6.51931C4.63157 6.543 4.51676 6.70043 4.54541 6.86716C4.54899 6.88796 4.5574 6.91416 4.57422 6.96655C4.6336 7.15135 4.80589 7.2771 5 7.2771C5.19407 7.27706 5.36641 7.15133 5.42578 6.96655C5.4426 6.91416 5.45101 6.88796 5.45459 6.86716C5.48324 6.70043 5.36843 6.543 5.20092 6.51931C5.18003 6.51636 5.15251 6.51636 5.09749 6.51636H4.90251ZM3.35059 5.7019C3.37883 5.98434 3.61655 6.19995 3.90039 6.19995C4.18406 6.19975 4.42196 5.98421 4.4502 5.7019C4.46597 5.54288 4.47386 5.46337 4.45183 5.40059C4.42509 5.3244 4.36876 5.26221 4.29558 5.22808C4.23529 5.19995 4.15539 5.19995 3.99558 5.19995H3.80432C3.64506 5.19995 3.56543 5.19995 3.50533 5.22786C3.43159 5.2621 3.37491 5.32481 3.34826 5.40162C3.32654 5.46422 3.33456 5.54345 3.35059 5.7019ZM5.4502 5.70288C5.47864 5.9851 5.7163 6.19995 6 6.19995C6.2837 6.19995 6.52136 5.9851 6.5498 5.70288C6.56565 5.54289 6.57357 5.46289 6.55122 5.39979C6.52445 5.32421 6.46854 5.2625 6.39598 5.22841C6.33538 5.19995 6.25499 5.19995 6.09422 5.19995H5.90578C5.74501 5.19995 5.66462 5.19995 5.60402 5.22841C5.53146 5.2625 5.47555 5.32421 5.44878 5.39979C5.42643 5.46289 5.43435 5.54289 5.4502 5.70288Z" fill="white"/>
</g>
<defs>
<filter id="filter0_i_1251_726" x="0" y="0" width="10" height="10" filterUnits="userSpaceOnUse" color-interpolation-filters="sRGB">
<feFlood flood-opacity="0" result="BackgroundImageFix"/>
<feBlend mode="normal" in="SourceGraphic" in2="BackgroundImageFix" result="shape"/>
<feColorMatrix in="SourceAlpha" type="matrix" values="0 0 0 0 0 0 0 0 0 0 0 0 0 0 0 0 0 0 127 0" result="hardAlpha"/>
<feOffset/>
<feGaussianBlur stdDeviation="1"/>
<feComposite in2="hardAlpha" operator="arithmetic" k2="-1" k3="1"/>
<feColorMatrix type="matrix" values="0 0 0 0 0.942 0 0 0 0 0.94 0 0 0 0 1 0 0 0 0.1 0"/>
<feBlend mode="hard-light" in2="shape" result="effect1_innerShadow_1251_726"/>
</filter>
</defs>
</svg>
