<svg width="10" height="10" viewBox="0 0 10 10" fill="none" xmlns="http://www.w3.org/2000/svg">
<g filter="url(#filter0_i_1587_689)">
<path d="M5.00098 4.3076C5.04767 4.30763 5.09405 4.31024 5.13965 4.31444C5.15304 4.31567 5.1664 4.31676 5.17969 4.31834C5.21295 4.32231 5.24577 4.32787 5.27832 4.33397C5.29469 4.33704 5.31098 4.34014 5.32715 4.34373C5.35487 4.3499 5.38206 4.35755 5.40918 4.36522C5.4241 4.36944 5.43938 4.37227 5.4541 4.37694C5.49661 4.39041 5.53833 4.40577 5.5791 4.42284C5.59281 4.42857 5.60564 4.43624 5.61914 4.44237C5.64214 4.45281 5.66514 4.46304 5.6875 4.47459C5.71098 4.48672 5.73409 4.49937 5.75684 4.51268C5.76909 4.51986 5.78094 4.52763 5.79297 4.53514C5.81753 4.55047 5.84165 4.56631 5.86523 4.58299C5.87321 4.58864 5.88081 4.59477 5.88867 4.60057C5.91245 4.6181 5.9363 4.63542 5.95898 4.65428C5.98965 4.67982 6.01933 4.70649 6.04785 4.73436C6.06137 4.74755 6.0739 4.76168 6.08691 4.77538C6.1039 4.79327 6.12063 4.81135 6.13672 4.83006C6.15183 4.8476 6.16637 4.86554 6.18066 4.88377C6.1897 4.89531 6.19833 4.90712 6.20703 4.91893C6.2227 4.94016 6.23838 4.96132 6.25293 4.98338C6.26272 4.99825 6.271 5.01405 6.28027 5.02928C6.30294 5.06647 6.32432 5.10432 6.34375 5.14354C6.35322 5.1627 6.3634 5.18154 6.37207 5.20116C6.38171 5.22291 6.38982 5.24528 6.39844 5.26756C6.402 5.2768 6.40677 5.28558 6.41016 5.29491C6.4153 5.30907 6.41923 5.32307 6.42383 5.33592C6.42739 5.34666 6.43125 5.3573 6.43457 5.36815C6.44929 5.41111 6.45986 5.44651 6.46387 5.4785C6.48757 5.58437 6.50098 5.69459 6.50098 5.8076C6.50097 5.81234 6.50104 5.81752 6.50098 5.82225C6.50007 5.90067 6.53802 5.97451 6.60156 6.02049C6.90348 6.23835 7.10059 6.59337 7.10059 6.99413C7.10032 7.6566 6.56291 8.19425 5.90039 8.19432H2.50098C1.8384 8.19432 1.30105 7.65664 1.30078 6.99413C1.30078 6.53369 1.5599 6.1329 1.94043 5.93163C1.99775 5.90123 2.04133 5.84935 2.05957 5.78709C2.20918 5.27358 2.62603 4.87343 3.14941 4.74803C3.17311 4.74148 3.19999 4.73552 3.23145 4.73045C3.27983 4.7217 3.32902 4.71491 3.37891 4.71092C3.41883 4.70769 3.45927 4.70703 3.5 4.70702C3.60345 4.70705 3.7052 4.71802 3.80273 4.73827L3.85742 4.74315C3.8815 4.74239 3.90506 4.73648 3.92773 4.7285C3.9564 4.71852 3.98356 4.70414 4.00684 4.68358C4.27147 4.44945 4.61988 4.3076 5.00098 4.3076ZM6.59961 1.8076C7.42784 1.80783 8.09961 2.47932 8.09961 3.3076C8.09961 3.31236 8.09967 3.31751 8.09961 3.32225C8.0987 3.40072 8.13757 3.47451 8.20117 3.52049C8.50309 3.73835 8.69922 4.09337 8.69922 4.49413C8.69897 5.15666 8.16161 5.69432 7.49902 5.69432H7.34961C7.30549 5.69429 7.26384 5.67548 7.2334 5.64354C7.20616 5.61494 7.18836 5.57826 7.18359 5.53905C7.05111 4.45088 6.12436 3.60793 5.00098 3.60741C4.57205 3.60745 4.17068 3.7315 3.83203 3.94432C3.77425 3.98063 3.7453 3.99897 3.71875 4.00682C3.71461 4.00803 3.71115 4.00881 3.70703 4.00975C3.67992 4.01591 3.64918 4.01489 3.58887 4.0117L3.5 4.00682C3.38455 4.00683 3.32638 4.00722 3.28516 3.98729C3.20136 3.94664 3.15308 3.82689 3.18457 3.73924C3.20009 3.69613 3.22202 3.67452 3.26562 3.63182C3.34637 3.55279 3.43819 3.48503 3.53906 3.43163C3.59652 3.40124 3.64093 3.34946 3.65918 3.28709C3.84087 2.66348 4.41648 2.20737 5.09863 2.20702C5.20213 2.20702 5.30379 2.21803 5.40137 2.23827C5.47411 2.25338 5.55077 2.23277 5.60645 2.18358C5.8709 1.94964 6.21884 1.80778 6.59961 1.8076Z" fill="white"/>
</g>
<defs>
<filter id="filter0_i_1587_689" x="0" y="0" width="10" height="10" filterUnits="userSpaceOnUse" color-interpolation-filters="sRGB">
<feFlood flood-opacity="0" result="BackgroundImageFix"/>
<feBlend mode="normal" in="SourceGraphic" in2="BackgroundImageFix" result="shape"/>
<feColorMatrix in="SourceAlpha" type="matrix" values="0 0 0 0 0 0 0 0 0 0 0 0 0 0 0 0 0 0 127 0" result="hardAlpha"/>
<feOffset/>
<feGaussianBlur stdDeviation="1"/>
<feComposite in2="hardAlpha" operator="arithmetic" k2="-1" k3="1"/>
<feColorMatrix type="matrix" values="0 0 0 0 0.942 0 0 0 0 0.94 0 0 0 0 1 0 0 0 0.1 0"/>
<feBlend mode="hard-light" in2="shape" result="effect1_innerShadow_1587_689"/>
</filter>
</defs>
</svg>
