<svg width="10" height="10" viewBox="0 0 10 10" fill="none" xmlns="http://www.w3.org/2000/svg">
<g filter="url(#filter0_i_1587_801)">
<path fill-rule="evenodd" clip-rule="evenodd" d="M5.93356 2.16309C6.27251 2.04178 6.67509 2.21775 6.8057 2.55324C6.93586 2.88793 6.74607 3.06943 6.83816 3.16161C6.92696 3.25014 7.12975 3.10882 7.43823 3.20925C7.78035 3.32091 7.95873 3.72805 7.83736 4.0669C7.67136 4.52971 7.22066 4.69723 6.7611 4.71775C6.61577 4.72424 6.49977 4.85445 6.49976 4.99993C6.49975 5.14534 6.61562 5.27553 6.76086 5.28233C7.21966 5.30382 7.66897 5.47309 7.8346 5.93548C7.95585 6.27438 7.77984 6.67697 7.44445 6.80762C7.10988 6.93786 6.92835 6.74848 6.83609 6.84008C6.7475 6.92888 6.88888 7.13165 6.78844 7.44015C6.67688 7.78238 6.26969 7.96062 5.93079 7.83928C5.46572 7.6726 5.29779 7.21855 5.27818 6.75679C5.27208 6.61314 5.14358 6.4985 4.9998 6.49899C4.85612 6.49948 4.72774 6.6143 4.72156 6.75785C4.7017 7.21917 4.53363 7.67263 4.06912 7.83928C3.7302 7.96063 3.32697 7.78385 3.19628 7.44844C3.0662 7.11388 3.25505 6.93296 3.16313 6.84077C3.07437 6.75212 2.87226 6.89284 2.56375 6.79243C2.2216 6.68086 2.04404 6.27434 2.16531 5.93548C2.33117 5.47274 2.78101 5.30348 3.24019 5.28225C3.38485 5.27556 3.50015 5.14589 3.49972 5.00108C3.49929 4.85634 3.38368 4.72698 3.23909 4.72064C2.77872 4.70045 2.32683 4.53264 2.16048 4.06897C2.03909 3.73 2.21582 3.32678 2.55132 3.19613C2.88581 3.06615 3.06751 3.25563 3.15968 3.16368C3.24798 3.07487 3.10655 2.87239 3.20664 2.56429C3.31811 2.22191 3.7253 2.04374 4.06428 2.16516C4.52626 2.33079 4.69523 2.77964 4.71672 3.23813C4.72353 3.38341 4.85377 3.49929 4.99922 3.49931C5.14469 3.49932 5.27488 3.38337 5.28149 3.23805C5.30238 2.7788 5.47065 2.32889 5.93356 2.16309ZM5.63594 4.36382C5.2845 4.01239 4.71476 4.01176 4.36328 4.36313C4.01181 4.71461 4.01181 5.28501 4.36328 5.63648C4.71476 5.98783 5.2845 5.98722 5.63594 5.63579C5.98727 5.28435 5.98726 4.71527 5.63594 4.36382Z" fill="white"/>
</g>
<defs>
<filter id="filter0_i_1587_801" x="0" y="0" width="10" height="10" filterUnits="userSpaceOnUse" color-interpolation-filters="sRGB">
<feFlood flood-opacity="0" result="BackgroundImageFix"/>
<feBlend mode="normal" in="SourceGraphic" in2="BackgroundImageFix" result="shape"/>
<feColorMatrix in="SourceAlpha" type="matrix" values="0 0 0 0 0 0 0 0 0 0 0 0 0 0 0 0 0 0 127 0" result="hardAlpha"/>
<feOffset/>
<feGaussianBlur stdDeviation="1"/>
<feComposite in2="hardAlpha" operator="arithmetic" k2="-1" k3="1"/>
<feColorMatrix type="matrix" values="0 0 0 0 0.942 0 0 0 0 0.94 0 0 0 0 1 0 0 0 0.1 0"/>
<feBlend mode="hard-light" in2="shape" result="effect1_innerShadow_1587_801"/>
</filter>
</defs>
</svg>
