<svg width="10" height="10" viewBox="0 0 10 10" fill="none" xmlns="http://www.w3.org/2000/svg">
<g filter="url(#filter0_i_1251_671)">
<path fill-rule="evenodd" clip-rule="evenodd" d="M4.99858 6.02031C5.71686 6.02031 6.34367 6.15132 6.79058 6.28202C6.86872 6.30489 6.92101 6.37786 6.92642 6.45911C6.93575 6.59922 6.95495 6.73878 6.98393 6.87675L7.10308 7.44413C7.1594 7.71267 7.02521 7.98352 6.76616 8.07402C6.36274 8.21493 5.71639 8.39052 4.99858 8.39042C4.28998 8.39025 3.61296 8.21974 3.17729 8.07988C2.89323 7.98866 2.74929 7.68748 2.82964 7.40019L2.95366 6.95488C2.997 6.80018 3.02764 6.64272 3.04562 6.48396C3.05617 6.39072 3.11751 6.30837 3.20757 6.28202C3.65437 6.15134 4.28046 6.02036 4.99858 6.02031ZM4.11479 6.67558C3.93896 6.7229 3.83426 6.90395 3.8814 7.07988L3.93901 7.29179C3.98618 7.46783 4.16727 7.57236 4.34331 7.52519C4.5189 7.47788 4.62349 7.29759 4.57671 7.12187L4.51909 6.90898C4.47192 6.73293 4.29084 6.62841 4.11479 6.67558ZM5.88335 6.67558C5.70732 6.62841 5.52624 6.73296 5.47905 6.90898L5.42143 7.12187C5.37463 7.29762 5.47921 7.47789 5.65483 7.52519C5.83088 7.57236 6.01196 7.46783 6.05913 7.29179L6.11675 7.07988C6.16387 6.90396 6.05915 6.72291 5.88335 6.67558ZM6.91265 1.68144C7.12489 1.50185 7.44624 1.68318 7.40288 1.9578L7.30815 2.55741C7.25098 2.92131 7.53254 3.2506 7.90093 3.25077H8.02886C8.36022 3.25078 8.63587 3.53297 8.48296 3.82695C8.23354 4.30632 7.72122 4.64679 7.39214 4.82695C7.20832 4.92756 7.06828 5.10155 7.03472 5.30839C7.00878 5.46815 6.84884 5.56873 6.6917 5.52999C6.2319 5.41662 5.6505 5.32109 4.99858 5.32109C4.36646 5.32113 3.80114 5.4114 3.34844 5.52039C3.17228 5.5628 2.9936 5.44932 2.96598 5.27025L2.96343 5.2537C2.9298 5.03608 2.77893 4.85536 2.58257 4.75566C2.25444 4.58902 1.76376 4.27832 1.51909 3.82499C1.36182 3.53342 1.63795 3.25078 1.96929 3.25077H2.09722C2.46558 3.25057 2.74715 2.92129 2.68999 2.55741L2.59526 1.9578C2.55193 1.68337 2.87227 1.50247 3.08452 1.68144L3.63628 2.14823C3.7992 2.28583 4.02286 2.32582 4.22905 2.27128C4.4491 2.21307 4.74365 2.15026 4.99858 2.15019C5.25775 2.15019 5.54952 2.21159 5.76714 2.26933C5.97466 2.32433 6.19985 2.28484 6.36382 2.14628L6.91265 1.68144ZM4.10796 3.89335L3.79448 3.97343C3.66194 4.00713 3.5689 4.12671 3.5689 4.26347V4.56132C3.56908 4.80927 3.77018 5.01029 4.01811 5.01054C4.21473 5.01054 4.38916 4.88277 4.4478 4.69511L4.55132 4.3621C4.63756 4.08612 4.38818 3.82225 4.10796 3.89335ZM6.00054 3.89335C5.72024 3.82209 5.46994 4.08606 5.5562 4.3621L5.66069 4.69511C5.71936 4.88266 5.89289 5.01048 6.0894 5.01054C6.33754 5.01054 6.53843 4.80942 6.53862 4.56132V4.26249C6.5384 4.12605 6.44622 4.0072 6.31401 3.97343L6.00054 3.89335Z" fill="white"/>
</g>
<defs>
<filter id="filter0_i_1251_671" x="0" y="0" width="10" height="10" filterUnits="userSpaceOnUse" color-interpolation-filters="sRGB">
<feFlood flood-opacity="0" result="BackgroundImageFix"/>
<feBlend mode="normal" in="SourceGraphic" in2="BackgroundImageFix" result="shape"/>
<feColorMatrix in="SourceAlpha" type="matrix" values="0 0 0 0 0 0 0 0 0 0 0 0 0 0 0 0 0 0 127 0" result="hardAlpha"/>
<feOffset/>
<feGaussianBlur stdDeviation="1"/>
<feComposite in2="hardAlpha" operator="arithmetic" k2="-1" k3="1"/>
<feColorMatrix type="matrix" values="0 0 0 0 0.942 0 0 0 0 0.94 0 0 0 0 1 0 0 0 0.1 0"/>
<feBlend mode="hard-light" in2="shape" result="effect1_innerShadow_1251_671"/>
</filter>
</defs>
</svg>
