<svg width="10" height="10" viewBox="0 0 10 10" fill="none" xmlns="http://www.w3.org/2000/svg">
<g filter="url(#filter0_i_1251_721)">
<path d="M5.00139 1.94971C5.79678 1.94971 6.33912 2.26655 6.52776 2.396C6.57507 2.42847 6.63468 2.44105 6.68987 2.42529C7.3767 2.22905 8.07555 2.69606 8.15666 3.40576L8.2758 4.44678C8.33949 5.00688 7.85908 5.47735 7.30022 5.40283C7.11328 5.37806 6.95822 5.5567 6.98967 5.74268C7.03158 5.99058 7.06084 6.31432 7.00139 6.58643C6.97901 6.68868 6.96751 6.74049 6.9467 6.79932C6.94348 6.8084 6.94041 6.81568 6.93694 6.82471C6.91452 6.8829 6.87443 6.95878 6.79338 7.10986C6.60408 7.46275 6.12054 8.05029 5.00139 8.05029C3.88238 8.05024 3.39968 7.46274 3.21037 7.10986C3.1309 6.96171 3.09104 6.88765 3.07072 6.8374C3.06703 6.82827 3.0654 6.82416 3.06194 6.81494C3.04285 6.76424 3.02764 6.70565 2.99748 6.58838C2.91689 6.27501 2.93038 5.88069 2.95647 5.60303C2.97192 5.43741 2.82341 5.29575 2.66057 5.32959C2.13919 5.43836 1.66357 5.00426 1.72404 4.4751L1.84709 3.40576C1.92819 2.69614 2.62615 2.22924 3.31291 2.42529C3.36808 2.44106 3.4277 2.42845 3.47502 2.396C3.6635 2.26662 4.20586 1.94975 5.00139 1.94971ZM4.62932 6.25049C4.47064 6.25065 4.36099 6.40849 4.41643 6.55713L4.46037 6.67529C4.54485 6.90058 4.76079 7.05029 5.00139 7.05029C5.24186 7.05016 5.45699 6.90047 5.54143 6.67529L5.58537 6.55713C5.64093 6.40838 5.53133 6.25049 5.37248 6.25049H4.62932ZM4.20061 4.05029C3.98 4.05054 3.80136 4.22908 3.80119 4.44971V5.05029C3.80134 5.27093 3.97999 5.44946 4.20061 5.44971C4.42143 5.44971 4.60085 5.27108 4.601 5.05029V4.44971C4.60083 4.22893 4.42142 4.05029 4.20061 4.05029ZM5.80119 4.05029C5.58038 4.05029 5.40097 4.22893 5.4008 4.44971V5.05029C5.40095 5.27108 5.58037 5.44971 5.80119 5.44971C6.02194 5.44962 6.20046 5.27102 6.20061 5.05029V4.44971C6.20044 4.22899 6.02193 4.05038 5.80119 4.05029Z" fill="white"/>
</g>
<defs>
<filter id="filter0_i_1251_721" x="0" y="0" width="10" height="10" filterUnits="userSpaceOnUse" color-interpolation-filters="sRGB">
<feFlood flood-opacity="0" result="BackgroundImageFix"/>
<feBlend mode="normal" in="SourceGraphic" in2="BackgroundImageFix" result="shape"/>
<feColorMatrix in="SourceAlpha" type="matrix" values="0 0 0 0 0 0 0 0 0 0 0 0 0 0 0 0 0 0 127 0" result="hardAlpha"/>
<feOffset/>
<feGaussianBlur stdDeviation="1"/>
<feComposite in2="hardAlpha" operator="arithmetic" k2="-1" k3="1"/>
<feColorMatrix type="matrix" values="0 0 0 0 0.942 0 0 0 0 0.94 0 0 0 0 1 0 0 0 0.1 0"/>
<feBlend mode="hard-light" in2="shape" result="effect1_innerShadow_1251_721"/>
</filter>
</defs>
</svg>
