<svg width="10" height="10" viewBox="0 0 10 10" fill="none" xmlns="http://www.w3.org/2000/svg">
<g filter="url(#filter0_i_1686_205)">
<path fill-rule="evenodd" clip-rule="evenodd" d="M5.69986 3C5.85847 3 5.95072 3.17525 5.88327 3.3188C5.64052 3.83546 5.52505 4.42727 5.52505 5C5.52505 5.57244 5.6407 6.16376 5.88331 6.68016C5.95076 6.82376 5.85851 7 5.69986 7C3.50025 6.99993 3.89981 5.6 2.60025 6.09961C1.6563 6.46267 1.29232 6.08779 1.54659 5.58722C1.71888 5.24803 1.80503 5.07844 1.80806 5.0141C1.80896 4.9949 1.80896 5.0051 1.80806 4.98591C1.80503 4.92156 1.71888 4.75197 1.54659 4.41278C1.29232 3.91221 1.6563 3.53733 2.60025 3.90039C3.89981 4.4 3.50024 3.00007 5.69986 3ZM6.61441 3.42892C6.68773 3.3027 6.72439 3.23959 6.81378 3.20021C6.82411 3.19566 6.84237 3.18909 6.85324 3.18603C6.94725 3.15949 7.01972 3.18632 7.16468 3.23996C8.26743 3.64805 8.69985 4.48547 8.69986 5C8.69987 5.51447 8.26735 6.35099 7.16484 6.759C7.01981 6.81267 6.94729 6.83951 6.85328 6.81297C6.84241 6.80991 6.82415 6.80334 6.81382 6.79879C6.72442 6.7594 6.68774 6.69624 6.61437 6.56992C6.36171 6.13492 6.22427 5.58083 6.22427 5C6.22427 4.41881 6.36157 3.86413 6.61441 3.42892ZM7.40005 4.59961C7.12405 4.59961 6.90028 4.82366 6.90005 5.09961C6.90005 5.37575 7.12391 5.59961 7.40005 5.59961C7.67616 5.59957 7.90005 5.37573 7.90005 5.09961C7.89983 4.82369 7.67602 4.59965 7.40005 4.59961Z" fill="white"/>
</g>
<defs>
<filter id="filter0_i_1686_205" x="0" y="0" width="10" height="10" filterUnits="userSpaceOnUse" color-interpolation-filters="sRGB">
<feFlood flood-opacity="0" result="BackgroundImageFix"/>
<feBlend mode="normal" in="SourceGraphic" in2="BackgroundImageFix" result="shape"/>
<feColorMatrix in="SourceAlpha" type="matrix" values="0 0 0 0 0 0 0 0 0 0 0 0 0 0 0 0 0 0 127 0" result="hardAlpha"/>
<feOffset/>
<feGaussianBlur stdDeviation="1"/>
<feComposite in2="hardAlpha" operator="arithmetic" k2="-1" k3="1"/>
<feColorMatrix type="matrix" values="0 0 0 0 0.942 0 0 0 0 0.94 0 0 0 0 1 0 0 0 0.1 0"/>
<feBlend mode="hard-light" in2="shape" result="effect1_innerShadow_1686_205"/>
</filter>
</defs>
</svg>
