<svg width="10" height="10" viewBox="0 0 10 10" fill="none" xmlns="http://www.w3.org/2000/svg">
<g filter="url(#filter0_i_1686_212)">
<path fill-rule="evenodd" clip-rule="evenodd" d="M4.50917 2.16711C4.65101 2.09714 4.84393 2.20506 5.2289 2.42102L5.57156 2.61287C5.80018 2.74086 5.9145 2.80486 5.95471 2.89836C5.96124 2.91353 5.96472 2.92359 5.96898 2.93954C5.99523 3.03788 5.93711 3.17793 5.82088 3.45805C5.62072 3.94041 5.52577 4.47836 5.52577 5.00012C5.52579 5.64063 5.66959 6.30499 5.97492 6.86137C6.01123 6.92753 6.02938 6.96062 6.0386 7.00341C6.04972 7.05506 6.03493 7.16102 6.01008 7.20765C5.98949 7.24628 5.98726 7.24854 5.9828 7.25305C5.97431 7.2616 5.9647 7.27068 5.95546 7.27844C5.89159 7.33182 5.80804 7.35655 5.64198 7.40539L5.14003 7.55286C4.7832 7.65782 4.60378 7.71004 4.48573 7.62805C4.46963 7.61681 4.45442 7.60413 4.44081 7.58996C4.34133 7.48619 4.36537 7.30151 4.41347 6.93274C4.42564 6.83649 4.37268 6.74466 4.28739 6.69842C3.58664 6.31852 3.50126 5.75325 2.59999 6.09973C1.65638 6.46256 1.29252 6.08778 1.54658 5.58732C1.71878 5.24812 1.80488 5.07852 1.8079 5.0142C1.80881 4.99501 1.80881 5.00522 1.8079 4.98603C1.80488 4.92172 1.71877 4.75213 1.54655 4.41295C1.29226 3.91212 1.65624 3.5367 2.59999 3.89954C3.44181 4.22321 3.572 3.75216 4.15634 3.37904C4.23552 3.32849 4.27511 3.30321 4.29607 3.28327C4.35332 3.2288 4.37812 3.17914 4.38726 3.10064C4.39061 3.07191 4.38781 3.03529 4.38222 2.96204C4.34834 2.52153 4.33096 2.30039 4.45448 2.20129C4.47121 2.18792 4.48999 2.17664 4.50917 2.16711ZM6.61252 3.43274C6.68568 3.30622 6.72226 3.24296 6.81165 3.20341C6.82198 3.19884 6.84024 3.19225 6.85112 3.18916C6.94515 3.16247 7.01776 3.18926 7.16299 3.24283C8.26674 3.65 8.70047 4.48539 8.70058 5.00012C8.70041 5.51465 8.26726 6.35062 7.16467 6.75824C7.01959 6.81187 6.94704 6.83869 6.85303 6.81211C6.84216 6.80904 6.8239 6.80246 6.81357 6.7979C6.72418 6.75847 6.68753 6.69529 6.61422 6.56892C6.36199 6.13413 6.22501 5.58056 6.22499 5.00012C6.22499 4.42056 6.36118 3.86739 6.61252 3.43274ZM7.3998 4.59973C7.12383 4.59982 6.89996 4.82378 6.8998 5.09973C6.8998 5.37581 7.12373 5.59964 7.3998 5.59973C7.67594 5.59973 7.8998 5.37587 7.8998 5.09973C7.89963 4.82373 7.67584 4.59973 7.3998 4.59973Z" fill="white"/>
</g>
<defs>
<filter id="filter0_i_1686_212" x="0" y="0" width="10" height="10" filterUnits="userSpaceOnUse" color-interpolation-filters="sRGB">
<feFlood flood-opacity="0" result="BackgroundImageFix"/>
<feBlend mode="normal" in="SourceGraphic" in2="BackgroundImageFix" result="shape"/>
<feColorMatrix in="SourceAlpha" type="matrix" values="0 0 0 0 0 0 0 0 0 0 0 0 0 0 0 0 0 0 127 0" result="hardAlpha"/>
<feOffset/>
<feGaussianBlur stdDeviation="1"/>
<feComposite in2="hardAlpha" operator="arithmetic" k2="-1" k3="1"/>
<feColorMatrix type="matrix" values="0 0 0 0 0.942 0 0 0 0 0.94 0 0 0 0 1 0 0 0 0.1 0"/>
<feBlend mode="hard-light" in2="shape" result="effect1_innerShadow_1686_212"/>
</filter>
</defs>
</svg>
