<svg width="10" height="10" viewBox="0 0 10 10" fill="none" xmlns="http://www.w3.org/2000/svg">
<g filter="url(#filter0_i_1587_779)">
<path fill-rule="evenodd" clip-rule="evenodd" d="M6.31634 2.1735C6.47484 1.90968 6.88003 2.02699 6.87298 2.33464L6.8427 3.60026C6.82468 4.35659 6.35277 4.99618 5.69124 5.26376C5.54683 5.32218 5.47462 5.35138 5.44141 5.39484C5.43593 5.40201 5.43274 5.40674 5.42815 5.4145C5.40032 5.46159 5.40032 5.52743 5.40032 5.65913V6.62853C5.40032 6.87787 5.40032 7.00254 5.5214 7.05454C5.53464 7.06022 5.55683 7.06651 5.57108 7.06862C5.70144 7.08788 5.75778 6.99647 5.87046 6.81364C5.9145 6.74219 5.95771 6.66488 5.99993 6.58171C6.31219 5.9666 6.65154 5.8339 6.9052 5.84831C7.1368 5.8615 7.16478 6.14621 7.05266 6.34928C6.9123 6.60361 6.76956 6.98705 6.79876 7.4655C6.81509 7.73512 6.62455 7.99967 6.35442 7.99967H3.66204C3.38699 7.99966 3.19559 7.72523 3.21477 7.45085C3.24759 6.98113 3.10374 6.60398 2.95989 6.35221C2.84311 6.14748 2.8699 5.85782 3.1054 5.84831C3.35786 5.83822 3.69197 5.97524 3.99993 6.58171C4.04213 6.66483 4.08532 6.74209 4.12934 6.81351C4.24206 6.99639 4.29842 7.08783 4.42878 7.06856C4.44303 7.06646 4.46522 7.06017 4.47846 7.05448C4.59954 7.00248 4.59954 6.87779 4.59954 6.62841V5.65909C4.59954 5.52741 4.59954 5.46157 4.57171 5.41449C4.56712 5.40673 4.56393 5.40199 4.55845 5.39483C4.52525 5.35137 4.45305 5.32216 4.30866 5.26375C3.64716 4.99612 3.17515 4.35656 3.15716 3.60026L3.12688 2.33464C3.11979 2.02688 3.52606 1.90944 3.6845 2.1735L4.01848 2.73112C4.14028 2.93411 4.43898 2.92235 4.54485 2.71061L4.73138 2.33659C4.84193 2.11547 5.15793 2.11547 5.26848 2.33659L5.45598 2.71061C5.56185 2.92235 5.85958 2.93411 5.98138 2.73112L6.31634 2.1735Z" fill="white"/>
</g>
<defs>
<filter id="filter0_i_1587_779" x="0" y="0" width="10" height="10" filterUnits="userSpaceOnUse" color-interpolation-filters="sRGB">
<feFlood flood-opacity="0" result="BackgroundImageFix"/>
<feBlend mode="normal" in="SourceGraphic" in2="BackgroundImageFix" result="shape"/>
<feColorMatrix in="SourceAlpha" type="matrix" values="0 0 0 0 0 0 0 0 0 0 0 0 0 0 0 0 0 0 127 0" result="hardAlpha"/>
<feOffset/>
<feGaussianBlur stdDeviation="1"/>
<feComposite in2="hardAlpha" operator="arithmetic" k2="-1" k3="1"/>
<feColorMatrix type="matrix" values="0 0 0 0 0.942 0 0 0 0 0.94 0 0 0 0 1 0 0 0 0.1 0"/>
<feBlend mode="hard-light" in2="shape" result="effect1_innerShadow_1587_779"/>
</filter>
</defs>
</svg>
