<svg width="10" height="10" viewBox="0 0 10 10" fill="none" xmlns="http://www.w3.org/2000/svg">
<g filter="url(#filter0_i_1587_792)">
<path fill-rule="evenodd" clip-rule="evenodd" d="M3.49985 2.40209C3.97814 2.12595 4.58973 2.28982 4.86588 2.76812C4.91157 2.84734 5.08832 2.84698 5.13405 2.76777C5.41025 2.28963 6.02126 2.1262 6.49949 2.4023C6.97777 2.67844 7.1424 3.2898 6.86629 3.76809C6.82055 3.84731 6.9086 3.99982 7.00008 3.99982C7.55222 3.99998 7.99949 4.44819 7.99949 5.00038C7.99923 5.55228 7.55217 5.99988 7.00026 6.00014C6.90866 6.00014 6.82007 6.15289 6.86588 6.23222C7.14184 6.71048 6.97807 7.32214 6.49985 7.59824C6.02164 7.8743 5.41002 7.71032 5.13382 7.23222C5.08802 7.15288 4.91145 7.15323 4.86565 7.23256C4.58943 7.71035 3.97829 7.87379 3.50021 7.59803C3.02204 7.32196 2.85754 6.71048 3.13341 6.23224C3.17914 6.15304 3.09108 6.00051 2.99962 6.00051C2.44742 6.00044 2.00024 5.55217 2.00021 4.99996C2.00021 4.44778 2.4473 4.00037 2.99944 4.00019C3.09095 4.00019 3.17961 3.84735 3.13382 3.76812C2.85769 3.28984 3.0216 2.67825 3.49985 2.40209ZM4.49985 4.13414C4.02166 4.41032 3.85771 5.02192 4.13382 5.50017C4.41001 5.97824 5.02165 6.14219 5.49985 5.86619C5.97806 5.5901 6.14183 4.97843 5.86588 4.50017C5.58973 4.02187 4.97814 3.858 4.49985 4.13414Z" fill="white"/>
</g>
<defs>
<filter id="filter0_i_1587_792" x="0" y="0" width="10" height="10" filterUnits="userSpaceOnUse" color-interpolation-filters="sRGB">
<feFlood flood-opacity="0" result="BackgroundImageFix"/>
<feBlend mode="normal" in="SourceGraphic" in2="BackgroundImageFix" result="shape"/>
<feColorMatrix in="SourceAlpha" type="matrix" values="0 0 0 0 0 0 0 0 0 0 0 0 0 0 0 0 0 0 127 0" result="hardAlpha"/>
<feOffset/>
<feGaussianBlur stdDeviation="1"/>
<feComposite in2="hardAlpha" operator="arithmetic" k2="-1" k3="1"/>
<feColorMatrix type="matrix" values="0 0 0 0 0.942 0 0 0 0 0.94 0 0 0 0 1 0 0 0 0.1 0"/>
<feBlend mode="hard-light" in2="shape" result="effect1_innerShadow_1587_792"/>
</filter>
</defs>
</svg>
