<svg width="10" height="10" viewBox="0 0 10 10" fill="none" xmlns="http://www.w3.org/2000/svg">
<g filter="url(#filter0_i_1587_784)">
<path fill-rule="evenodd" clip-rule="evenodd" d="M5.09094 2.24975C5.2775 1.92733 5.64028 1.90332 5.96301 2.08959C6.28572 2.27599 6.44631 2.60273 6.25988 2.92553C6.22945 2.97933 6.28888 3.08179 6.3507 3.08178C6.72329 3.08195 6.92494 3.38394 6.92492 3.75659C6.92475 4.12906 6.72309 4.43103 6.3507 4.43139C6.28856 4.4314 6.22881 4.5348 6.25988 4.58862C6.4458 4.91123 6.28465 5.23719 5.96203 5.42358C5.79736 5.51853 5.62253 5.55832 5.46594 5.53198C5.45071 5.52941 5.44267 5.5281 5.4425 5.52807C5.4268 5.52553 5.41278 5.52658 5.40051 5.53002V6.62866C5.40051 6.87707 5.40087 7.00142 5.5216 7.05346C5.53478 7.05911 5.55714 7.06598 5.5714 7.06811C5.70175 7.0873 5.75806 6.99562 5.87023 6.81323C5.91403 6.74201 5.9571 6.66459 5.99914 6.58178C6.31132 5.9668 6.65174 5.83406 6.90539 5.84838C7.13666 5.86185 7.16491 6.14639 7.05285 6.34936C6.91246 6.60367 6.76976 6.98704 6.79894 7.46557C6.81531 7.73515 6.62465 7.99962 6.35461 7.99975H3.66223C3.38733 7.99955 3.19481 7.72521 3.21398 7.45092C3.24674 6.98159 3.10381 6.60501 2.96008 6.35327C2.84329 6.14867 2.86953 5.8583 3.10461 5.84838C3.35709 5.83818 3.69206 5.97517 4.00012 6.58178C4.04238 6.66502 4.08593 6.74271 4.13 6.8142C4.2424 6.99656 4.29886 7.08805 4.42883 7.06909C4.44301 7.06699 4.46537 7.0601 4.47863 7.05444C4.59971 7.00244 4.59973 6.87787 4.59973 6.62866V5.53002C4.58722 5.52628 4.57291 5.52547 4.55676 5.52807C4.55645 5.52812 4.54861 5.52937 4.53332 5.53198C4.3768 5.55863 4.20183 5.51945 4.03723 5.42456C3.71446 5.23827 3.55326 4.91138 3.73937 4.58862C3.77034 4.53492 3.71151 4.43257 3.64953 4.43237C3.277 4.43233 3.07454 4.13 3.07433 3.75756C3.07438 3.38479 3.27675 3.08191 3.64953 3.08178C3.71144 3.08177 3.77104 2.97929 3.74035 2.92553C3.55404 2.60283 3.71457 2.27609 4.03723 2.08959C4.35997 1.90338 4.72288 1.92738 4.9093 2.24975C4.94019 2.30331 5.05972 2.30311 5.09094 2.24975ZM5.5841 3.4187C5.39762 3.09635 4.98495 2.98552 4.66223 3.17163C4.33952 3.3581 4.22898 3.77174 4.41516 4.09448C4.6016 4.41694 5.01425 4.52672 5.33703 4.34057C5.65974 4.15404 5.77044 3.74144 5.5841 3.4187Z" fill="white"/>
</g>
<defs>
<filter id="filter0_i_1587_784" x="0" y="0" width="10" height="10" filterUnits="userSpaceOnUse" color-interpolation-filters="sRGB">
<feFlood flood-opacity="0" result="BackgroundImageFix"/>
<feBlend mode="normal" in="SourceGraphic" in2="BackgroundImageFix" result="shape"/>
<feColorMatrix in="SourceAlpha" type="matrix" values="0 0 0 0 0 0 0 0 0 0 0 0 0 0 0 0 0 0 127 0" result="hardAlpha"/>
<feOffset/>
<feGaussianBlur stdDeviation="1"/>
<feComposite in2="hardAlpha" operator="arithmetic" k2="-1" k3="1"/>
<feColorMatrix type="matrix" values="0 0 0 0 0.942 0 0 0 0 0.94 0 0 0 0 1 0 0 0 0.1 0"/>
<feBlend mode="hard-light" in2="shape" result="effect1_innerShadow_1587_784"/>
</filter>
</defs>
</svg>
