<svg width="10" height="10" viewBox="0 0 10 10" fill="none" xmlns="http://www.w3.org/2000/svg">
<g filter="url(#filter0_i_1558_203)">
<path fill-rule="evenodd" clip-rule="evenodd" d="M2.49303 3.40164C2.58933 3.41043 2.66365 3.50184 2.81139 3.68386L2.98205 3.89417C2.99708 3.91268 3.00866 3.93372 3.0173 3.95594C3.05161 4.0442 3.04265 4.14781 2.97775 4.21676L2.96276 4.23269C2.69113 4.5218 2.65498 4.90058 2.7829 5.2122C2.83388 5.33641 2.82584 5.4811 2.74108 5.58523C2.70112 5.63434 2.62738 5.72747 2.57214 5.85379L2.52526 5.99148C2.44312 6.31946 2.53435 6.65659 2.75034 6.89801C2.81471 6.96995 2.84689 7.00592 2.85297 7.0137C2.90426 7.07923 2.89327 7.0556 2.91034 7.13704C2.91237 7.1467 2.91745 7.18253 2.9276 7.25418C2.9307 7.27602 2.93394 7.29855 2.93737 7.32058C2.96659 7.5083 2.98122 7.60294 2.96667 7.66336C2.94194 7.76532 2.88277 7.83573 2.78698 7.87625C2.73026 7.90018 2.64411 7.90066 2.4735 7.90066C2.3031 7.90066 2.21679 7.90001 2.16003 7.87625C2.06419 7.83576 2.0051 7.76529 1.98034 7.66336C1.96578 7.60293 1.9804 7.50837 2.00964 7.32058C2.01306 7.2986 2.01631 7.27597 2.0194 7.25418C2.03866 7.11835 2.04832 7.04946 2.02428 6.9905C2.00597 6.94603 1.96949 6.90485 1.92858 6.88015C1.87421 6.84752 1.80157 6.84695 1.6571 6.84695H1.55553C1.36415 6.84695 1.26764 6.84718 1.21569 6.81863C1.12396 6.76762 1.07802 6.65962 1.10339 6.55691C1.11797 6.49893 1.18295 6.42748 1.31335 6.28543L1.56139 6.01589C1.63837 5.93176 1.61224 5.80763 1.53015 5.75215C1.52716 5.75013 1.53465 5.75519 1.50666 5.74359C1.50515 5.74296 1.4957 5.73929 1.49416 5.73873C1.46569 5.72839 1.45773 5.72721 1.44181 5.72485L1.42711 5.72267C1.41182 5.72041 1.40418 5.71927 1.37679 5.70958C1.37531 5.70905 1.36621 5.70561 1.36475 5.70502C1.3378 5.69416 1.34508 5.69889 1.34217 5.697C1.25784 5.64221 1.23082 5.51581 1.30944 5.43093L1.70983 5.00027C1.80097 4.90203 1.73165 4.74074 1.5985 4.7405C1.47017 4.74027 1.39994 4.58996 1.48131 4.48953L2.13464 3.68386C2.28248 3.50159 2.35655 3.41029 2.45299 3.40164C2.46624 3.40047 2.47979 3.40048 2.49303 3.40164ZM7.54772 3.40164C7.64401 3.41043 7.71834 3.50184 7.86608 3.68386L8.52038 4.48953C8.60088 4.59 8.53029 4.74023 8.40221 4.7405C8.26886 4.7405 8.19986 4.90189 8.29088 5.00027L8.69128 5.43093C8.76924 5.51548 8.74269 5.64121 8.65921 5.69641C8.65626 5.69836 8.66364 5.69348 8.63623 5.70467C8.63474 5.70527 8.62549 5.70882 8.62398 5.70936C8.59611 5.71934 8.58832 5.72049 8.57275 5.7228L8.55794 5.72499C8.54235 5.7273 8.53455 5.72846 8.50661 5.73848C8.50509 5.73902 8.49582 5.74258 8.49433 5.74319C8.46685 5.75442 8.47428 5.7495 8.47131 5.75147C8.38833 5.80648 8.36201 5.93127 8.43932 6.01589L8.68639 6.28543C8.81675 6.42744 8.88278 6.49894 8.89733 6.55691C8.92261 6.65953 8.87664 6.76762 8.78503 6.81863C8.73318 6.84745 8.63623 6.84695 8.44421 6.84695H8.34362C8.1994 6.84695 8.12742 6.84769 8.07311 6.88015C8.03182 6.9049 7.99576 6.94662 7.97741 6.99148C7.95347 7.05038 7.96305 7.11842 7.98229 7.25418C7.98539 7.27604 7.98862 7.29852 7.99206 7.32058C8.02128 7.5083 8.03591 7.60294 8.02135 7.66336C7.99662 7.76543 7.93661 7.83573 7.84069 7.87625C7.78392 7.90006 7.69776 7.90066 7.52721 7.90066C7.35712 7.90066 7.27146 7.89993 7.21471 7.87625C7.11874 7.83575 7.05881 7.76541 7.03405 7.66336C7.01949 7.60293 7.03411 7.50837 7.06335 7.32058C7.06677 7.29857 7.07002 7.276 7.07311 7.25418C7.0856 7.16612 7.09184 7.12209 7.09396 7.11212C7.1113 7.03029 7.09469 7.06803 7.1433 6.99996C7.14923 6.99167 7.18314 6.95042 7.25095 6.86794C7.41311 6.67069 7.49586 6.41623 7.47546 6.15652L7.45702 6.04115C7.45327 6.01764 7.45139 6.00588 7.44859 5.99433C7.44818 5.99262 7.44775 5.99091 7.4473 5.98921C7.4443 5.9777 7.44039 5.96646 7.43258 5.94397L7.40124 5.85379C7.346 5.72762 7.27222 5.63431 7.23229 5.58523C7.14803 5.48176 7.14017 5.33788 7.19109 5.21455C7.31995 4.90245 7.28386 4.5225 7.01159 4.23269L6.96568 4.18391C6.91902 4.13434 6.91245 4.05997 6.9406 3.99799C6.94636 3.98531 6.95355 3.97331 6.96235 3.96251L7.18932 3.68386C7.33695 3.50186 7.41046 3.4105 7.50671 3.40164C7.52015 3.40045 7.53428 3.40044 7.54772 3.40164ZM5.01354 2.10183C5.04494 2.10465 5.07457 2.1139 5.10436 2.13015C5.1932 2.17902 5.28355 2.28865 5.4276 2.46414L5.90221 3.04226L6.27917 3.50125C6.3003 3.52713 6.31096 3.55621 6.31725 3.58523C6.34222 3.70099 6.2592 3.8242 6.12585 3.82449L6.11028 3.82671C6.09313 3.82916 6.08456 3.83039 6.05812 3.83937C6.05658 3.83989 6.048 3.84301 6.04649 3.84359C6.02044 3.85366 6.02341 3.85182 6.02222 3.85256C5.98964 3.87273 5.96445 3.9022 5.94811 3.93582C5.94482 3.94251 5.94187 3.94932 5.93932 3.95632C5.93581 3.96618 5.93348 3.9763 5.93151 3.9866C5.9303 3.99276 5.92921 3.99888 5.92858 4.00515C5.92756 4.01586 5.92782 4.02655 5.92858 4.03738C5.92909 4.04519 5.92906 4.05304 5.93053 4.06082C5.93201 4.06846 5.93493 4.07575 5.93737 4.08328C5.94594 4.10996 5.95963 4.1364 5.98131 4.15945L6.47829 4.6872C6.4862 4.69559 6.49014 4.69978 6.49393 4.70412C6.49885 4.70977 6.50356 4.7156 6.50805 4.7216C6.51149 4.72621 6.51476 4.73095 6.52131 4.74043C6.5232 4.74319 6.52415 4.74456 6.53059 4.75588C6.53431 4.76243 6.54929 4.79488 6.55185 4.80196C6.55629 4.8142 6.55047 4.79242 6.5528 4.80113C6.55718 4.81755 6.55942 4.83429 6.56042 4.85086C6.56699 4.96064 6.49258 5.06633 6.37292 5.08425C6.36178 5.08592 6.3506 5.08911 6.33874 5.08914L6.31579 5.09237C6.29733 5.09497 6.28811 5.09627 6.26311 5.1044C6.26155 5.10491 6.25365 5.10766 6.25211 5.10822C6.22745 5.11732 6.22718 5.11748 6.22664 5.1178C6.18649 5.14123 6.15582 5.17704 6.13659 5.21804C6.13415 5.22319 6.1318 5.22835 6.12975 5.23367C6.12539 5.24509 6.12249 5.25683 6.11999 5.26882C6.11821 5.27723 6.11689 5.28563 6.11608 5.29421C6.11503 5.30561 6.11536 5.31688 6.11608 5.32839C6.1166 5.33686 6.11651 5.34535 6.11803 5.35379C6.12516 5.39305 6.14272 5.43156 6.1737 5.46511L6.17467 5.46609L6.49596 5.81277C6.53977 5.85996 6.5767 5.90218 6.60924 5.93875L6.68932 6.02761C6.73403 6.08256 6.75995 6.12416 6.7694 6.1614C6.79861 6.27795 6.75524 6.39907 6.66274 6.47112C6.65798 6.47483 6.65561 6.47668 6.63644 6.48753C6.63498 6.48835 6.62933 6.49143 6.62785 6.49221C6.60834 6.50243 6.59818 6.50598 6.57786 6.51307L6.56139 6.51882C6.53619 6.52409 6.50624 6.52723 6.47057 6.52957L6.18053 6.53445H6.04967L5.82897 6.53933C5.77337 6.54456 5.7324 6.55564 5.69713 6.57644C5.68359 6.58446 5.67053 6.59422 5.65807 6.60476C5.64584 6.6151 5.63452 6.62673 5.62389 6.63894C5.60235 6.6636 5.5841 6.69117 5.57213 6.72C5.54092 6.79581 5.55391 6.88412 5.57897 7.05886L5.59167 7.14382L5.63171 7.42507C5.63887 7.49531 5.63918 7.54532 5.62975 7.58425L5.59655 7.67507C5.55885 7.75189 5.49895 7.80767 5.41686 7.84695C5.4096 7.85042 5.403 7.85548 5.39538 7.85867L5.3319 7.87625C5.29589 7.88275 5.25221 7.8852 5.19713 7.88699C5.18529 7.88737 5.17295 7.88772 5.16003 7.88796C5.11114 7.88891 5.05418 7.88992 4.98717 7.88992L4.72741 7.88601C4.66292 7.88204 4.61678 7.87398 4.57995 7.85867C4.51731 7.83252 4.46656 7.797 4.4276 7.75125C4.40828 7.72854 4.39143 7.70369 4.3778 7.67605C4.36405 7.64818 4.35362 7.61724 4.34557 7.58425C4.33614 7.54534 4.33549 7.49526 4.34264 7.42507L4.35338 7.35476C4.36119 7.29702 4.37057 7.22795 4.38366 7.1448C4.38811 7.11655 4.39233 7.08784 4.39635 7.05984C4.42149 6.88458 4.43456 6.79597 4.40319 6.72C4.40024 6.7129 4.39508 6.70643 4.39147 6.69949C4.36581 6.65005 4.32521 6.60435 4.27819 6.57644C4.2605 6.56605 4.24135 6.55787 4.2196 6.55203C4.15455 6.5344 4.06636 6.53445 3.92565 6.53445H3.79381L3.50378 6.52957C3.43271 6.52493 3.38423 6.51591 3.35046 6.49734C3.23121 6.43161 3.17086 6.29351 3.20397 6.1614C3.21337 6.12419 3.23944 6.08248 3.28405 6.02761L3.40514 5.89285C3.42751 5.8682 3.45174 5.84147 3.47838 5.81277L3.57116 5.71218L3.67336 5.60122C3.67348 5.60109 3.6737 5.60117 3.6737 5.60135C3.6737 5.60152 3.67391 5.6016 3.67403 5.60148L3.80065 5.46609C3.88858 5.37137 3.87238 5.23829 3.79577 5.15847C3.75673 5.11754 3.70269 5.08926 3.63659 5.08914C3.44941 5.08911 3.35056 4.87727 3.45885 4.73367C3.46384 4.72707 3.46762 4.71943 3.4735 4.71316L3.99401 4.15945C4.06841 4.08027 4.06129 3.96865 4.0028 3.89675C3.96786 3.85374 3.91437 3.82456 3.84948 3.82449C3.82865 3.82448 3.80914 3.82124 3.79088 3.8157C3.75396 3.80448 3.72259 3.78379 3.69909 3.75613C3.67593 3.72892 3.66052 3.69559 3.65417 3.66043C3.64462 3.6072 3.65641 3.54977 3.69616 3.50125L4.54674 2.46511C4.61646 2.38013 4.67402 2.31091 4.72448 2.25613C4.75758 2.22015 4.78919 2.19255 4.81823 2.16921C4.86702 2.13011 4.91072 2.10633 4.96081 2.10183C4.97819 2.10031 4.99616 2.10032 5.01354 2.10183Z" fill="white"/>
</g>
<defs>
<filter id="filter0_i_1558_203" x="0" y="0" width="10" height="10" filterUnits="userSpaceOnUse" color-interpolation-filters="sRGB">
<feFlood flood-opacity="0" result="BackgroundImageFix"/>
<feBlend mode="normal" in="SourceGraphic" in2="BackgroundImageFix" result="shape"/>
<feColorMatrix in="SourceAlpha" type="matrix" values="0 0 0 0 0 0 0 0 0 0 0 0 0 0 0 0 0 0 127 0" result="hardAlpha"/>
<feOffset/>
<feGaussianBlur stdDeviation="1"/>
<feComposite in2="hardAlpha" operator="arithmetic" k2="-1" k3="1"/>
<feColorMatrix type="matrix" values="0 0 0 0 0.942 0 0 0 0 0.94 0 0 0 0 1 0 0 0 0.1 0"/>
<feBlend mode="hard-light" in2="shape" result="effect1_innerShadow_1558_203"/>
</filter>
</defs>
</svg>
