<svg width="10" height="10" viewBox="0 0 10 10" fill="none" xmlns="http://www.w3.org/2000/svg">
<g filter="url(#filter0_i_1556_94)">
<path d="M4.8801 2.10001C5.16617 2.10016 5.421 2.23892 5.58908 2.45547C5.60561 2.47678 5.62549 2.49474 5.6467 2.51016C5.67761 2.52694 5.69307 2.53534 5.70909 2.54178C5.71374 2.54365 5.71843 2.5454 5.72316 2.54703C5.73949 2.55267 5.75641 2.5564 5.79025 2.56387C5.81574 2.56586 5.84207 2.56444 5.8674 2.55899C5.92689 2.54621 5.98895 2.53952 6.05197 2.53946C6.08363 2.53946 6.11489 2.54104 6.14572 2.54434C6.48522 2.58075 6.7698 2.81253 6.89767 3.13126C6.93244 3.21801 6.95564 3.31115 6.96506 3.4086C6.96822 3.44124 6.96994 3.4747 6.96994 3.50821C6.9699 3.52758 6.96716 3.54675 6.96603 3.56583C6.95801 3.70523 6.92379 3.83641 6.86545 3.95352C6.80556 4.07366 6.82773 4.23495 6.91721 4.33243L6.97385 4.39981C7.09961 4.56501 7.17495 4.77491 7.17502 5.00333C7.17487 5.53774 6.76385 5.97108 6.25705 5.9711C6.13257 5.97108 6.01364 5.94439 5.90549 5.89688C5.88162 5.88645 5.85661 5.87944 5.83127 5.87637H5.7717C5.76844 5.87668 5.76518 5.87693 5.76193 5.87735C5.75566 5.87818 5.74958 5.88 5.74338 5.88126C5.72468 5.88496 5.70638 5.89038 5.68869 5.89786C5.6848 5.89952 5.68079 5.9009 5.67697 5.90274C5.65522 5.91312 5.63415 5.9267 5.61545 5.94278C5.61334 5.94459 5.61071 5.94582 5.60861 5.94766C5.60586 5.94978 5.60343 5.95233 5.6008 5.9545C5.59178 5.96194 5.58437 5.97134 5.57639 5.97989C5.53442 6.0245 5.50625 6.08275 5.509 6.1459C5.51519 6.28332 5.52976 6.43056 5.55295 6.58536C5.55699 6.61283 5.56193 6.64043 5.56662 6.66837C5.57871 6.73932 5.59299 6.81161 5.60959 6.88516C5.61415 6.90546 5.61733 6.92621 5.62228 6.94669C5.70601 7.29287 5.74727 7.46743 5.73459 7.55313C5.71004 7.71773 5.64243 7.80961 5.49728 7.8754C5.42177 7.90954 5.28177 7.90958 5.00217 7.90958C4.79316 7.90958 4.66188 7.90906 4.57736 7.89493C4.54909 7.89014 4.52602 7.88393 4.50705 7.8754C4.36184 7.8096 4.29331 7.7178 4.26877 7.55313C4.25609 7.46742 4.29831 7.29294 4.38205 6.94669C4.40029 6.87122 4.41566 6.7969 4.42892 6.72403C4.43271 6.70313 4.43529 6.68219 4.43869 6.66153C4.4442 6.62834 4.44875 6.59543 4.45334 6.5629C4.47215 6.42826 4.48441 6.2996 4.49045 6.17813L4.49631 6.06192C4.49691 6.03684 4.49094 6.01272 4.48068 5.99063C4.47621 5.98087 4.46732 5.97403 4.46115 5.96524C4.45326 5.95409 4.44785 5.94116 4.43771 5.93204C4.40619 5.90375 4.36668 5.8882 4.32639 5.88516C4.30616 5.88373 4.28561 5.88486 4.26584 5.89005C4.24598 5.89514 4.22677 5.90356 4.2092 5.91544C4.20016 5.92155 4.19012 5.92625 4.18088 5.93204C4.15039 5.95064 4.11953 5.96854 4.08713 5.9838C3.97419 6.03711 3.84981 6.06772 3.71799 6.06778C3.21134 6.06778 2.80045 5.63516 2.80002 5.10098C2.80002 4.94119 2.83653 4.78952 2.90158 4.65665L2.97678 4.52969C3.03715 4.44226 3.04727 4.32268 3.00314 4.22501C2.94624 4.09945 2.91435 3.9585 2.91428 3.80997C2.91429 3.70861 2.92887 3.61081 2.95627 3.51895C3.07339 3.12698 3.42111 2.84263 3.83127 2.84219C3.83808 2.84218 3.84506 2.83899 3.85178 2.83829C3.86312 2.8371 3.87407 2.83546 3.88498 2.83243C3.89311 2.83016 3.90062 2.82687 3.90842 2.82364C3.91793 2.8197 3.92688 2.81525 3.93576 2.80997C3.94373 2.80523 3.95185 2.80106 3.9592 2.79532C3.96479 2.79095 3.97032 2.78647 3.97566 2.78175C3.98244 2.77577 3.96548 2.79074 3.97365 2.7823C3.97905 2.77672 4.00213 2.74832 4.00649 2.74189C4.01308 2.73217 4.01352 2.73138 4.01442 2.7298C4.01924 2.72133 4.02166 2.71709 4.02353 2.71358C4.02717 2.70677 4.02818 2.70473 4.03141 2.69772C4.03308 2.6941 4.03631 2.68657 4.04277 2.6715C4.09032 2.56062 4.15803 2.46142 4.23947 2.37735C4.40491 2.2064 4.63036 2.10021 4.8801 2.10001ZM1.96029 3.67512C2.04659 3.53051 2.21409 3.64157 2.21408 3.80997C2.21413 3.90469 2.22257 3.9976 2.23773 4.0882C2.25687 4.20261 2.26644 4.25981 2.26436 4.2939C2.26391 4.30133 2.26389 4.30155 2.26306 4.30896C2.25927 4.3429 2.23969 4.39857 2.20055 4.50992C2.13571 4.69434 2.09982 4.89363 2.09982 5.10098C2.10018 5.65488 2.35089 6.14497 2.7381 6.4558C2.87105 6.56252 2.93752 6.61588 2.96399 6.65714C2.96936 6.66551 2.97023 6.66699 2.97499 6.67572C2.99843 6.71878 3.01096 6.78989 3.03604 6.93212C3.04397 6.97709 3.05309 7.02268 3.06369 7.06876C3.12485 7.33469 3.15499 7.4687 3.14572 7.53458C3.12771 7.66094 3.07798 7.73208 2.97189 7.78262C2.9165 7.80848 2.81378 7.80899 2.61057 7.80899C2.40682 7.80899 2.30358 7.80865 2.24826 7.78262C2.14225 7.73205 2.09143 7.66101 2.07346 7.53458C2.06419 7.46871 2.09533 7.33459 2.15646 7.06876C2.21352 6.82066 2.23468 6.58809 2.23947 6.38712C2.24026 6.34852 2.223 6.31251 2.1965 6.28751C2.15025 6.24416 2.0815 6.23861 2.03049 6.27481C1.9268 6.34847 1.80339 6.39189 1.67111 6.392C1.30078 6.39172 0.999605 6.05854 0.999237 5.64786C0.999277 5.48419 1.04739 5.33228 1.12814 5.20938C1.17249 5.14208 1.18003 5.04929 1.14767 4.97403C1.10622 4.87772 1.08337 4.76955 1.08322 4.65567C1.08322 4.24477 1.38372 3.91104 1.75412 3.91055C1.81698 3.91036 1.87554 3.86664 1.89963 3.80215C1.91614 3.75745 1.93652 3.71494 1.96029 3.67512ZM7.67014 3.50821C7.67014 3.44789 7.72763 3.40466 7.77865 3.43684C7.90857 3.51879 8.01136 3.64731 8.06857 3.80215C8.09258 3.86682 8.1521 3.91034 8.21506 3.91055C8.58548 3.91101 8.88498 4.24475 8.88498 4.65567C8.88483 4.76957 8.862 4.8777 8.82053 4.97403C8.78833 5.04923 8.79577 5.14218 8.84006 5.20938C8.92101 5.33236 8.96892 5.48398 8.96896 5.64786C8.9686 6.05871 8.66763 6.392 8.29709 6.392C8.16483 6.39175 8.04135 6.34857 7.93771 6.27481C7.88668 6.23875 7.81789 6.24411 7.7717 6.28751C7.74545 6.3125 7.72794 6.34873 7.72873 6.38712C7.73352 6.5881 7.75468 6.82065 7.81174 7.06876C7.87291 7.33474 7.90401 7.46869 7.89474 7.53458C7.87674 7.661 7.82605 7.73206 7.71994 7.78262C7.66446 7.80835 7.5616 7.80899 7.35861 7.80899C7.15461 7.80899 7.05155 7.80878 6.99631 7.78262C6.89033 7.73207 6.84046 7.66095 6.82248 7.53458C6.81321 7.46872 6.84339 7.33453 6.90451 7.06876C6.92208 6.99236 6.93588 6.91736 6.94681 6.84429C6.96874 6.69757 6.97971 6.62421 7.00302 6.57956C7.00775 6.5705 7.00862 6.56897 7.014 6.56029C7.04055 6.51748 7.10887 6.46189 7.24551 6.35071C7.62781 6.03964 7.87506 5.5532 7.87521 5.00333C7.87517 4.74042 7.81776 4.49167 7.71678 4.26977C7.65801 4.14063 7.62862 4.07605 7.62215 4.03683C7.62071 4.02813 7.62072 4.02818 7.6198 4.01942C7.61563 3.97988 7.62665 3.91096 7.64869 3.77312C7.66249 3.68681 7.67008 3.59838 7.67014 3.50821Z" fill="white"/>
</g>
<defs>
<filter id="filter0_i_1556_94" x="0" y="0" width="10" height="10" filterUnits="userSpaceOnUse" color-interpolation-filters="sRGB">
<feFlood flood-opacity="0" result="BackgroundImageFix"/>
<feBlend mode="normal" in="SourceGraphic" in2="BackgroundImageFix" result="shape"/>
<feColorMatrix in="SourceAlpha" type="matrix" values="0 0 0 0 0 0 0 0 0 0 0 0 0 0 0 0 0 0 127 0" result="hardAlpha"/>
<feOffset/>
<feGaussianBlur stdDeviation="1"/>
<feComposite in2="hardAlpha" operator="arithmetic" k2="-1" k3="1"/>
<feColorMatrix type="matrix" values="0 0 0 0 0.942 0 0 0 0 0.94 0 0 0 0 1 0 0 0 0.1 0"/>
<feBlend mode="hard-light" in2="shape" result="effect1_innerShadow_1556_94"/>
</filter>
</defs>
</svg>
