<svg width="10" height="10" viewBox="0 0 10 10" fill="none" xmlns="http://www.w3.org/2000/svg">
<g filter="url(#filter0_i_1558_168)">
<path fill-rule="evenodd" clip-rule="evenodd" d="M4.99956 2.09961C5.60533 2.09961 6.54306 3.7318 6.54351 5.01953C6.5436 5.2379 6.51667 5.44584 6.45659 5.63477C6.36694 5.91662 6.20482 6.15548 5.94683 6.31836C5.72129 6.46075 5.60822 6.53207 5.57085 6.59766C5.56431 6.60922 5.56137 6.61493 5.5562 6.62695C5.55083 6.63948 5.5486 6.65303 5.54546 6.66699C5.53105 6.73017 5.53619 6.81152 5.54839 6.9502C5.55596 7.03624 5.56564 7.12421 5.57769 7.21289L5.60796 7.45703C5.61062 7.48505 5.61239 7.50927 5.61284 7.53027C5.61322 7.55454 5.61215 7.57464 5.60894 7.5918C5.57978 7.74499 5.4902 7.84695 5.34234 7.89648C5.28049 7.91707 5.18649 7.91699 4.99956 7.91699C4.81257 7.91699 4.71857 7.91718 4.65679 7.89648C4.50923 7.84689 4.42029 7.74481 4.39116 7.5918C4.37916 7.52768 4.39297 7.42227 4.42144 7.21289C4.4335 7.12413 4.44316 7.0363 4.45073 6.9502C4.46555 6.78171 4.47335 6.69714 4.4439 6.62793C4.43856 6.61548 4.43592 6.60944 4.42925 6.59766C4.39205 6.53205 4.27881 6.46084 4.05327 6.31836C3.82281 6.17277 3.66724 5.96693 3.5728 5.72363C3.49668 5.52723 3.46131 5.30641 3.45659 5.07324C3.43022 3.77802 4.38533 2.10058 4.99956 2.09961ZM2.34331 3.41992C2.46827 3.42 2.61114 3.51069 2.75371 3.66224C2.82544 3.73849 2.86131 3.77661 2.8821 3.84021C2.88487 3.8487 2.88789 3.85971 2.88982 3.86842C2.90432 3.93375 2.88903 4.00197 2.85845 4.13842C2.77002 4.53302 2.72878 4.94817 2.77105 5.34668C2.80731 5.6883 2.90938 6.03972 3.10941 6.348C3.17777 6.45335 3.17801 6.59993 3.07183 6.66699C2.89826 6.77662 2.81146 6.83135 2.78277 6.88184C2.77766 6.89086 2.77511 6.89482 2.77105 6.9043C2.74816 6.95768 2.75374 7.02315 2.76519 7.15332C2.77101 7.21952 2.77838 7.28724 2.78765 7.35547C2.80949 7.51618 2.82123 7.59716 2.81206 7.64648C2.78965 7.7643 2.72059 7.84271 2.60698 7.88086C2.55943 7.89674 2.48715 7.89648 2.34331 7.89648C2.1994 7.89648 2.12719 7.89678 2.07964 7.88086C1.96602 7.84272 1.89796 7.76431 1.87554 7.64648C1.86631 7.59719 1.87615 7.5163 1.898 7.35547C1.90727 7.28726 1.91464 7.2195 1.92046 7.15332C1.9319 7.02319 1.93845 6.95766 1.91558 6.9043C1.91148 6.89473 1.90898 6.8909 1.90386 6.88184C1.87528 6.83133 1.78836 6.77669 1.6148 6.66699C0.499391 5.96202 1.68045 3.42049 2.34331 3.41992ZM7.64312 3.41992C8.30598 3.41992 9.48754 5.96215 8.37163 6.66699C8.19809 6.77661 8.11112 6.83133 8.08257 6.88184C8.07751 6.89079 8.07584 6.89495 8.07183 6.9043C8.04894 6.95768 8.05452 7.02315 8.06597 7.15332C8.07179 7.21951 8.07916 7.28726 8.08843 7.35547C8.11028 7.51625 8.12107 7.59718 8.11187 7.64648C8.08944 7.76437 8.02053 7.84274 7.90679 7.88086C7.85922 7.89666 7.7868 7.89648 7.64312 7.89648C7.4994 7.89648 7.42695 7.89678 7.37945 7.88086C7.26608 7.84266 7.19773 7.76416 7.17534 7.64648C7.16615 7.59717 7.17694 7.51623 7.19878 7.35547C7.20805 7.28724 7.21542 7.21951 7.22124 7.15332C7.23268 7.02319 7.23826 6.95766 7.21538 6.9043C7.21136 6.89492 7.20967 6.89075 7.20464 6.88184C7.17608 6.83129 7.0884 6.77684 6.9146 6.66699C6.81316 6.60285 6.81259 6.46307 6.87898 6.36308C7.08603 6.05126 7.19119 5.69418 7.22808 5.34668C7.27067 4.94532 7.22864 4.52727 7.13894 4.13022C7.1078 3.99238 7.09223 3.92346 7.10711 3.85742C7.10909 3.84864 7.11219 3.83748 7.11503 3.82893C7.13634 3.76468 7.17279 3.72664 7.2457 3.65055C7.38389 3.50635 7.52168 3.4202 7.64312 3.41992Z" fill="white"/>
</g>
<defs>
<filter id="filter0_i_1558_168" x="0" y="0" width="10" height="10" filterUnits="userSpaceOnUse" color-interpolation-filters="sRGB">
<feFlood flood-opacity="0" result="BackgroundImageFix"/>
<feBlend mode="normal" in="SourceGraphic" in2="BackgroundImageFix" result="shape"/>
<feColorMatrix in="SourceAlpha" type="matrix" values="0 0 0 0 0 0 0 0 0 0 0 0 0 0 0 0 0 0 127 0" result="hardAlpha"/>
<feOffset/>
<feGaussianBlur stdDeviation="1"/>
<feComposite in2="hardAlpha" operator="arithmetic" k2="-1" k3="1"/>
<feColorMatrix type="matrix" values="0 0 0 0 0.942 0 0 0 0 0.94 0 0 0 0 1 0 0 0 0.1 0"/>
<feBlend mode="hard-light" in2="shape" result="effect1_innerShadow_1558_168"/>
</filter>
</defs>
</svg>
