<svg width="10" height="10" viewBox="0 0 10 10" fill="none" xmlns="http://www.w3.org/2000/svg">
<g filter="url(#filter0_i_1251_669)">
<path d="M6.6389 1.96956C6.76844 1.87746 6.94935 1.90214 7.03343 2.03694C7.42432 2.66596 7.40079 3.3036 7.32249 3.70589C7.27274 3.96173 7.3326 4.24362 7.49046 4.451C7.72659 4.76048 8.01205 5.26148 7.95628 5.8221C7.93174 6.06591 7.69449 6.20167 7.45726 6.2635C6.32694 6.55824 6.29119 8.08479 4.99925 8.08479C3.70798 8.08416 3.67262 6.558 2.54222 6.2635C2.3051 6.20164 2.06775 6.06579 2.0432 5.8221C1.98746 5.26154 2.27193 4.76048 2.50804 4.451C2.66631 4.24357 2.72678 3.96202 2.67699 3.70589C2.59871 3.30359 2.57517 2.6659 2.96605 2.03694C3.04996 1.90195 3.23095 1.87766 3.36058 1.96956L4.21776 2.57914C4.2914 2.63151 4.32821 2.65769 4.3667 2.66663C4.37313 2.66812 4.3772 2.66888 4.38374 2.66981C4.42286 2.67538 4.47533 2.66206 4.58027 2.63541C4.70967 2.60255 4.84517 2.58483 4.9846 2.58479C5.13006 2.58481 5.27112 2.60423 5.40548 2.63998C5.51146 2.66817 5.56445 2.68227 5.60411 2.67688C5.61073 2.67598 5.61486 2.67524 5.62138 2.67376C5.66042 2.66492 5.69776 2.63838 5.77243 2.58532L6.6389 1.96956ZM4.75804 6.54475C4.57191 6.54475 4.45484 6.74641 4.5471 6.90804L4.67113 7.12386C4.73862 7.24197 4.86419 7.31526 5.00023 7.31526C5.13622 7.31521 5.26186 7.24193 5.32933 7.12386L5.45238 6.90804C5.54472 6.74643 5.42851 6.54485 5.24242 6.54475H4.75804ZM3.30101 4.78499C3.16646 4.78513 3.07083 4.91616 3.11058 5.04475L3.15257 5.1805C3.28209 5.59944 3.66914 5.88557 4.10765 5.88557H4.32152C4.44915 5.88557 4.54404 5.76711 4.51683 5.64241L4.50218 5.5721C4.40196 5.11276 3.99479 4.78499 3.52464 4.78499H3.30101ZM6.47581 4.78499C6.00569 4.78499 5.59852 5.1128 5.49828 5.5721L5.48265 5.64241C5.45548 5.76696 5.55056 5.8853 5.67796 5.88557H5.89281C6.33121 5.88543 6.71842 5.59937 6.84789 5.1805L6.88988 5.04475C6.92965 4.91609 6.83314 4.78499 6.69847 4.78499H6.47581Z" fill="white"/>
</g>
<defs>
<filter id="filter0_i_1251_669" x="0" y="0" width="10" height="10" filterUnits="userSpaceOnUse" color-interpolation-filters="sRGB">
<feFlood flood-opacity="0" result="BackgroundImageFix"/>
<feBlend mode="normal" in="SourceGraphic" in2="BackgroundImageFix" result="shape"/>
<feColorMatrix in="SourceAlpha" type="matrix" values="0 0 0 0 0 0 0 0 0 0 0 0 0 0 0 0 0 0 127 0" result="hardAlpha"/>
<feOffset/>
<feGaussianBlur stdDeviation="1"/>
<feComposite in2="hardAlpha" operator="arithmetic" k2="-1" k3="1"/>
<feColorMatrix type="matrix" values="0 0 0 0 0.942 0 0 0 0 0.94 0 0 0 0 1 0 0 0 0.1 0"/>
<feBlend mode="hard-light" in2="shape" result="effect1_innerShadow_1251_669"/>
</filter>
</defs>
</svg>
