<svg width="10" height="10" viewBox="0 0 10 10" fill="none" xmlns="http://www.w3.org/2000/svg">
<g filter="url(#filter0_i_1686_157)">
<path fill-rule="evenodd" clip-rule="evenodd" d="M6.16461 1.90039C6.71055 1.90039 6.98368 1.90045 7.15582 2.05859C7.18003 2.08087 7.20296 2.10492 7.2232 2.13086C7.36685 2.31517 7.34423 2.58774 7.30035 3.13184L6.98492 7.05176C6.94702 7.52168 6.9274 7.75636 6.78472 7.90918C6.7644 7.93094 6.74262 7.95122 6.71929 7.96973C6.55549 8.09967 6.31973 8.09961 5.8482 8.09961H4.15191C3.68038 8.09961 3.44462 8.09967 3.28082 7.96973C3.2575 7.95122 3.23571 7.93094 3.21539 7.90918C3.0727 7.75636 3.05309 7.52168 3.01519 7.05176L2.69976 3.13184C2.65588 2.58776 2.63328 2.31517 2.77691 2.13086C2.79715 2.10492 2.82009 2.08087 2.84429 2.05859C3.01642 1.90045 3.28959 1.90039 3.8355 1.90039H6.16461ZM4.02398 2.7002C3.74866 2.7002 3.61123 2.70034 3.52496 2.78027C3.5128 2.79155 3.50091 2.80328 3.49078 2.81641C3.41893 2.90955 3.43167 3.04707 3.4566 3.32129L3.56011 4.46484C3.57915 4.67429 3.58955 4.77875 3.65679 4.86914C3.6651 4.8803 3.67843 4.89716 3.68804 4.90723C3.76573 4.98849 3.84715 5.00973 4.00933 5.05273C4.96534 5.30626 5.04637 4.4783 6.02105 4.75488C6.19984 4.80567 6.28979 4.83155 6.34429 4.80078C6.35252 4.79613 6.35848 4.79214 6.36578 4.78613C6.41406 4.74632 6.42192 4.66275 6.43707 4.49609L6.54351 3.32129C6.56844 3.04707 6.58118 2.90956 6.50933 2.81641C6.49921 2.80329 6.4873 2.79154 6.47515 2.78027C6.38887 2.70036 6.25146 2.7002 5.97613 2.7002H4.02398Z" fill="white"/>
</g>
<defs>
<filter id="filter0_i_1686_157" x="0" y="0" width="10" height="10" filterUnits="userSpaceOnUse" color-interpolation-filters="sRGB">
<feFlood flood-opacity="0" result="BackgroundImageFix"/>
<feBlend mode="normal" in="SourceGraphic" in2="BackgroundImageFix" result="shape"/>
<feColorMatrix in="SourceAlpha" type="matrix" values="0 0 0 0 0 0 0 0 0 0 0 0 0 0 0 0 0 0 127 0" result="hardAlpha"/>
<feOffset/>
<feGaussianBlur stdDeviation="1"/>
<feComposite in2="hardAlpha" operator="arithmetic" k2="-1" k3="1"/>
<feColorMatrix type="matrix" values="0 0 0 0 0.942 0 0 0 0 0.94 0 0 0 0 1 0 0 0 0.1 0"/>
<feBlend mode="hard-light" in2="shape" result="effect1_innerShadow_1686_157"/>
</filter>
</defs>
</svg>
