<svg width="10" height="10" viewBox="0 0 10 10" fill="none" xmlns="http://www.w3.org/2000/svg">
<g filter="url(#filter0_i_1685_142)">
<path fill-rule="evenodd" clip-rule="evenodd" d="M8.07466 3.23847C8.6064 3.77022 8.87241 4.03647 8.89363 4.41791C8.89628 4.46557 8.89455 4.53191 8.88949 4.57949C8.84882 4.95934 8.6042 5.1803 8.1154 5.62151C7.25225 6.4006 6.02619 7.20435 4.90856 6.84099C4.66337 6.76128 4.54061 6.72184 4.45902 6.74086C4.4456 6.74401 4.43674 6.74647 4.4238 6.75122C4.34516 6.78015 4.288 6.85149 4.17452 6.9936C3.92421 7.30716 3.83562 7.53562 3.87414 7.80636C3.94483 8.30123 3.30885 8.79663 2.8846 8.51415C2.7323 8.4126 2.65243 8.29245 2.61322 8.18063C2.5526 8.00772 2.52205 7.92088 2.50826 7.90579C2.5038 7.90089 2.50737 7.90445 2.50205 7.89958C2.4863 7.88569 2.3998 7.85558 2.2279 7.79531C2.11608 7.75609 1.99593 7.67625 1.89438 7.52393C1.61165 7.09969 2.10657 6.4631 2.60148 6.5337C2.8726 6.57244 3.10056 6.48293 3.41424 6.23194C3.55605 6.11847 3.62704 6.06178 3.65593 5.98335C3.66067 5.97041 3.66314 5.96154 3.66629 5.94813C3.68533 5.86661 3.64581 5.74396 3.56616 5.49859C3.20343 4.38113 4.00741 3.15539 4.78633 2.29244C5.22753 1.80365 5.44852 1.55903 5.82835 1.51835C5.87591 1.51329 5.94224 1.51157 5.98993 1.51421C6.37139 1.53541 6.63761 1.80143 7.16937 2.33318L8.07466 3.23847Z" fill="white"/>
</g>
<defs>
<filter id="filter0_i_1685_142" x="0" y="0" width="10" height="10" filterUnits="userSpaceOnUse" color-interpolation-filters="sRGB">
<feFlood flood-opacity="0" result="BackgroundImageFix"/>
<feBlend mode="normal" in="SourceGraphic" in2="BackgroundImageFix" result="shape"/>
<feColorMatrix in="SourceAlpha" type="matrix" values="0 0 0 0 0 0 0 0 0 0 0 0 0 0 0 0 0 0 127 0" result="hardAlpha"/>
<feOffset/>
<feGaussianBlur stdDeviation="1"/>
<feComposite in2="hardAlpha" operator="arithmetic" k2="-1" k3="1"/>
<feColorMatrix type="matrix" values="0 0 0 0 0.942 0 0 0 0 0.94 0 0 0 0 1 0 0 0 0.1 0"/>
<feBlend mode="hard-light" in2="shape" result="effect1_innerShadow_1685_142"/>
</filter>
</defs>
</svg>
