<svg width="10" height="10" viewBox="0 0 10 10" fill="none" xmlns="http://www.w3.org/2000/svg">
<g filter="url(#filter0_i_1686_149)">
<path fill-rule="evenodd" clip-rule="evenodd" d="M7.6441 1.4674C7.78306 1.55078 7.85752 1.65626 7.89546 1.75328C7.94718 1.8857 7.97303 1.95311 7.98592 1.96803C7.99031 1.9728 7.98755 1.97004 7.99213 1.97425C8.00607 1.987 8.07366 2.0131 8.20758 2.0654C8.30453 2.10332 8.40942 2.17727 8.49277 2.31606C8.69167 2.64753 8.39364 3.1036 8.00594 3.15921L7.76978 3.17578C7.68204 3.1892 7.59277 3.21587 7.49426 3.2621C7.2934 3.35638 7.19282 3.40397 7.15106 3.52243C7.14564 3.53785 7.14063 3.55668 7.13794 3.57284C7.1176 3.69678 7.20943 3.82246 7.39206 4.07278C7.5154 4.24188 7.58211 4.39213 7.59508 4.55616C7.59918 4.60832 7.59917 4.66143 7.59508 4.7136C7.56593 5.08111 7.26681 5.38023 6.66907 5.97797L5.96196 6.68507C5.36395 7.28309 5.06455 7.58268 4.6969 7.61177C4.64472 7.61587 4.59165 7.61588 4.53946 7.61177C4.38021 7.59916 4.23428 7.53517 4.07128 7.41842C3.81397 7.23412 3.68491 7.14186 3.55683 7.16776C3.54047 7.17109 3.51985 7.17808 3.50435 7.18433C3.38303 7.23331 3.344 7.33423 3.26681 7.5365C3.24113 7.60383 3.22462 7.66756 3.21502 7.73054L3.19845 7.9667C3.14255 8.35418 2.68665 8.65235 2.3553 8.45353C2.2165 8.37015 2.14323 8.26462 2.10533 8.16765C2.05304 8.03375 2.02693 7.96613 2.01418 7.9522C2.00997 7.94763 2.01273 7.95037 2.00797 7.94599C1.99312 7.93311 1.92563 7.90724 1.79321 7.85553C1.69618 7.81759 1.59003 7.74384 1.50664 7.60486C1.29506 7.2515 1.64834 6.75667 2.07219 6.7562C2.18873 6.7562 2.29975 6.73974 2.42298 6.69267C2.62514 6.61536 2.72688 6.57688 2.77584 6.45582C2.78209 6.44032 2.78839 6.41902 2.79172 6.40264C2.81746 6.27472 2.72516 6.14556 2.54106 5.8882C2.42474 5.72554 2.361 5.57967 2.3484 5.4207C2.3443 5.36855 2.34429 5.31542 2.3484 5.26326C2.37748 4.89561 2.67708 4.59622 3.2751 3.9982L3.9822 3.2911C4.57998 2.69332 4.87902 2.39421 5.24657 2.36509C5.29875 2.36099 5.35183 2.36099 5.40401 2.36509C5.56816 2.37807 5.71883 2.44535 5.88808 2.5688C6.13827 2.7513 6.26346 2.84254 6.38733 2.82223C6.40362 2.81954 6.42288 2.81527 6.43843 2.8098C6.55686 2.76807 6.60365 2.66684 6.69807 2.46591C6.77192 2.30871 6.79607 2.17516 6.79613 2.03364C6.79627 1.60964 7.29063 1.25588 7.6441 1.4674Z" fill="white"/>
</g>
<defs>
<filter id="filter0_i_1686_149" x="0" y="0" width="10" height="10" filterUnits="userSpaceOnUse" color-interpolation-filters="sRGB">
<feFlood flood-opacity="0" result="BackgroundImageFix"/>
<feBlend mode="normal" in="SourceGraphic" in2="BackgroundImageFix" result="shape"/>
<feColorMatrix in="SourceAlpha" type="matrix" values="0 0 0 0 0 0 0 0 0 0 0 0 0 0 0 0 0 0 127 0" result="hardAlpha"/>
<feOffset/>
<feGaussianBlur stdDeviation="1"/>
<feComposite in2="hardAlpha" operator="arithmetic" k2="-1" k3="1"/>
<feColorMatrix type="matrix" values="0 0 0 0 0.942 0 0 0 0 0.94 0 0 0 0 1 0 0 0 0.1 0"/>
<feBlend mode="hard-light" in2="shape" result="effect1_innerShadow_1686_149"/>
</filter>
</defs>
</svg>
