<svg width="10" height="10" viewBox="0 0 10 10" fill="none" xmlns="http://www.w3.org/2000/svg">
<g filter="url(#filter0_i_1688_267)">
<path fill-rule="evenodd" clip-rule="evenodd" d="M4.99923 1.80025C7.39905 1.80025 8.29939 3.60001 7.89962 4.60005C7.83027 4.77304 7.62259 4.91589 7.3254 5.02876C7.20129 5.0759 7.13929 5.09958 7.09786 5.1479C7.0928 5.15382 7.08573 5.16287 7.08126 5.16939C7.04547 5.22196 7.04131 5.26232 7.03341 5.34224C7.03324 5.34395 7.03259 5.34639 7.03243 5.3481C7.02414 5.44108 7.03711 5.55355 7.12716 5.71626C7.13139 5.72325 7.13636 5.73212 7.14181 5.74165C7.15659 5.76755 7.17615 5.80337 7.1965 5.84712C7.23712 5.9346 7.28471 6.05897 7.31661 6.2104C7.38134 6.51842 7.37944 6.94116 7.12521 7.38618C7.02242 7.56565 6.79315 7.62828 6.61349 7.52583C6.43399 7.42307 6.37141 7.19379 6.47384 7.01411C6.61919 6.75971 6.61823 6.53155 6.58321 6.3647C6.56529 6.27972 6.53752 6.21024 6.51583 6.16353C6.50521 6.1407 6.49596 6.12341 6.49044 6.11372C6.48944 6.11196 6.48827 6.1101 6.48751 6.10884L6.4797 6.09615L6.47189 6.08247C6.31312 5.79667 6.26265 5.53398 6.28536 5.28072C6.28608 5.27272 6.27965 5.26599 6.27169 5.26704C6.06664 5.29413 5.85139 5.31577 5.63107 5.32954C5.59174 5.332 5.57196 5.33257 5.55685 5.3354C5.47646 5.35049 5.41872 5.3937 5.38107 5.46626C5.37399 5.47994 5.36609 5.50113 5.35079 5.54243C5.28284 5.72592 5.24186 5.83464 5.23165 5.94771C5.22333 6.04067 5.23642 6.1532 5.32638 6.31587C5.33061 6.32284 5.33558 6.33172 5.34103 6.34126C5.3558 6.36713 5.37534 6.40295 5.39571 6.44673C5.43635 6.53418 5.48389 6.65852 5.51583 6.81001C5.58062 7.11805 5.57874 7.54063 5.32442 7.98579C5.22159 8.16538 4.99242 8.22814 4.81271 8.12544C4.6335 8.02256 4.57068 7.79328 4.67306 7.61372C4.81849 7.35917 4.81751 7.13118 4.78243 6.96431C4.76447 6.87926 4.73673 6.80981 4.71505 6.76314C4.70439 6.74023 4.69513 6.72293 4.68966 6.71333C4.68864 6.71157 4.68747 6.7097 4.68673 6.70845L4.67892 6.69576L4.6711 6.68208C4.51243 6.39632 4.46183 6.13357 4.48458 5.88033C4.50523 5.65155 4.51555 5.53642 4.49239 5.47993C4.46884 5.42261 4.44806 5.39812 4.39571 5.3647C4.34428 5.33188 4.25235 5.32348 4.06857 5.30708C3.94311 5.29589 3.8197 5.28208 3.7004 5.26607C3.69813 5.26576 3.70161 5.26679 3.70333 5.26704C3.5893 5.25495 3.45209 5.3615 3.43087 5.47505C3.42751 5.56271 3.44517 5.66872 3.52657 5.81587C3.53083 5.82288 3.53574 5.83166 3.54122 5.84126C3.55601 5.86715 3.57551 5.90289 3.59591 5.94673C3.63655 6.0342 3.68409 6.15848 3.71603 6.31001C3.78081 6.61803 3.7789 7.04066 3.52462 7.48579C3.4218 7.66541 3.19263 7.72815 3.0129 7.62544C2.83349 7.52262 2.77079 7.29337 2.87325 7.11372C3.01865 6.8592 3.0177 6.63117 2.98263 6.46431C2.96467 6.37922 2.93694 6.30983 2.91525 6.26314C2.90455 6.24016 2.89534 6.22294 2.88985 6.21333C2.88881 6.21151 2.88768 6.20972 2.88692 6.20845L2.87911 6.19576L2.8713 6.18208C2.71256 5.89626 2.66202 5.63361 2.68478 5.38033C2.69521 5.2647 2.70099 5.20636 2.69747 5.17915C2.68701 5.09839 2.67342 5.0749 2.61153 5.02193C2.59069 5.00409 2.54305 4.97808 2.44747 4.9272C2.27188 4.83371 2.14984 4.72494 2.09982 4.60005C1.69988 3.60009 2.59953 1.80043 4.99923 1.80025ZM5.89962 2.55025C5.70645 2.55034 5.55009 2.70669 5.55001 2.89986C5.55001 3.0931 5.7064 3.24937 5.89962 3.24947C6.01028 3.24947 6.2076 3.32324 6.38888 3.47798C6.57193 3.63441 6.64954 3.7965 6.64962 3.89986C6.64962 4.09297 6.80619 4.24916 6.99923 4.24947C7.19253 4.24947 7.34981 4.09316 7.34982 3.89986C7.34975 3.50346 7.09949 3.16521 6.84396 2.94673C6.58653 2.72681 6.23342 2.55025 5.89962 2.55025Z" fill="white"/>
</g>
<defs>
<filter id="filter0_i_1688_267" x="0" y="0" width="10" height="10" filterUnits="userSpaceOnUse" color-interpolation-filters="sRGB">
<feFlood flood-opacity="0" result="BackgroundImageFix"/>
<feBlend mode="normal" in="SourceGraphic" in2="BackgroundImageFix" result="shape"/>
<feColorMatrix in="SourceAlpha" type="matrix" values="0 0 0 0 0 0 0 0 0 0 0 0 0 0 0 0 0 0 127 0" result="hardAlpha"/>
<feOffset/>
<feGaussianBlur stdDeviation="1"/>
<feComposite in2="hardAlpha" operator="arithmetic" k2="-1" k3="1"/>
<feColorMatrix type="matrix" values="0 0 0 0 0.942 0 0 0 0 0.94 0 0 0 0 1 0 0 0 0.1 0"/>
<feBlend mode="hard-light" in2="shape" result="effect1_innerShadow_1688_267"/>
</filter>
</defs>
</svg>
