<svg width="10" height="10" viewBox="0 0 10 10" fill="none" xmlns="http://www.w3.org/2000/svg">
<g filter="url(#filter0_i_1587_771)">
<path d="M7.63402 2.36595C7.98755 2.71948 7.91645 5.33575 6.64379 6.60859C6.07284 7.17955 5.26468 7.31986 4.53228 7.08601C4.14076 6.961 3.94501 6.8985 3.83236 6.92819C3.81201 6.93355 3.8041 6.93618 3.78458 6.94406C3.67656 6.98766 3.58698 7.11305 3.40781 7.36384L3.26784 7.55976C3.1467 7.72931 3.08614 7.81409 3.01294 7.85717C2.90787 7.91902 2.78034 7.92957 2.66653 7.88583C2.58725 7.85535 2.51358 7.78168 2.36623 7.63434C2.21891 7.48701 2.14525 7.41335 2.11478 7.33408C2.07104 7.2203 2.08158 7.09277 2.1434 6.98771C2.18647 6.91451 2.27122 6.85394 2.44072 6.7328L2.6555 6.57929C2.90365 6.40194 3.02772 6.31326 3.07133 6.20541C3.07912 6.18615 3.0819 6.17779 3.08721 6.15771C3.11694 6.04524 3.05634 5.85448 2.93513 5.47295C2.70073 4.73509 2.82695 3.92061 3.39138 3.35618C4.66421 2.08354 7.28045 2.01244 7.63402 2.36595ZM6.99735 3.00263C6.84114 2.84642 6.58732 2.84642 6.43111 3.00263L5.92233 3.5114C5.79475 3.63898 5.57625 3.56242 5.5562 3.38311C5.53181 3.16355 5.33382 3.00516 5.11426 3.02956C4.89493 3.05418 4.73633 3.25209 4.76071 3.4715L4.84092 4.18885C4.85981 4.35779 4.86926 4.44227 4.84569 4.52062C4.84225 4.53207 4.83829 4.54337 4.83384 4.55446C4.80334 4.63039 4.74324 4.6905 4.62303 4.8107L3.8858 5.54793C3.72987 5.70417 3.72969 5.95806 3.8858 6.11417C4.04192 6.27029 4.29581 6.2701 4.45204 6.11417L4.55329 6.01292C4.6735 5.89272 4.7336 5.83261 4.80953 5.80212C4.82063 5.79766 4.83192 5.79371 4.84337 5.79026C4.92172 5.76669 5.0062 5.77614 5.17515 5.79503L5.89249 5.87525C6.1117 5.89947 6.30899 5.74147 6.33374 5.52238C6.35814 5.30282 6.19975 5.10484 5.98019 5.08044C5.80088 5.0604 5.72432 4.84189 5.8519 4.71431L6.99735 3.56886C7.15356 3.41265 7.15356 3.15884 6.99735 3.00263Z" fill="white"/>
</g>
<defs>
<filter id="filter0_i_1587_771" x="0" y="0" width="10" height="10" filterUnits="userSpaceOnUse" color-interpolation-filters="sRGB">
<feFlood flood-opacity="0" result="BackgroundImageFix"/>
<feBlend mode="normal" in="SourceGraphic" in2="BackgroundImageFix" result="shape"/>
<feColorMatrix in="SourceAlpha" type="matrix" values="0 0 0 0 0 0 0 0 0 0 0 0 0 0 0 0 0 0 127 0" result="hardAlpha"/>
<feOffset/>
<feGaussianBlur stdDeviation="1"/>
<feComposite in2="hardAlpha" operator="arithmetic" k2="-1" k3="1"/>
<feColorMatrix type="matrix" values="0 0 0 0 0.942 0 0 0 0 0.94 0 0 0 0 1 0 0 0 0.1 0"/>
<feBlend mode="hard-light" in2="shape" result="effect1_innerShadow_1587_771"/>
</filter>
</defs>
</svg>
