<svg width="10" height="10" viewBox="0 0 10 10" fill="none" xmlns="http://www.w3.org/2000/svg">
<g filter="url(#filter0_i_1587_681)">
<path d="M6.26846 4.03843L6.1472 4.03237H6.1472C5.96676 4.02334 5.87653 4.01883 5.80847 3.98859C5.68982 3.93587 5.60413 3.82883 5.57866 3.70151C5.56406 3.62848 5.5794 3.53946 5.6101 3.36141C5.70238 2.82618 5.74852 2.55857 5.7016 2.44951C5.6188 2.25707 5.40154 2.16112 5.20353 2.22954C5.09132 2.26831 4.92459 2.48267 4.59115 2.91139L4.59115 2.91139L3.28158 4.59511C3.01386 4.93933 2.88 5.11144 2.88822 5.26087C2.89378 5.36188 2.93741 5.45703 3.01032 5.52717C3.11817 5.63091 3.34003 5.64201 3.78376 5.66419C4.03756 5.67688 4.16445 5.68323 4.25289 5.73876C4.32641 5.78492 4.38291 5.85374 4.41387 5.93484C4.45112 6.0324 4.43297 6.15584 4.39666 6.40272C4.27931 7.20067 4.22064 7.59965 4.3292 7.7355C4.41746 7.84594 4.55746 7.90159 4.69745 7.88189C4.86965 7.85765 5.10091 7.52728 5.56343 6.86654L5.56343 6.86653L6.79288 5.11018C7.04791 4.74584 7.17543 4.56367 7.15348 4.40763C7.14166 4.32369 7.10349 4.24567 7.04446 4.18483C6.93473 4.07174 6.71264 4.06064 6.26846 4.03843Z" fill="white"/>
</g>
<defs>
<filter id="filter0_i_1587_681" x="0" y="0" width="10" height="10" filterUnits="userSpaceOnUse" color-interpolation-filters="sRGB">
<feFlood flood-opacity="0" result="BackgroundImageFix"/>
<feBlend mode="normal" in="SourceGraphic" in2="BackgroundImageFix" result="shape"/>
<feColorMatrix in="SourceAlpha" type="matrix" values="0 0 0 0 0 0 0 0 0 0 0 0 0 0 0 0 0 0 127 0" result="hardAlpha"/>
<feOffset/>
<feGaussianBlur stdDeviation="1"/>
<feComposite in2="hardAlpha" operator="arithmetic" k2="-1" k3="1"/>
<feColorMatrix type="matrix" values="0 0 0 0 0.942 0 0 0 0 0.94 0 0 0 0 1 0 0 0 0.1 0"/>
<feBlend mode="hard-light" in2="shape" result="effect1_innerShadow_1587_681"/>
</filter>
</defs>
</svg>
