<svg width="10" height="10" viewBox="0 0 10 10" fill="none" xmlns="http://www.w3.org/2000/svg">
<g filter="url(#filter0_i_1684_24)">
<path d="M4.01815 3.53761C4.11746 3.40492 4.16712 3.33857 4.24239 3.30701C4.25208 3.30294 4.26567 3.29816 4.27578 3.29527C4.35424 3.27279 4.41395 3.28818 4.53338 3.31896C4.86551 3.40457 5.1712 3.5836 5.41646 3.82662C5.49503 3.90446 5.53431 3.94338 5.55729 4.00687C5.56056 4.01592 5.56358 4.02576 5.56595 4.03508C5.58258 4.10052 5.56701 4.17982 5.53587 4.33842C5.31396 5.46851 6.05193 6.27899 6.43878 6.83675C6.6841 7.19049 6.77573 7.40894 6.74249 7.60042C6.73971 7.6163 6.73832 7.62424 6.71927 7.66285C6.70937 7.68292 6.67257 7.73276 6.65631 7.74813C6.62501 7.77771 6.60579 7.78752 6.56735 7.80715C6.21906 7.98497 5.80478 8.08772 5.31769 8.08772C1.51773 8.08769 1.01767 4.88753 2.81769 4.38753C3.40601 4.2241 3.74721 3.89963 4.01815 3.53761ZM7.12823 3.97737C7.37433 3.99333 7.63804 4.07171 7.88268 4.24685C7.95038 4.29532 7.98423 4.31955 8.01615 4.37236C8.01988 4.37853 8.02592 4.38962 8.02908 4.3961C8.05612 4.45157 8.05846 4.50035 8.06313 4.59791C8.09333 5.22811 8.00286 5.87983 7.7674 6.44712C7.70606 6.59491 7.67539 6.6688 7.63275 6.71115C7.53147 6.81174 7.37995 6.82794 7.2597 6.75102C7.20908 6.71865 7.14404 6.62487 7.01398 6.43733C6.52529 5.73279 6.01273 5.17231 6.25638 4.3337C6.27291 4.27684 6.28117 4.24841 6.31386 4.20473C6.31689 4.20069 6.32566 4.1899 6.32899 4.18612C6.36508 4.14519 6.38509 4.13456 6.42511 4.11329C6.58567 4.02798 6.8334 3.9583 7.12823 3.97737ZM4.11945 5.70979C3.96839 5.35393 3.55734 5.18764 3.20148 5.3387C2.84583 5.48986 2.68035 5.90091 2.83136 6.25667C2.98251 6.61222 3.39265 6.77763 3.74835 6.62678C4.10413 6.47576 4.27031 6.0656 4.11945 5.70979ZM6.31769 1.88753C6.84552 1.88753 7.27999 2.24497 7.58428 2.78779C7.61047 2.83451 7.62357 2.85787 7.63001 2.87306C7.71713 3.0785 7.5902 3.27986 7.36728 3.28988C7.35081 3.29062 7.29191 3.28679 7.17413 3.27913C6.94578 3.26433 6.7181 3.28685 6.50824 3.34016C6.27239 3.40007 6.15446 3.43002 6.09061 3.41859C6.0771 3.41617 6.07616 3.41596 6.06294 3.41227C6.00045 3.39486 5.91502 3.32324 5.74415 3.18C5.66024 3.10966 5.57194 3.04417 5.47981 2.98416C5.1084 2.7422 4.92269 2.62122 4.9182 2.46418C4.91762 2.444 4.91951 2.42003 4.92324 2.40019C4.95226 2.24579 5.08547 2.18627 5.3519 2.06722C5.60387 1.95464 5.91553 1.88753 6.31769 1.88753Z" fill="white"/>
</g>
<defs>
<filter id="filter0_i_1684_24" x="0" y="0" width="10" height="10" filterUnits="userSpaceOnUse" color-interpolation-filters="sRGB">
<feFlood flood-opacity="0" result="BackgroundImageFix"/>
<feBlend mode="normal" in="SourceGraphic" in2="BackgroundImageFix" result="shape"/>
<feColorMatrix in="SourceAlpha" type="matrix" values="0 0 0 0 0 0 0 0 0 0 0 0 0 0 0 0 0 0 127 0" result="hardAlpha"/>
<feOffset/>
<feGaussianBlur stdDeviation="1"/>
<feComposite in2="hardAlpha" operator="arithmetic" k2="-1" k3="1"/>
<feColorMatrix type="matrix" values="0 0 0 0 0.942 0 0 0 0 0.94 0 0 0 0 1 0 0 0 0.1 0"/>
<feBlend mode="hard-light" in2="shape" result="effect1_innerShadow_1684_24"/>
</filter>
</defs>
</svg>
