<svg width="10" height="10" viewBox="0 0 10 10" fill="none" xmlns="http://www.w3.org/2000/svg">
<g filter="url(#filter0_i_1692_41)">
<path fill-rule="evenodd" clip-rule="evenodd" d="M7.78784 2.10469C7.91179 2.26792 7.68315 2.64445 7.22574 3.39461L6.89705 3.93322C6.81509 4.06767 6.93259 4.23568 7.08695 4.2046C7.75289 4.07141 8.08681 4.00487 8.20009 4.15765C8.21492 4.17773 8.22726 4.20013 8.23668 4.22325C8.30805 4.39943 8.07772 4.65021 7.61797 5.14994L5.55051 7.39694C4.69146 8.25599 3.29814 8.25578 2.43896 7.39694C1.58011 6.53776 1.5806 5.14514 2.43965 4.28609C2.49511 4.23065 2.55267 4.1783 2.61229 4.13003L4.54371 2.38643C4.87287 2.08938 5.038 1.9408 5.19212 1.97832C5.21292 1.98343 5.23365 1.99101 5.25289 2.00042C5.395 2.07047 5.42708 2.29033 5.48974 2.72893C5.5186 2.92997 5.74297 3.03604 5.91649 2.93057L6.44199 2.61085C7.19251 2.15321 7.56886 1.92427 7.7319 2.04876C7.75275 2.06477 7.77186 2.08381 7.78784 2.10469ZM4.98427 4.85163C4.43754 4.3049 3.55055 4.3049 3.00382 4.85163C2.45742 5.39839 2.45789 6.28477 3.00451 6.83139C3.55113 7.378 4.43751 7.37847 4.98427 6.83208C5.531 6.28536 5.53099 5.39837 4.98427 4.85163Z" fill="white"/>
</g>
<defs>
<filter id="filter0_i_1692_41" x="0" y="0" width="10" height="10" filterUnits="userSpaceOnUse" color-interpolation-filters="sRGB">
<feFlood flood-opacity="0" result="BackgroundImageFix"/>
<feBlend mode="normal" in="SourceGraphic" in2="BackgroundImageFix" result="shape"/>
<feColorMatrix in="SourceAlpha" type="matrix" values="0 0 0 0 0 0 0 0 0 0 0 0 0 0 0 0 0 0 127 0" result="hardAlpha"/>
<feOffset/>
<feGaussianBlur stdDeviation="1"/>
<feComposite in2="hardAlpha" operator="arithmetic" k2="-1" k3="1"/>
<feColorMatrix type="matrix" values="0 0 0 0 0.942 0 0 0 0 0.94 0 0 0 0 1 0 0 0 0.1 0"/>
<feBlend mode="hard-light" in2="shape" result="effect1_innerShadow_1692_41"/>
</filter>
</defs>
</svg>
