<svg width="10" height="10" viewBox="0 0 10 10" fill="none" xmlns="http://www.w3.org/2000/svg">
<g filter="url(#filter0_i_1546_947)">
<path d="M6.99973 3.79974C7.5362 3.79974 8.13158 4.91635 8.47043 6.24799C8.59864 6.75194 8.66249 7.0044 8.52219 7.22357C8.50408 7.25177 8.47864 7.28504 8.45578 7.30951C8.27795 7.4997 7.99397 7.49994 7.42648 7.49994H6.70272C6.5017 7.49994 6.35585 7.29471 6.35617 7.09369C6.35635 6.93179 6.32918 6.74635 6.30832 6.59369C6.24745 6.14827 6.16461 5.71785 6.06502 5.30983C6.00478 5.06302 6.03606 4.80186 6.15988 4.58002C6.42625 4.1028 6.72069 3.80002 6.99973 3.79974ZM3.49973 2.40033C3.59473 2.40033 3.69161 2.42638 3.78976 2.47552C3.80377 2.48253 3.81772 2.49003 3.83176 2.49799C3.88192 2.52644 3.93177 2.56126 3.98215 2.6015C4.07546 2.67599 4.16906 2.76961 4.26144 2.88177C4.55297 3.23592 4.83283 3.76908 5.07004 4.42474C5.30591 5.07654 5.50025 5.84902 5.61496 6.68842L5.64426 6.91693C5.66631 7.11718 5.66215 7.23909 5.59055 7.33685L5.54562 7.38763C5.48484 7.44613 5.40596 7.47271 5.29269 7.48627C5.18931 7.49849 5.05697 7.49994 4.88351 7.49994H2.52414C1.9766 7.49994 1.70258 7.49957 1.52707 7.32513C1.50385 7.302 1.47855 7.27181 1.45969 7.24506C1.31747 7.04279 1.35998 6.78955 1.44601 6.28412C1.45266 6.24509 1.4615 6.20659 1.46848 6.16791C1.68458 4.9688 2.05389 3.9405 2.46945 3.26263C2.80294 2.71867 3.16497 2.40059 3.49973 2.40033Z" fill="white"/>
</g>
<defs>
<filter id="filter0_i_1546_947" x="0" y="0" width="10" height="10" filterUnits="userSpaceOnUse" color-interpolation-filters="sRGB">
<feFlood flood-opacity="0" result="BackgroundImageFix"/>
<feBlend mode="normal" in="SourceGraphic" in2="BackgroundImageFix" result="shape"/>
<feColorMatrix in="SourceAlpha" type="matrix" values="0 0 0 0 0 0 0 0 0 0 0 0 0 0 0 0 0 0 127 0" result="hardAlpha"/>
<feOffset/>
<feGaussianBlur stdDeviation="1"/>
<feComposite in2="hardAlpha" operator="arithmetic" k2="-1" k3="1"/>
<feColorMatrix type="matrix" values="0 0 0 0 0.942 0 0 0 0 0.94 0 0 0 0 1 0 0 0 0.1 0"/>
<feBlend mode="hard-light" in2="shape" result="effect1_innerShadow_1546_947"/>
</filter>
</defs>
</svg>
