<svg width="10" height="10" viewBox="0 0 10 10" fill="none" xmlns="http://www.w3.org/2000/svg">
<g filter="url(#filter0_i_1587_729)">
<path d="M5 1.99971C5.29666 1.99971 5.28333 2.45225 5.03311 2.61162C4.39261 3.01955 3.96777 3.73563 3.96777 4.55147C3.96794 5.82148 4.99756 6.85111 6.26758 6.85127C6.5291 6.85127 6.65986 6.85127 6.68226 6.85468C6.95026 6.8954 7.03987 7.18772 6.84075 7.37165C6.8241 7.38703 6.77494 7.42029 6.67661 7.48683C6.19821 7.81057 5.6214 7.99971 5 7.99971C3.3433 7.99953 2 6.65645 2 4.99971C2.00016 3.34311 3.3434 1.99989 5 1.99971Z" fill="white"/>
<path d="M6.16514 3.6021C6.33483 3.17186 6.41967 2.95674 6.56082 2.93446C6.58665 2.93038 6.61296 2.93038 6.63879 2.93446C6.77994 2.95674 6.86478 3.17186 7.03447 3.6021C7.06855 3.68852 7.08559 3.73172 7.11564 3.76519C7.12162 3.77185 7.12796 3.77818 7.13461 3.78416C7.16808 3.81422 7.21129 3.83126 7.2977 3.86534C7.72794 4.03502 7.94306 4.11986 7.96534 4.26102C7.96942 4.28685 7.96942 4.31315 7.96534 4.33898C7.94306 4.48014 7.72794 4.56498 7.2977 4.73466C7.21129 4.76874 7.16808 4.78578 7.13461 4.81584C7.12796 4.82182 7.12162 4.82815 7.11564 4.83481C7.08559 4.86828 7.06855 4.91148 7.03447 4.9979C6.86478 5.42814 6.77994 5.64326 6.63879 5.66554C6.61296 5.66962 6.58665 5.66962 6.56082 5.66554C6.41967 5.64326 6.33483 5.42814 6.16514 4.9979C6.13106 4.91148 6.11402 4.86828 6.08397 4.83481C6.07799 4.82815 6.07165 4.82182 6.065 4.81584C6.03153 4.78578 5.98832 4.76874 5.90191 4.73466C5.47167 4.56498 5.25655 4.48014 5.23426 4.33898C5.23019 4.31315 5.23019 4.28685 5.23426 4.26102C5.25655 4.11986 5.47167 4.03502 5.90191 3.86534C5.98832 3.83126 6.03153 3.81422 6.065 3.78416C6.07165 3.77818 6.07799 3.77185 6.08397 3.76519C6.11402 3.73172 6.13106 3.68852 6.16514 3.6021Z" fill="white"/>
</g>
<defs>
<filter id="filter0_i_1587_729" x="0" y="0" width="10" height="10" filterUnits="userSpaceOnUse" color-interpolation-filters="sRGB">
<feFlood flood-opacity="0" result="BackgroundImageFix"/>
<feBlend mode="normal" in="SourceGraphic" in2="BackgroundImageFix" result="shape"/>
<feColorMatrix in="SourceAlpha" type="matrix" values="0 0 0 0 0 0 0 0 0 0 0 0 0 0 0 0 0 0 127 0" result="hardAlpha"/>
<feOffset/>
<feGaussianBlur stdDeviation="1"/>
<feComposite in2="hardAlpha" operator="arithmetic" k2="-1" k3="1"/>
<feColorMatrix type="matrix" values="0 0 0 0 0.942 0 0 0 0 0.94 0 0 0 0 1 0 0 0 0.1 0"/>
<feBlend mode="hard-light" in2="shape" result="effect1_innerShadow_1587_729"/>
</filter>
</defs>
</svg>
