<svg width="10" height="10" viewBox="0 0 10 10" fill="none" xmlns="http://www.w3.org/2000/svg">
<g filter="url(#filter0_i_1559_542)">
<path fill-rule="evenodd" clip-rule="evenodd" d="M5.83203 1.89922C5.92349 1.89702 5.9949 1.96792 5.99414 2.05938C5.99213 2.27829 5.94404 2.68467 5.64844 2.98027C5.59184 3.0368 5.60211 3.13932 5.67067 3.18051C6.13677 3.46054 6.37087 4.02923 6.2998 4.59942C6.19982 5.39932 7.09942 5.40015 7.09961 6.49981C7.09952 7.59973 5.89998 8.09941 5 8.09941C4.10002 8.09942 2.90048 7.59973 2.90039 6.49981C2.90058 5.40015 3.80018 5.39933 3.7002 4.59942C3.6255 4.00008 3.88749 3.40129 4.4021 3.13866C4.4875 3.09508 4.53019 3.07329 4.5499 3.04957C4.55364 3.04507 4.55474 3.04362 4.55806 3.0388C4.57556 3.01341 4.58451 2.96876 4.6024 2.87946C4.64262 2.67873 4.73097 2.44365 4.92188 2.25274C5.21631 1.95834 5.61541 1.90446 5.83203 1.89922ZM4.47949 5.5418C4.28218 5.44324 4.0414 5.52353 3.94238 5.72051C3.69844 6.20861 3.87544 6.71472 4.17969 7.01934C4.48429 7.32394 4.99105 7.50085 5.47949 7.25664C5.67633 7.15759 5.75669 6.91775 5.6582 6.72051C5.55933 6.5235 5.3184 6.44352 5.12109 6.5418C5.00965 6.5973 4.8663 6.57394 4.74609 6.45391C4.62593 6.33357 4.60246 6.18941 4.6582 6.07793C4.75618 5.88067 4.67644 5.64057 4.47949 5.5418Z" fill="white"/>
</g>
<defs>
<filter id="filter0_i_1559_542" x="0" y="0" width="10" height="10" filterUnits="userSpaceOnUse" color-interpolation-filters="sRGB">
<feFlood flood-opacity="0" result="BackgroundImageFix"/>
<feBlend mode="normal" in="SourceGraphic" in2="BackgroundImageFix" result="shape"/>
<feColorMatrix in="SourceAlpha" type="matrix" values="0 0 0 0 0 0 0 0 0 0 0 0 0 0 0 0 0 0 127 0" result="hardAlpha"/>
<feOffset/>
<feGaussianBlur stdDeviation="1"/>
<feComposite in2="hardAlpha" operator="arithmetic" k2="-1" k3="1"/>
<feColorMatrix type="matrix" values="0 0 0 0 0.942 0 0 0 0 0.94 0 0 0 0 1 0 0 0 0.1 0"/>
<feBlend mode="hard-light" in2="shape" result="effect1_innerShadow_1559_542"/>
</filter>
</defs>
</svg>
