<svg width="10" height="10" viewBox="0 0 10 10" fill="none" xmlns="http://www.w3.org/2000/svg">
<g filter="url(#filter0_i_1251_665)">
<path fill-rule="evenodd" clip-rule="evenodd" d="M1.69321 2.48123C1.83511 2.20936 2.17611 2.16702 2.47836 2.21951C2.85389 2.28477 3.1107 2.37618 3.27788 2.49652C3.41845 2.5977 3.61236 2.6632 3.77546 2.60493C3.85308 2.57719 3.93288 2.55409 4.0145 2.53592C4.22909 2.4882 4.4809 2.48807 4.98422 2.48807C5.48788 2.48807 5.74025 2.48812 5.95493 2.53592C6.03851 2.55455 6.12009 2.57848 6.19938 2.60729C6.36298 2.66673 6.55865 2.60128 6.70037 2.50022C6.87086 2.37864 7.13395 2.28646 7.5184 2.22049C7.83133 2.1668 8.18103 2.21982 8.31723 2.50662C8.60575 3.1144 8.61334 4.31842 8.58579 5.05545C8.57478 5.34665 8.26071 5.51255 8.00766 5.36795L7.87877 5.29444C7.76862 5.23161 7.63393 5.32117 7.64926 5.44705C7.76037 6.37293 7.81653 6.83627 7.65317 7.15994C7.54807 7.36808 7.40763 7.52049 7.20883 7.64237C6.89968 7.83183 6.40082 7.81299 5.40415 7.77615C5.2564 7.7707 5.11471 7.76737 4.98422 7.76737C4.85373 7.76737 4.71205 7.7707 4.5643 7.77615C3.56778 7.81298 3.06876 7.83178 2.75961 7.64237C2.56102 7.52055 2.4213 7.36789 2.31626 7.15994C2.15285 6.83627 2.20807 6.37298 2.31918 5.44705C2.3329 5.33246 2.21016 5.2512 2.11003 5.30858L1.9979 5.37283C1.74689 5.51627 1.43495 5.35396 1.42075 5.06522C1.38406 4.31903 1.37958 3.0832 1.69321 2.48123ZM4.82602 5.34744C4.01701 5.34744 3.37422 6.02909 3.42172 6.8367C3.43399 7.04182 3.61962 7.19292 3.82309 7.16385L4.45395 7.07401C4.70102 7.03871 4.82472 7.02055 4.94907 7.01834C4.97237 7.01793 4.99608 7.01794 5.01938 7.01834C5.14382 7.02054 5.26816 7.03868 5.51547 7.07401L6.14633 7.16385C6.34972 7.19279 6.53445 7.04175 6.54672 6.8367C6.59422 6.02917 5.95229 5.34759 5.1434 5.34744H4.82602ZM4.5477 5.91287C4.72374 5.96004 4.82827 6.14113 4.7811 6.31717L4.72446 6.52908C4.67729 6.70513 4.49621 6.80965 4.32016 6.76248C4.14429 6.7152 4.03962 6.53414 4.08676 6.35819L4.14438 6.14627C4.19152 5.97036 4.37178 5.86596 4.5477 5.91287ZM5.42075 5.91287C5.5967 5.86589 5.77692 5.97032 5.82407 6.14627L5.88168 6.35819C5.92884 6.53417 5.82422 6.71524 5.64829 6.76248C5.47224 6.80965 5.29116 6.70513 5.24399 6.52908L5.18735 6.31717C5.14018 6.14113 5.2447 5.96004 5.42075 5.91287ZM4.04965 3.91776C3.83116 3.91776 3.64796 4.08323 3.62583 4.30057L3.59165 4.64237C3.57756 4.78444 3.68904 4.90799 3.83188 4.90799H4.26743C4.41013 4.90785 4.5217 4.78433 4.50766 4.64237L4.47348 4.30057C4.45138 4.08332 4.26802 3.91792 4.04965 3.91776ZM5.91977 3.91776C5.70128 3.91776 5.51808 4.08324 5.49594 4.30057L5.46176 4.64237C5.44767 4.78445 5.55915 4.90799 5.702 4.90799H6.13754C6.28018 4.90778 6.39181 4.78429 6.37778 4.64237L6.3436 4.30057C6.3215 4.08335 6.13809 3.91798 5.91977 3.91776Z" fill="white"/>
</g>
<defs>
<filter id="filter0_i_1251_665" x="0" y="0" width="10" height="10" filterUnits="userSpaceOnUse" color-interpolation-filters="sRGB">
<feFlood flood-opacity="0" result="BackgroundImageFix"/>
<feBlend mode="normal" in="SourceGraphic" in2="BackgroundImageFix" result="shape"/>
<feColorMatrix in="SourceAlpha" type="matrix" values="0 0 0 0 0 0 0 0 0 0 0 0 0 0 0 0 0 0 127 0" result="hardAlpha"/>
<feOffset/>
<feGaussianBlur stdDeviation="1"/>
<feComposite in2="hardAlpha" operator="arithmetic" k2="-1" k3="1"/>
<feColorMatrix type="matrix" values="0 0 0 0 0.942 0 0 0 0 0.94 0 0 0 0 1 0 0 0 0.1 0"/>
<feBlend mode="hard-light" in2="shape" result="effect1_innerShadow_1251_665"/>
</filter>
</defs>
</svg>
