<svg width="10" height="10" viewBox="0 0 10 10" fill="none" xmlns="http://www.w3.org/2000/svg">
<g filter="url(#filter0_i_1699_119)">
<path fill-rule="evenodd" clip-rule="evenodd" d="M5.00012 2C5.6222 2.00017 6.18452 2.4399 6.6002 3.08057C6.67464 3.19529 6.60378 3.345 6.47293 3.38476C6.2514 3.45206 6.02359 3.55647 5.79993 3.71289C5.64168 3.82364 5.6025 4.04186 5.71301 4.2002C5.82386 4.35835 6.04203 4.39681 6.20032 4.28613C6.42971 4.12565 6.666 4.04137 6.88971 4.00351C6.97904 3.98839 7.06376 4.04357 7.09156 4.12981C7.64756 5.85479 7.27225 7.99977 5.00012 8C2.80622 8 2.61109 6.87592 2.77548 5.75597C2.7966 5.61213 2.96472 5.54503 3.09978 5.59883C3.18964 5.63463 3.27863 5.65787 3.36438 5.6709C3.51603 5.69388 3.64832 5.68546 3.74329 5.6709C3.79092 5.66357 3.83116 5.65425 3.86047 5.64648C3.87486 5.64266 3.88713 5.63872 3.89661 5.63574C3.90126 5.63428 3.90589 5.63297 3.9093 5.63184C3.91059 5.6314 3.91228 5.63126 3.91355 5.631C3.91398 5.63092 3.91438 5.63076 3.91476 5.63057L3.91597 5.62997C3.91608 5.62991 3.9162 5.62988 3.91632 5.62988H3.91654C3.91686 5.62988 3.91711 5.62963 3.91711 5.62931C3.91711 5.62907 3.91727 5.62885 3.9175 5.62877C4.09917 5.56337 4.19419 5.36344 4.12903 5.18164C4.06402 5.00095 3.86512 4.9056 3.68412 4.96861C3.68404 4.96864 3.68406 4.96875 3.68414 4.96875C3.68423 4.96875 3.68424 4.96887 3.68416 4.96889C3.68322 4.96912 3.68196 4.96941 3.68079 4.96973C3.67257 4.97192 3.65695 4.9764 3.63684 4.97949C3.59544 4.9858 3.53569 4.98962 3.46887 4.97949C3.36152 4.96306 3.20499 4.90716 3.05383 4.70062C3.02284 4.65828 3.01436 4.60411 3.02529 4.55279C3.06059 4.38691 3.08855 4.2338 3.09973 4.09961C3.19979 2.8998 3.60028 2 5.00012 2ZM6.42395 6.03125C6.27559 5.90783 6.05485 5.92772 5.93111 6.07579C5.931 6.07592 5.93079 6.07584 5.93079 6.07567C5.93079 6.07551 5.93058 6.07543 5.93047 6.07555L5.92297 6.08398C5.91352 6.09392 5.89709 6.11023 5.87512 6.12988C5.83081 6.16949 5.76453 6.22145 5.67981 6.26855C5.51227 6.36161 5.27821 6.43375 4.9845 6.36035C4.7971 6.31366 4.60661 6.42788 4.55969 6.61523C4.51309 6.80251 4.62741 6.99204 4.81458 7.03906C5.3207 7.1656 5.73722 7.03774 6.01965 6.88086C6.15931 6.80326 6.26756 6.71787 6.34192 6.65137C6.37924 6.61798 6.4088 6.58848 6.42981 6.56641C6.44021 6.55548 6.44884 6.54622 6.4552 6.53906C6.4584 6.53546 6.46183 6.53181 6.46399 6.5293C6.46469 6.52848 6.46511 6.52755 6.46562 6.5268C6.46582 6.5265 6.46611 6.52628 6.46643 6.52612L6.46737 6.52565C6.46769 6.52549 6.4679 6.52516 6.4679 6.52481C6.4679 6.52456 6.468 6.52431 6.46817 6.52414L6.46887 6.52344C6.59207 6.37507 6.57196 6.15492 6.42395 6.03125Z" fill="white"/>
</g>
<defs>
<filter id="filter0_i_1699_119" x="0" y="0" width="10" height="10" filterUnits="userSpaceOnUse" color-interpolation-filters="sRGB">
<feFlood flood-opacity="0" result="BackgroundImageFix"/>
<feBlend mode="normal" in="SourceGraphic" in2="BackgroundImageFix" result="shape"/>
<feColorMatrix in="SourceAlpha" type="matrix" values="0 0 0 0 0 0 0 0 0 0 0 0 0 0 0 0 0 0 127 0" result="hardAlpha"/>
<feOffset/>
<feGaussianBlur stdDeviation="1"/>
<feComposite in2="hardAlpha" operator="arithmetic" k2="-1" k3="1"/>
<feColorMatrix type="matrix" values="0 0 0 0 0.942 0 0 0 0 0.94 0 0 0 0 1 0 0 0 0.1 0"/>
<feBlend mode="hard-light" in2="shape" result="effect1_innerShadow_1699_119"/>
</filter>
</defs>
</svg>
