<svg width="10" height="10" viewBox="0 0 10 10" fill="none" xmlns="http://www.w3.org/2000/svg">
<g filter="url(#filter0_i_1587_695)">
<path d="M6 2.50684C6.82833 2.50684 7.49984 3.17855 7.5 4.00684C7.5 4.06771 7.49622 4.1277 7.48896 4.18662C7.46499 4.38111 7.453 4.47835 7.47116 4.52521C7.47508 4.53534 7.47515 4.53549 7.48016 4.54513C7.50332 4.58972 7.58415 4.64497 7.74582 4.75546C8.14075 5.02537 8.40023 5.47878 8.40039 5.99316C8.40039 6.82146 7.72864 7.49295 6.90039 7.49316H3.09961C2.27147 7.49282 1.59961 6.82138 1.59961 5.99316C1.59981 5.36506 1.98691 4.82794 2.53489 4.60476C2.57465 4.58857 2.59961 4.54976 2.59961 4.50684C2.59977 3.67863 3.27139 3.00697 4.09961 3.00684C4.22067 3.00685 4.3382 3.02176 4.45078 3.0494C4.60904 3.08826 4.68817 3.10769 4.73268 3.09837C4.74201 3.09642 4.74281 3.09621 4.7519 3.09334C4.79526 3.07965 4.85477 3.02389 4.97379 2.91238C5.24219 2.66089 5.60331 2.5069 6 2.50684ZM7.10547 5.15723C6.91611 5.04361 6.67036 5.1047 6.55664 5.29395L5.95703 6.29395C5.84343 6.48328 5.90454 6.72904 6.09375 6.84277C6.28306 6.95623 6.52888 6.8952 6.64258 6.70605L7.24316 5.70605C7.35669 5.5167 7.29473 5.27091 7.10547 5.15723ZM3.90625 4.75684C3.71699 4.6433 3.47121 4.70453 3.35742 4.89355L2.75781 5.89355C2.64421 6.08288 2.70534 6.32864 2.89453 6.44238C3.08387 6.55598 3.32962 6.49487 3.44336 6.30566L4.04395 5.30566C4.15728 5.11629 4.09555 4.87042 3.90625 4.75684ZM5.80566 4.35742C5.61627 4.24379 5.37053 4.3048 5.25684 4.49414L4.65723 5.49414C4.54369 5.68347 4.60477 5.92925 4.79395 6.04297C4.98324 6.15644 5.22905 6.09535 5.34277 5.90625L5.94336 4.90625C6.05699 4.71687 5.99498 4.47112 5.80566 4.35742Z" fill="white"/>
</g>
<defs>
<filter id="filter0_i_1587_695" x="0" y="0" width="10" height="10" filterUnits="userSpaceOnUse" color-interpolation-filters="sRGB">
<feFlood flood-opacity="0" result="BackgroundImageFix"/>
<feBlend mode="normal" in="SourceGraphic" in2="BackgroundImageFix" result="shape"/>
<feColorMatrix in="SourceAlpha" type="matrix" values="0 0 0 0 0 0 0 0 0 0 0 0 0 0 0 0 0 0 127 0" result="hardAlpha"/>
<feOffset/>
<feGaussianBlur stdDeviation="1"/>
<feComposite in2="hardAlpha" operator="arithmetic" k2="-1" k3="1"/>
<feColorMatrix type="matrix" values="0 0 0 0 0.942 0 0 0 0 0.94 0 0 0 0 1 0 0 0 0.1 0"/>
<feBlend mode="hard-light" in2="shape" result="effect1_innerShadow_1587_695"/>
</filter>
</defs>
</svg>
