<svg width="10" height="10" viewBox="0 0 10 10" fill="none" xmlns="http://www.w3.org/2000/svg">
<g filter="url(#filter0_i_1692_24)">
<g clip-path="url(#clip0_1692_24)">
<path fill-rule="evenodd" clip-rule="evenodd" d="M7.2001 3.41499C7.74172 3.78219 8.09121 4.26847 8.31531 4.74013C8.53838 5.20964 8.64173 5.67342 8.69027 6.01554C8.71465 6.18748 8.72551 6.33227 8.73032 6.43539C8.73273 6.48698 8.73352 6.52927 8.73378 6.55899C8.7339 6.5736 8.73454 6.58549 8.73447 6.59421C8.73443 6.59825 8.73384 6.60186 8.73378 6.60457V6.61147C8.72743 6.85956 8.52125 7.05579 8.27319 7.04996C8.02474 7.04378 7.82783 6.83714 7.83401 6.58869V6.56659C7.83385 6.54748 7.83377 6.51692 7.83194 6.47751C7.82825 6.39844 7.81932 6.28259 7.79948 6.1426C7.75938 5.85979 7.67529 5.48969 7.50255 5.12613C7.33077 4.76461 7.07539 4.41783 6.69532 4.16008C6.31788 3.9042 5.7883 3.71685 5.0339 3.71675C4.27948 3.71675 3.74273 3.90364 3.3559 4.16146C2.96636 4.42116 2.7013 4.77126 2.51966 5.13442C2.33719 5.49938 2.24298 5.86995 2.1958 6.15296C2.17243 6.29318 2.16142 6.40938 2.15575 6.48856C2.15293 6.52799 2.15156 6.55852 2.15092 6.57764C2.1506 6.58703 2.15029 6.59384 2.15023 6.59766L2.14954 6.59973L2.15023 6.60042L2.14125 6.69088C2.09927 6.89564 1.91778 7.04963 1.70069 7.04996C1.45216 7.04996 1.25046 6.84826 1.25046 6.59973L1.24977 6.59904V6.59766C1.24983 6.59674 1.25045 6.59546 1.25046 6.59421C1.25048 6.59141 1.25039 6.5875 1.25046 6.58316C1.2506 6.57445 1.25067 6.56256 1.25115 6.54794C1.25214 6.51829 1.25439 6.47644 1.25806 6.42503C1.26542 6.32195 1.27913 6.17712 1.30777 6.00518C1.36477 5.66323 1.47971 5.20006 1.71381 4.73184C1.94883 4.26183 2.30956 3.77811 2.85733 3.41292C3.40785 3.04607 4.12156 2.81703 5.03321 2.81699C5.94509 2.81701 6.65571 3.04594 7.2001 3.41499ZM6.1643 4.93555C6.45544 5.13551 6.63811 5.39899 6.75125 5.6468C6.86335 5.89248 6.91149 6.1328 6.93286 6.30626C6.94361 6.39368 6.94792 6.46793 6.94944 6.5217C6.95019 6.54856 6.95098 6.57155 6.95082 6.58799C6.95072 6.5958 6.95027 6.60282 6.95013 6.60802C6.95001 6.61059 6.9495 6.61378 6.94944 6.61562V6.61838L6.95013 6.61907L6.94944 6.61976C6.93841 6.86779 6.72865 7.06068 6.48056 7.04996C6.23337 7.03922 6.04141 6.8307 6.05036 6.58385V6.57833C6.05042 6.57239 6.05007 6.56152 6.04967 6.54725C6.04884 6.51745 6.04682 6.47159 6.04 6.41605C6.02599 6.30227 5.99487 6.15839 5.93228 6.02107C5.87049 5.88571 5.782 5.76466 5.65469 5.67718C5.52991 5.59159 5.33781 5.51698 5.03321 5.51698C4.7287 5.517 4.53024 5.59219 4.39653 5.68132C4.26017 5.77231 4.16317 5.89673 4.09408 6.03488C4.02422 6.17473 3.98675 6.32055 3.96771 6.4347C3.95843 6.49048 3.95397 6.5367 3.95183 6.56659C3.95079 6.58126 3.95064 6.59249 3.95045 6.59835L3.94976 6.60042C3.9495 6.84873 3.74789 7.05064 3.49953 7.05065C3.25158 7.05038 3.05055 6.849 3.04999 6.60112L3.49953 6.60042L3.04999 6.59973V6.58869C3.05008 6.58349 3.05042 6.57648 3.05068 6.56866C3.05123 6.55231 3.05225 6.52967 3.05413 6.50306C3.05798 6.44926 3.06512 6.3744 3.07968 6.28692C3.10852 6.11388 3.16753 5.87601 3.28892 5.63299C3.41141 5.38799 3.60269 5.12855 3.89728 4.93209C4.19478 4.73379 4.57188 4.61721 5.0339 4.61721C5.49546 4.61731 5.87044 4.73379 6.1643 4.93555Z" fill="white"/>
</g>
</g>
<defs>
<filter id="filter0_i_1692_24" x="0" y="0" width="10" height="10" filterUnits="userSpaceOnUse" color-interpolation-filters="sRGB">
<feFlood flood-opacity="0" result="BackgroundImageFix"/>
<feBlend mode="normal" in="SourceGraphic" in2="BackgroundImageFix" result="shape"/>
<feColorMatrix in="SourceAlpha" type="matrix" values="0 0 0 0 0 0 0 0 0 0 0 0 0 0 0 0 0 0 127 0" result="hardAlpha"/>
<feOffset/>
<feGaussianBlur stdDeviation="1"/>
<feComposite in2="hardAlpha" operator="arithmetic" k2="-1" k3="1"/>
<feColorMatrix type="matrix" values="0 0 0 0 0.942 0 0 0 0 0.94 0 0 0 0 1 0 0 0 0.1 0"/>
<feBlend mode="hard-light" in2="shape" result="effect1_innerShadow_1692_24"/>
</filter>
<clipPath id="clip0_1692_24">
<rect width="10" height="10" rx="2.6" fill="white"/>
</clipPath>
</defs>
</svg>
