<svg width="10" height="10" viewBox="0 0 10 10" fill="none" xmlns="http://www.w3.org/2000/svg">
<g filter="url(#filter0_i_1590_16)">
<path d="M6.16815 2.93178C6.36335 3.12698 6.36323 3.44361 6.16815 3.63889L2.70305 7.10399C2.50776 7.29897 2.19111 7.29916 1.99594 7.10399C1.80086 6.90881 1.80099 6.59213 1.99594 6.39688L5.46104 2.93178C5.65629 2.73673 5.97294 2.73667 6.16815 2.93178ZM6.66326 5.40734C6.85821 5.60263 6.85842 5.91929 6.66326 6.11445L5.24905 7.52866C5.05388 7.72369 4.73718 7.72357 4.54194 7.52866C4.34672 7.33345 4.34681 7.01683 4.54194 6.82156L5.95615 5.40734C6.15141 5.21208 6.468 5.21208 6.66326 5.40734ZM3.62284 2.50779C3.81787 2.70301 3.81786 3.01968 3.62284 3.2149L2.56218 4.27556C2.36697 4.4707 2.05033 4.47063 1.85507 4.27556C1.65983 4.08032 1.65987 3.76372 1.85507 3.56845L2.91573 2.50779C3.11101 2.31271 3.42764 2.31259 3.62284 2.50779ZM8.28947 3.78114C8.48442 3.97642 8.48462 4.29308 8.28947 4.48824L7.93591 4.8418C7.74073 5.03661 7.42398 5.03663 7.22881 4.8418C7.03366 4.64665 7.03389 4.32998 7.22881 4.13469L7.58236 3.78114C7.77762 3.58587 8.0942 3.58587 8.28947 3.78114Z" fill="white"/>
</g>
<defs>
<filter id="filter0_i_1590_16" x="0" y="0" width="10" height="10" filterUnits="userSpaceOnUse" color-interpolation-filters="sRGB">
<feFlood flood-opacity="0" result="BackgroundImageFix"/>
<feBlend mode="normal" in="SourceGraphic" in2="BackgroundImageFix" result="shape"/>
<feColorMatrix in="SourceAlpha" type="matrix" values="0 0 0 0 0 0 0 0 0 0 0 0 0 0 0 0 0 0 127 0" result="hardAlpha"/>
<feOffset/>
<feGaussianBlur stdDeviation="1"/>
<feComposite in2="hardAlpha" operator="arithmetic" k2="-1" k3="1"/>
<feColorMatrix type="matrix" values="0 0 0 0 0.942 0 0 0 0 0.94 0 0 0 0 1 0 0 0 0.1 0"/>
<feBlend mode="hard-light" in2="shape" result="effect1_innerShadow_1590_16"/>
</filter>
</defs>
</svg>
