<svg width="10" height="10" viewBox="0 0 10 10" fill="none" xmlns="http://www.w3.org/2000/svg">
<g filter="url(#filter0_i_1547_998)">
<path fill-rule="evenodd" clip-rule="evenodd" d="M6.24868 2.28866C6.96127 2.15677 7.31724 2.09134 7.37954 2.20663C7.38768 2.22171 7.39345 2.23676 7.39712 2.2535C7.42513 2.38151 7.08708 2.5782 6.41079 2.97225C6.10752 3.14896 5.89748 3.33227 5.89712 3.49959C5.89712 4.09959 8.79337 4.10003 8.79653 5.39998C8.79962 6.29978 6.48569 7.79971 6.28481 7.80038C5.59992 7.80038 6.60024 7.19979 6.60024 6.69979C6.59988 6.10048 5.15378 7.80013 3.85708 7.80038C2.78023 7.80038 5.49911 6.64562 5.49965 6.10018C5.49965 5.55485 2.724 7.8001 1.40004 7.80038C-0.175494 7.80038 5.79946 5.49998 5.29946 4.89998C4.79949 4.30032 3.79981 4.44797 3.79946 3.80038C3.79946 3.32139 4.45245 2.6211 6.24868 2.28866Z" fill="white"/>
</g>
<defs>
<filter id="filter0_i_1547_998" x="0" y="0" width="10" height="10" filterUnits="userSpaceOnUse" color-interpolation-filters="sRGB">
<feFlood flood-opacity="0" result="BackgroundImageFix"/>
<feBlend mode="normal" in="SourceGraphic" in2="BackgroundImageFix" result="shape"/>
<feColorMatrix in="SourceAlpha" type="matrix" values="0 0 0 0 0 0 0 0 0 0 0 0 0 0 0 0 0 0 127 0" result="hardAlpha"/>
<feOffset/>
<feGaussianBlur stdDeviation="1"/>
<feComposite in2="hardAlpha" operator="arithmetic" k2="-1" k3="1"/>
<feColorMatrix type="matrix" values="0 0 0 0 0.942 0 0 0 0 0.94 0 0 0 0 1 0 0 0 0.1 0"/>
<feBlend mode="hard-light" in2="shape" result="effect1_innerShadow_1547_998"/>
</filter>
</defs>
</svg>
