<svg width="10" height="10" viewBox="0 0 10 10" fill="none" xmlns="http://www.w3.org/2000/svg">
<g filter="url(#filter0_i_1547_965)">
<path d="M8.29959 6.50041C9.49959 5.40041 8.49979 8.00041 6.99979 8.00041C5.99994 8.00034 5.59965 7.50041 3.99979 7.50041C2.40011 7.5005 1.49986 8.51677 1.49979 7.80022C1.49986 7.37576 2.89982 6.60012 3.99979 6.60002C5.09963 6.60002 6.4996 7.09988 6.99979 7.10002C7.49964 7.10002 7.78105 6.97566 8.29959 6.50041ZM5.49979 1.89983C7.35096 1.89983 7.19982 3.6998 6.69998 3.30022C6.20004 2.90022 5.10046 3.00004 5.10037 4.10002C5.10028 5.59069 7.09958 5.99967 8.29959 4.89983C9.49959 3.79983 8.49979 6.39983 6.99979 6.39983C5.49999 6.39978 5.4997 5.89983 3.99979 5.89983C2.49991 5.89994 1.49977 7.21682 1.49979 5.89983C1.49993 4.13753 3.24138 1.89995 5.49979 1.89983Z" fill="white"/>
</g>
<defs>
<filter id="filter0_i_1547_965" x="0" y="0" width="10" height="10" filterUnits="userSpaceOnUse" color-interpolation-filters="sRGB">
<feFlood flood-opacity="0" result="BackgroundImageFix"/>
<feBlend mode="normal" in="SourceGraphic" in2="BackgroundImageFix" result="shape"/>
<feColorMatrix in="SourceAlpha" type="matrix" values="0 0 0 0 0 0 0 0 0 0 0 0 0 0 0 0 0 0 127 0" result="hardAlpha"/>
<feOffset/>
<feGaussianBlur stdDeviation="1"/>
<feComposite in2="hardAlpha" operator="arithmetic" k2="-1" k3="1"/>
<feColorMatrix type="matrix" values="0 0 0 0 0.942 0 0 0 0 0.94 0 0 0 0 1 0 0 0 0.1 0"/>
<feBlend mode="hard-light" in2="shape" result="effect1_innerShadow_1547_965"/>
</filter>
</defs>
</svg>
