<svg width="10" height="10" viewBox="0 0 10 10" fill="none" xmlns="http://www.w3.org/2000/svg">
<g filter="url(#filter0_i_1251_725)">
<path d="M5.05037 1.81006C5.32004 1.81024 5.5644 1.9173 5.74393 2.09109C5.8799 2.2227 5.94789 2.28851 5.98146 2.303C5.9909 2.30707 5.98673 2.30547 5.99646 2.30877C6.03109 2.32052 6.12567 2.31724 6.31483 2.31068C6.32656 2.31027 6.33834 2.31006 6.35017 2.31006C6.90236 2.31018 7.35017 2.75785 7.35017 3.31006C7.35015 3.50381 7.35014 3.60068 7.36921 3.64117C7.38749 3.67997 7.39657 3.69105 7.43102 3.71659C7.46697 3.74325 7.53325 3.75654 7.66582 3.7831L8.04573 3.85922C8.18884 3.88789 8.2604 3.90223 8.30612 3.96168C8.3117 3.96894 8.3191 3.98035 8.32346 3.9884C8.35916 4.05436 8.34596 4.11298 8.31957 4.23021C8.19478 4.78443 7.72532 4.87771 7.36436 4.86199C7.14017 4.85224 7.02807 4.84736 6.97182 4.88781C6.9624 4.89459 6.95744 4.89875 6.94912 4.90684C6.89946 4.95516 6.88704 5.04866 6.8622 5.23567L6.65681 6.78174C6.55011 7.58762 5.86325 8.18979 5.05037 8.18994C4.23737 8.18994 3.54968 7.5877 3.44295 6.78174L3.23737 5.22846C3.21269 5.04199 3.20035 4.94875 3.14975 4.9002C3.14145 4.89225 3.13604 4.88777 3.12665 4.88114C3.06937 4.84069 2.96062 4.84718 2.74312 4.86016C2.34917 4.88366 1.81157 4.80148 1.67931 4.21525C1.65424 4.10413 1.64171 4.04856 1.67477 3.98405C1.6788 3.97619 1.68574 3.96488 1.69093 3.95774C1.73353 3.89908 1.80106 3.88204 1.93611 3.84796L2.48711 3.70893C2.58313 3.6847 2.63115 3.67259 2.65927 3.65415C2.70557 3.62379 2.72052 3.6046 2.73862 3.55228C2.74961 3.5205 2.7496 3.45035 2.74959 3.31006C2.74959 2.75777 3.1973 2.31006 3.74959 2.31006C3.76116 2.31006 3.7727 2.31026 3.78418 2.31066C3.97329 2.31715 4.06784 2.3204 4.10244 2.30866C4.11217 2.30536 4.10798 2.30697 4.11742 2.3029C4.15096 2.28843 4.21891 2.22273 4.3548 2.09132C4.53486 1.9172 4.78019 1.81006 5.05037 1.81006ZM4.84138 6.76025C4.6736 6.76025 4.5551 6.92432 4.60799 7.0835L4.6158 7.10693C4.67818 7.29393 4.85324 7.42041 5.05037 7.42041C5.24743 7.42031 5.4226 7.29389 5.48494 7.10693L5.49275 7.0835C5.54549 6.92445 5.42695 6.76042 5.25935 6.76025H4.84138ZM4.24471 4.99951C4.02397 4.99968 3.84534 5.17914 3.84529 5.3999V5.69971C3.84529 5.92052 4.02394 6.09993 4.24471 6.1001C4.46562 6.1001 4.6451 5.92062 4.6451 5.69971V5.3999C4.64505 5.17903 4.46559 4.99951 4.24471 4.99951ZM5.74471 5.00049C5.52398 5.00067 5.34534 5.17915 5.34529 5.3999V5.69971C5.34529 5.92051 5.52395 6.09992 5.74471 6.1001C5.96562 6.1001 6.1451 5.92062 6.1451 5.69971V5.3999C6.14504 5.17903 5.96559 5.00049 5.74471 5.00049Z" fill="white"/>
</g>
<defs>
<filter id="filter0_i_1251_725" x="0" y="0" width="10" height="10" filterUnits="userSpaceOnUse" color-interpolation-filters="sRGB">
<feFlood flood-opacity="0" result="BackgroundImageFix"/>
<feBlend mode="normal" in="SourceGraphic" in2="BackgroundImageFix" result="shape"/>
<feColorMatrix in="SourceAlpha" type="matrix" values="0 0 0 0 0 0 0 0 0 0 0 0 0 0 0 0 0 0 127 0" result="hardAlpha"/>
<feOffset/>
<feGaussianBlur stdDeviation="1"/>
<feComposite in2="hardAlpha" operator="arithmetic" k2="-1" k3="1"/>
<feColorMatrix type="matrix" values="0 0 0 0 0.942 0 0 0 0 0.94 0 0 0 0 1 0 0 0 0.1 0"/>
<feBlend mode="hard-light" in2="shape" result="effect1_innerShadow_1251_725"/>
</filter>
</defs>
</svg>
