<svg width="10" height="10" viewBox="0 0 10 10" fill="none" xmlns="http://www.w3.org/2000/svg">
<g filter="url(#filter0_i_1688_265)">
<path fill-rule="evenodd" clip-rule="evenodd" d="M7.41268 6.49878C7.63394 6.46869 7.80946 6.68208 7.7369 6.89331C7.72339 6.93254 7.67342 7.00585 7.57284 7.15113C7.54453 7.19202 7.52989 7.21242 7.52011 7.23218C7.47046 7.33297 7.48155 7.45342 7.54843 7.5437C7.56162 7.56145 7.57947 7.57963 7.61483 7.61499L7.62655 7.62671C7.74834 7.7485 7.80962 7.80999 7.83163 7.85523C7.91106 8.01892 7.82786 8.21586 7.65487 8.27222C7.60703 8.28774 7.52033 8.28523 7.34823 8.28198L6.56601 8.26734C6.47168 8.26556 6.41004 8.16574 6.43547 8.07489C6.47907 7.91917 6.49958 7.75713 6.4996 7.60034C6.4996 7.56276 6.49842 7.52486 6.49604 7.48681C6.47677 7.17978 6.46714 7.02626 6.50688 6.9514C6.5142 6.93761 6.51708 6.9329 6.52603 6.92011C6.57461 6.85065 6.6792 6.80523 6.88838 6.71439L7.12851 6.61011C7.29011 6.53976 7.37152 6.50453 7.41268 6.49878ZM4.19509 7.39833C4.36947 7.19614 4.45667 7.09505 4.52559 7.06792C4.5395 7.06244 4.54179 7.06168 4.5562 7.05773C4.62764 7.03816 4.7491 7.06491 4.99202 7.11839C5.10155 7.14251 5.21162 7.16029 5.32015 7.17084C5.52296 7.19056 5.62436 7.20042 5.6981 7.26762C5.70694 7.27568 5.71998 7.28938 5.72758 7.29861C5.79101 7.37562 5.79374 7.4337 5.7992 7.54986C5.79998 7.56652 5.80038 7.58335 5.80038 7.60034C5.80035 7.79822 5.7495 7.97634 5.67147 8.09351C5.6072 8.18987 5.53044 8.23694 5.43222 8.24585C4.88108 8.22306 4.40632 8.13679 4.00181 8.00252C3.847 7.95113 3.83141 7.74624 3.95468 7.63941C4.03881 7.56646 4.11984 7.48558 4.19509 7.39833ZM2.67068 4.07191C2.86544 3.83547 2.96282 3.71725 3.10862 3.72063C3.12889 3.7211 3.14862 3.72355 3.16838 3.72806C3.31056 3.7605 3.40645 3.96336 3.59823 4.36909C3.6814 4.54503 3.78272 4.71035 3.89511 4.86011C3.96914 4.95873 4.00616 5.00804 4.01405 5.02115C4.11515 5.18905 4.10244 5.27139 3.9554 5.40098C3.94392 5.4111 3.88477 5.45336 3.76647 5.5379C3.44332 5.76882 3.41777 6.03714 3.57105 6.28941C3.70842 6.51552 3.77711 6.62857 3.77377 6.71854C3.77328 6.73189 3.77204 6.74401 3.76982 6.75718C3.75488 6.84597 3.71147 6.89258 3.62465 6.98582C3.58527 7.0281 3.54231 7.06969 3.49569 7.11011C3.40815 7.18598 3.31584 7.25059 3.22184 7.30346C3.11912 7.36122 3.06776 7.39011 2.97504 7.38179C2.96509 7.38089 2.94517 7.37775 2.93544 7.37554C2.84465 7.35493 2.80057 7.30722 2.71241 7.21178C1.85686 6.28561 1.94994 4.94688 2.67068 4.07191ZM3.78866 1.81714C5.17122 1.39191 6.27792 1.63924 6.91561 2.17066C7.23068 2.4334 7.44238 2.77889 7.47421 3.1482C7.49734 3.4185 7.42061 3.6772 7.25269 3.89174C7.23507 3.91424 7.22626 3.9255 7.22246 3.93082C7.22139 3.93232 7.22183 3.93169 7.22078 3.93319C7.21702 3.93855 7.20877 3.95152 7.19225 3.97744C7.18429 3.98995 7.17583 4.00235 7.16659 4.01441C6.8315 4.45178 6.27033 4.93601 5.3912 5.05152C5.31429 5.06161 5.27583 5.06666 5.2346 5.06062C5.22869 5.05976 5.21978 5.05813 5.21394 5.05685C5.17323 5.04794 5.14869 5.0348 5.0996 5.00852C4.87699 4.88934 4.64747 4.697 4.45468 4.44019C4.26279 4.1845 4.13482 3.90247 4.08818 3.62628C4.06481 3.48791 4.05312 3.41872 4.10835 3.32458C4.11449 3.3141 4.12722 3.29583 4.1349 3.28643C4.20401 3.20195 4.29183 3.1853 4.46749 3.15201C5.23809 3.00596 5.8477 2.97183 6.31595 2.99009C6.49037 2.99689 6.60139 2.82058 6.46737 2.70874C6.05518 2.36525 5.21079 2.11165 3.99374 2.48609C3.80922 2.54263 3.61319 2.43904 3.55624 2.25464C3.4996 2.07001 3.60408 1.87401 3.78866 1.81714ZM5.89999 3.30054C5.67916 3.30054 5.49974 3.47916 5.4996 3.69995C5.4996 3.92087 5.67908 4.10034 5.89999 4.10034C6.12084 4.10027 6.2994 3.92082 6.2994 3.69995C6.29927 3.4792 6.12076 3.30061 5.89999 3.30054Z" fill="white"/>
</g>
<defs>
<filter id="filter0_i_1688_265" x="0" y="0" width="10" height="10" filterUnits="userSpaceOnUse" color-interpolation-filters="sRGB">
<feFlood flood-opacity="0" result="BackgroundImageFix"/>
<feBlend mode="normal" in="SourceGraphic" in2="BackgroundImageFix" result="shape"/>
<feColorMatrix in="SourceAlpha" type="matrix" values="0 0 0 0 0 0 0 0 0 0 0 0 0 0 0 0 0 0 127 0" result="hardAlpha"/>
<feOffset/>
<feGaussianBlur stdDeviation="1"/>
<feComposite in2="hardAlpha" operator="arithmetic" k2="-1" k3="1"/>
<feColorMatrix type="matrix" values="0 0 0 0 0.942 0 0 0 0 0.94 0 0 0 0 1 0 0 0 0.1 0"/>
<feBlend mode="hard-light" in2="shape" result="effect1_innerShadow_1688_265"/>
</filter>
</defs>
</svg>
