<svg width="10" height="10" viewBox="0 0 10 10" fill="none" xmlns="http://www.w3.org/2000/svg">
<g filter="url(#filter0_i_1587_705)">
<path d="M6 2.50684C6.82833 2.50684 7.49984 3.17855 7.5 4.00684C7.5 4.06771 7.49622 4.1277 7.48896 4.18662C7.46499 4.38111 7.453 4.47835 7.47116 4.52521C7.47508 4.53534 7.47515 4.53549 7.48016 4.54513C7.50332 4.58972 7.58415 4.64497 7.74582 4.75546C8.14075 5.02537 8.40023 5.47878 8.40039 5.99316C8.40039 6.82146 7.72864 7.49295 6.90039 7.49316H3.09961C2.27147 7.49282 1.59961 6.82138 1.59961 5.99316C1.59981 5.36506 1.98691 4.82794 2.53489 4.60476C2.57465 4.58857 2.59961 4.54976 2.59961 4.50684C2.59977 3.67863 3.27139 3.00697 4.09961 3.00684C4.22067 3.00685 4.3382 3.02176 4.45078 3.0494C4.60904 3.08826 4.68817 3.10769 4.73268 3.09837C4.74201 3.09642 4.74281 3.09621 4.7519 3.09334C4.79526 3.07965 4.85477 3.02389 4.97379 2.91238C5.24219 2.66089 5.60331 2.5069 6 2.50684ZM5.09961 3.59961C4.879 3.59988 4.70032 3.77936 4.7002 4C4.7002 4.13958 4.7002 4.20936 4.67722 4.25307C4.64136 4.32125 4.56954 4.36278 4.49256 4.35984C4.44322 4.35796 4.3824 4.32295 4.26074 4.25293C4.06956 4.14283 3.82432 4.20841 3.71387 4.39941C3.60351 4.59056 3.66942 4.83569 3.86035 4.94629C3.98234 5.01661 4.04333 5.05178 4.06977 5.09393C4.11053 5.15891 4.11053 5.24148 4.06977 5.30646C4.04333 5.34861 3.98234 5.38378 3.86035 5.4541C3.66949 5.56468 3.6046 5.80888 3.71484 6C3.82532 6.19095 4.06958 6.25661 4.26074 6.14648C4.38233 6.07623 4.44312 6.04111 4.49273 6.03926C4.56947 6.03639 4.64107 6.07771 4.67698 6.1456C4.7002 6.18948 4.7002 6.25978 4.7002 6.40039C4.70043 6.62096 4.87904 6.79957 5.09961 6.7998C5.32052 6.7998 5.50001 6.62033 5.5 6.39941C5.50027 6.25927 5.50041 6.1892 5.5236 6.14545C5.55961 6.07752 5.63136 6.03624 5.70818 6.03927C5.75767 6.04122 5.81827 6.07631 5.93945 6.14648C6.13064 6.2567 6.37486 6.19103 6.48535 6C6.59564 5.80877 6.52998 5.56458 6.33887 5.4541C6.21737 5.38375 6.15662 5.34857 6.13027 5.30644C6.08965 5.2415 6.08969 5.15907 6.13037 5.09417C6.15676 5.05207 6.21779 5.01681 6.33984 4.94629C6.53076 4.83569 6.59669 4.59056 6.48633 4.39941C6.37583 4.20824 6.13071 4.14351 5.93945 4.25391C5.81827 4.32408 5.75767 4.35917 5.70819 4.36112C5.63136 4.36415 5.55961 4.32287 5.5236 4.25494C5.50041 4.21118 5.50027 4.14079 5.5 4C5.49981 3.77927 5.32037 3.59965 5.09961 3.59961Z" fill="white"/>
</g>
<defs>
<filter id="filter0_i_1587_705" x="0" y="0" width="10" height="10" filterUnits="userSpaceOnUse" color-interpolation-filters="sRGB">
<feFlood flood-opacity="0" result="BackgroundImageFix"/>
<feBlend mode="normal" in="SourceGraphic" in2="BackgroundImageFix" result="shape"/>
<feColorMatrix in="SourceAlpha" type="matrix" values="0 0 0 0 0 0 0 0 0 0 0 0 0 0 0 0 0 0 127 0" result="hardAlpha"/>
<feOffset/>
<feGaussianBlur stdDeviation="1"/>
<feComposite in2="hardAlpha" operator="arithmetic" k2="-1" k3="1"/>
<feColorMatrix type="matrix" values="0 0 0 0 0.942 0 0 0 0 0.94 0 0 0 0 1 0 0 0 0.1 0"/>
<feBlend mode="hard-light" in2="shape" result="effect1_innerShadow_1587_705"/>
</filter>
</defs>
</svg>
