<svg width="10" height="10" viewBox="0 0 10 10" fill="none" xmlns="http://www.w3.org/2000/svg">
<g filter="url(#filter0_i_1587_676)">
<path fill-rule="evenodd" clip-rule="evenodd" d="M5.02681 2.08173C5.15428 2.09318 5.2519 2.21441 5.44576 2.45673L5.48189 2.50165C5.62782 2.68406 5.70073 2.77568 5.71627 2.88349C5.7185 2.89899 5.71977 2.9147 5.72017 2.93036C5.72287 3.03927 5.66567 3.14214 5.5522 3.34638L5.47017 3.49384C5.38913 3.63971 5.34864 3.71296 5.31978 3.79755C5.31589 3.80898 5.31152 3.82401 5.30806 3.83564C5.28256 3.92155 5.2739 3.99724 5.25728 4.14813C5.23574 4.34372 5.45123 4.46773 5.60982 4.35126C5.73194 4.26158 5.79335 4.21701 5.85494 4.15204C5.86322 4.14331 5.87333 4.13185 5.88131 4.12274C5.94032 4.0553 5.98369 3.98313 6.06978 3.83954L6.1567 3.69501C6.27679 3.49472 6.3365 3.39364 6.43209 3.34149C6.44586 3.33399 6.4605 3.3278 6.47506 3.32196C6.5762 3.28149 6.69232 3.2985 6.9233 3.33368L6.98092 3.34247C7.28711 3.38911 7.4404 3.41295 7.51412 3.51728C7.52444 3.53194 7.53392 3.54788 7.54146 3.56415C7.59519 3.68025 7.53814 3.825 7.42525 4.11396L7.40474 4.16767C7.31972 4.38529 7.27651 4.49484 7.19088 4.5622C7.17872 4.57174 7.16597 4.58049 7.15279 4.58856C7.05987 4.64532 6.94276 4.64721 6.70943 4.65106L6.54049 4.65399C6.37297 4.65676 6.28859 4.65808 6.20064 4.67548C6.18885 4.67782 6.17423 4.68148 6.16256 4.68427C6.07542 4.70514 6.00557 4.73555 5.86666 4.79657C5.684 4.87681 5.68235 5.12786 5.86283 5.21289C5.91055 5.23537 5.95672 5.25688 6.00045 5.27704C6.11592 5.33027 6.17398 5.35654 6.24068 5.37665C6.31738 5.39973 6.40575 5.41516 6.4858 5.41864C6.55557 5.42164 6.62348 5.41511 6.75826 5.40204C6.90998 5.38733 6.98622 5.38044 7.05318 5.39716C7.13267 5.41706 7.2045 5.46033 7.25826 5.52216C7.3035 5.57432 7.33168 5.64576 7.38717 5.78778L7.4272 5.89032C7.53876 6.17585 7.59457 6.31915 7.54244 6.43427C7.53435 6.45208 7.52454 6.46915 7.51314 6.48505C7.43948 6.5878 7.28718 6.61072 6.98384 6.65692L6.87545 6.67353C6.72489 6.69646 6.64925 6.70809 6.5815 6.69501C6.50095 6.67941 6.42761 6.63875 6.37056 6.57978C6.32256 6.53015 6.29017 6.46078 6.22701 6.32196C6.17095 6.19874 6.14338 6.13673 6.10592 6.07782C6.06283 6.01009 6.00521 5.94141 5.94674 5.88642C5.89588 5.8386 5.8438 5.80177 5.7397 5.72821C5.72706 5.71928 5.72074 5.71481 5.70973 5.70836C5.51664 5.5952 5.25658 5.74535 5.25805 5.96915C5.25813 5.98192 5.25882 5.98948 5.26021 6.00458C5.27189 6.13166 5.27837 6.19534 5.29439 6.26337C5.31279 6.34142 5.34423 6.42568 5.38131 6.49677C5.41359 6.55857 5.453 6.61414 5.5317 6.72431C5.62003 6.84797 5.66402 6.91008 5.68306 6.97626C5.70562 7.05522 5.70403 7.13986 5.6772 7.21747C5.65462 7.28269 5.60642 7.34258 5.51119 7.46161L5.44283 7.54657C5.25117 7.78615 5.15554 7.90621 5.02974 7.91864C5.01027 7.92056 4.99062 7.92054 4.97115 7.91864C4.84534 7.90623 4.74877 7.78617 4.55709 7.54657L4.48873 7.46161C4.39358 7.34268 4.34629 7.28263 4.32369 7.21747C4.29685 7.13984 4.29428 7.05524 4.31685 6.97626C4.33588 6.90999 4.3807 6.84821 4.4692 6.72431C4.54798 6.614 4.58729 6.55866 4.61959 6.49677C4.65669 6.42562 4.68811 6.34148 4.7065 6.26337C4.7225 6.19537 4.72804 6.13163 4.7397 6.00458C4.74103 5.99016 4.74169 5.98295 4.7418 5.9705C4.74372 5.74616 4.48288 5.59557 4.28957 5.70942C4.27883 5.71574 4.27295 5.7199 4.26119 5.72821C4.1569 5.80192 4.1041 5.83852 4.05318 5.88642C3.99485 5.94131 3.93799 6.01025 3.89498 6.07782C3.85748 6.13677 3.82903 6.19858 3.77291 6.32196C3.70986 6.46055 3.67819 6.53016 3.63033 6.57978C3.57323 6.63879 3.49904 6.67943 3.41841 6.69501C3.35065 6.70806 3.27516 6.69648 3.12447 6.67353L3.01607 6.65692C2.71303 6.61077 2.56145 6.58762 2.48775 6.48505C2.47638 6.46918 2.46654 6.45203 2.45845 6.43427C2.40631 6.31913 2.46209 6.17599 2.57369 5.89032L2.61373 5.78778C2.66904 5.6462 2.69662 5.57524 2.74166 5.52314C2.79546 5.46108 2.86707 5.41613 2.94674 5.39618C3.01372 5.37942 3.08986 5.38733 3.24166 5.40204C3.37666 5.41513 3.44431 5.42164 3.51412 5.41864C3.59428 5.41519 3.68241 5.39978 3.75924 5.37665C3.82616 5.3565 3.88446 5.33052 4.00045 5.27704C4.04395 5.25698 4.08982 5.23555 4.13721 5.21313C4.31718 5.12799 4.31556 4.87662 4.13326 4.79657C3.99468 4.73572 3.9253 4.70511 3.83834 4.68427C3.8265 4.68143 3.81121 4.67784 3.79927 4.67548C3.71141 4.65811 3.62767 4.65676 3.46041 4.65399L3.29146 4.65106C3.05786 4.6472 2.94107 4.64535 2.8481 4.58856C2.83468 4.58037 2.8214 4.57192 2.80904 4.5622C2.72341 4.49484 2.68117 4.38529 2.59615 4.16767L2.57466 4.11396C2.46174 3.82491 2.40562 3.68027 2.45943 3.56415C2.46696 3.54792 2.4755 3.5319 2.4858 3.51728C2.55949 3.41275 2.71336 3.38917 3.01998 3.34247L3.07759 3.33368C3.30832 3.29854 3.42378 3.28157 3.52486 3.32196C3.53949 3.32782 3.55399 3.33493 3.56783 3.34247C3.66337 3.39463 3.72317 3.49478 3.84322 3.69501L3.93013 3.83954C4.01629 3.98323 4.05957 4.05528 4.11861 4.12274C4.12661 4.13189 4.13761 4.14324 4.14595 4.15204C4.2075 4.2169 4.26889 4.26156 4.39107 4.35126C4.54998 4.46792 4.76522 4.34408 4.74361 4.14813C4.72698 3.9973 4.71833 3.92155 4.69283 3.83564C4.68937 3.824 4.68501 3.809 4.68111 3.79755C4.65222 3.71286 4.61092 3.63996 4.52974 3.49384L4.44771 3.34638C4.33425 3.14214 4.27802 3.03927 4.28072 2.93036C4.28112 2.9147 4.28239 2.89899 4.28463 2.88349C4.30018 2.77571 4.37311 2.68402 4.519 2.50165L4.55513 2.45673C4.74885 2.21458 4.84577 2.09333 4.9731 2.08173C4.99088 2.08013 5.00903 2.08015 5.02681 2.08173Z" fill="white"/>
</g>
<defs>
<filter id="filter0_i_1587_676" x="0" y="0" width="10" height="10" filterUnits="userSpaceOnUse" color-interpolation-filters="sRGB">
<feFlood flood-opacity="0" result="BackgroundImageFix"/>
<feBlend mode="normal" in="SourceGraphic" in2="BackgroundImageFix" result="shape"/>
<feColorMatrix in="SourceAlpha" type="matrix" values="0 0 0 0 0 0 0 0 0 0 0 0 0 0 0 0 0 0 127 0" result="hardAlpha"/>
<feOffset/>
<feGaussianBlur stdDeviation="1"/>
<feComposite in2="hardAlpha" operator="arithmetic" k2="-1" k3="1"/>
<feColorMatrix type="matrix" values="0 0 0 0 0.942 0 0 0 0 0.94 0 0 0 0 1 0 0 0 0.1 0"/>
<feBlend mode="hard-light" in2="shape" result="effect1_innerShadow_1587_676"/>
</filter>
</defs>
</svg>
