<svg width="10" height="10" viewBox="0 0 10 10" fill="none" xmlns="http://www.w3.org/2000/svg">
<g filter="url(#filter0_i_1587_734)">
<path fill-rule="evenodd" clip-rule="evenodd" d="M4.1293 3.53284C4.27735 3.55062 4.36539 3.77406 4.54141 4.22034L4.81582 4.91565C4.85113 5.00517 4.86919 5.05031 4.90078 5.0846C4.90538 5.08959 4.91044 5.09465 4.91543 5.09925C4.94964 5.13064 4.99437 5.14812 5.0834 5.18323L5.77969 5.45765C6.22559 5.63351 6.44816 5.72191 6.46621 5.86976C6.46858 5.88947 6.46856 5.90961 6.46621 5.92933C6.44844 6.07734 6.22578 6.1655 5.77969 6.34144L5.0834 6.61585C4.99407 6.65108 4.94969 6.66928 4.91543 6.70081C4.91041 6.70544 4.90541 6.71044 4.90078 6.71546C4.86928 6.74972 4.85105 6.7941 4.81582 6.88343L4.54141 7.57972C4.36549 8.02577 4.27731 8.24847 4.1293 8.26624C4.1096 8.26858 4.08942 8.26861 4.06973 8.26624C3.92191 8.24815 3.83346 8.02556 3.65762 7.57972L3.3832 6.88343C3.34809 6.79439 3.33061 6.74967 3.29922 6.71546C3.29462 6.71047 3.28956 6.70541 3.28457 6.70081C3.25028 6.66922 3.20514 6.65116 3.11562 6.61585L2.42031 6.34144C1.97405 6.16543 1.75059 6.07737 1.73281 5.92933C1.73047 5.90963 1.73045 5.88945 1.73281 5.86976C1.7508 5.72185 1.97426 5.63357 2.42031 5.45765L3.11562 5.18323C3.20505 5.14796 3.25029 5.13078 3.28457 5.09925C3.28959 5.09462 3.29459 5.08962 3.29922 5.0846C3.33078 5.05032 3.34792 5.00513 3.3832 4.91565L3.65762 4.22034C3.83351 3.77435 3.92185 3.55088 4.06973 3.53284C4.0894 3.53048 4.10962 3.53051 4.1293 3.53284ZM6.82949 1.73304C6.97748 1.75091 7.06563 1.97436 7.2416 2.42054L7.26113 2.47034C7.29644 2.55986 7.3145 2.605 7.34609 2.63929C7.35065 2.64422 7.3558 2.64938 7.36074 2.65394C7.39495 2.68526 7.4397 2.70281 7.52871 2.73792L7.57949 2.75745C8.02523 2.93325 8.24781 3.02181 8.26602 3.16956C8.26838 3.18922 8.26834 3.20947 8.26602 3.22913C8.24824 3.37714 8.0255 3.46534 7.57949 3.64124L7.52871 3.66175C7.43969 3.69686 7.39495 3.7144 7.36074 3.74573C7.35579 3.75029 7.35066 3.75544 7.34609 3.76038C7.3145 3.79467 7.29644 3.83981 7.26113 3.92933L7.2416 3.97913C7.06563 4.42531 6.97748 4.64876 6.82949 4.66663C6.80974 4.669 6.78967 4.66899 6.76992 4.66663C6.62187 4.64885 6.53382 4.42542 6.35781 3.97913L6.33828 3.92933C6.30298 3.83981 6.28491 3.79467 6.25332 3.76038C6.24872 3.75539 6.24366 3.75033 6.23867 3.74573C6.20447 3.71434 6.15969 3.69685 6.0707 3.66175L6.01992 3.64124C5.57377 3.46528 5.3502 3.37716 5.33242 3.22913C5.33011 3.2095 5.33006 3.18919 5.33242 3.16956C5.35055 3.02175 5.57404 2.93331 6.01992 2.75745L6.0707 2.73792C6.15969 2.70283 6.20447 2.68531 6.23867 2.65394C6.24366 2.64934 6.24873 2.64427 6.25332 2.63929C6.28491 2.605 6.30298 2.55986 6.33828 2.47034L6.35781 2.42054C6.53382 1.97425 6.62187 1.75082 6.76992 1.73304C6.78968 1.73068 6.80974 1.73066 6.82949 1.73304Z" fill="white"/>
</g>
<defs>
<filter id="filter0_i_1587_734" x="0" y="0" width="10" height="10" filterUnits="userSpaceOnUse" color-interpolation-filters="sRGB">
<feFlood flood-opacity="0" result="BackgroundImageFix"/>
<feBlend mode="normal" in="SourceGraphic" in2="BackgroundImageFix" result="shape"/>
<feColorMatrix in="SourceAlpha" type="matrix" values="0 0 0 0 0 0 0 0 0 0 0 0 0 0 0 0 0 0 127 0" result="hardAlpha"/>
<feOffset/>
<feGaussianBlur stdDeviation="1"/>
<feComposite in2="hardAlpha" operator="arithmetic" k2="-1" k3="1"/>
<feColorMatrix type="matrix" values="0 0 0 0 0.942 0 0 0 0 0.94 0 0 0 0 1 0 0 0 0.1 0"/>
<feBlend mode="hard-light" in2="shape" result="effect1_innerShadow_1587_734"/>
</filter>
</defs>
</svg>
