<svg width="10" height="10" viewBox="0 0 10 10" fill="none" xmlns="http://www.w3.org/2000/svg">
<g filter="url(#filter0_i_1217_696)">
<path d="M3.84961 5.85154C3.94532 5.87322 3.99317 5.88405 4.02942 5.91344C4.0347 5.91772 4.03976 5.92226 4.04457 5.92705C4.07764 5.95997 4.09351 6.0064 4.12525 6.09926L4.50486 7.20998C4.57878 7.42628 4.61574 7.53442 4.57001 7.61324C4.56365 7.62421 4.55626 7.63454 4.54794 7.64411C4.48814 7.71288 4.37385 7.71288 4.14528 7.71288H3.85251C3.58729 7.71288 3.33301 7.60744 3.14548 7.41991L2.40427 6.67967C2.1214 6.39681 2.03402 5.97199 2.18259 5.60057C2.209 5.5337 2.28022 5.49608 2.35035 5.51196L3.84961 5.85154ZM5.74606 2.38377C6.27848 2.13171 6.91188 2.3917 7.11325 2.9453L7.82809 4.91112C7.89949 5.10744 7.90783 5.32127 7.85153 5.52245L7.44235 6.98241C7.32144 7.41424 6.9279 7.71288 6.47946 7.71288H5.89961C5.77556 7.71288 5.71354 7.71288 5.66489 7.68247C5.65787 7.67808 5.65113 7.67326 5.64471 7.66804C5.6002 7.63184 5.58014 7.57315 5.54003 7.45577L4.86325 5.47557C4.79009 5.26237 4.61147 5.10146 4.39157 5.05174L3.00137 4.73785C2.81065 4.69479 2.71529 4.67326 2.67101 4.60419C2.66478 4.59448 2.6594 4.58424 2.65493 4.5736C2.6232 4.49794 2.65959 4.4072 2.73237 4.22574L2.79196 4.07713C2.88566 3.843 3.06503 3.65287 3.29294 3.54491L5.74606 2.38377Z" fill="white"/>
</g>
<defs>
<filter id="filter0_i_1217_696" x="0" y="0" width="10" height="10" filterUnits="userSpaceOnUse" color-interpolation-filters="sRGB">
<feFlood flood-opacity="0" result="BackgroundImageFix"/>
<feBlend mode="normal" in="SourceGraphic" in2="BackgroundImageFix" result="shape"/>
<feColorMatrix in="SourceAlpha" type="matrix" values="0 0 0 0 0 0 0 0 0 0 0 0 0 0 0 0 0 0 127 0" result="hardAlpha"/>
<feOffset/>
<feGaussianBlur stdDeviation="1"/>
<feComposite in2="hardAlpha" operator="arithmetic" k2="-1" k3="1"/>
<feColorMatrix type="matrix" values="0 0 0 0 0.942 0 0 0 0 0.94 0 0 0 0 1 0 0 0 0.1 0"/>
<feBlend mode="hard-light" in2="shape" result="effect1_innerShadow_1217_696"/>
</filter>
</defs>
</svg>
