<svg width="10" height="10" viewBox="0 0 10 10" fill="none" xmlns="http://www.w3.org/2000/svg">
<g filter="url(#filter0_i_1587_714)">
<path d="M4.99951 6.99951C5.26334 6.99951 5.46639 7.23346 5.4292 7.49463L5.34228 8.10303C5.31787 8.27335 5.1716 8.3999 4.99951 8.3999C4.82747 8.39984 4.68113 8.27333 4.65674 8.10303L4.5708 7.49463C4.53355 7.23346 4.73571 6.99958 4.99951 6.99951ZM2.92822 6.45752C3.08897 6.2473 3.39822 6.22663 3.58545 6.41357C3.77253 6.60066 3.75239 6.90989 3.54248 7.0708L2.9751 7.50439C2.83869 7.60853 2.64627 7.59549 2.5249 7.47412C2.40369 7.35267 2.39135 7.16026 2.49561 7.02393L2.92822 6.45752ZM6.41455 6.41357C6.60179 6.22675 6.91106 6.24735 7.07178 6.45752L7.50439 7.02393C7.60861 7.16021 7.5962 7.35266 7.4751 7.47412C7.35366 7.59556 7.16035 7.60872 7.02393 7.50439L6.45752 7.0708C6.24747 6.90992 6.22743 6.6007 6.41455 6.41357ZM4.99756 3.59814C5.77069 3.59814 6.39784 4.22445 6.39795 4.99756C6.39795 5.77076 5.77076 6.39795 4.99756 6.39795C4.22436 6.39795 3.59717 5.77075 3.59717 4.99756C3.59728 4.22446 4.22443 3.59815 4.99756 3.59814ZM2.50439 4.5708C2.76554 4.53349 2.99933 4.73576 2.99951 4.99951C2.99951 5.26341 2.76564 5.46652 2.50439 5.4292L1.89697 5.34228C1.72656 5.31794 1.6001 5.17165 1.6001 4.99951C1.60025 4.82751 1.72666 4.68204 1.89697 4.65771L2.50439 4.5708ZM7.49463 4.5708L8.10303 4.65771C8.27314 4.68221 8.39975 4.82764 8.3999 4.99951C8.3999 5.17154 8.27326 5.3178 8.10303 5.34228L7.49463 5.4292C7.23339 5.46651 6.99951 5.2634 6.99951 4.99951C6.99969 4.73576 7.23349 4.53349 7.49463 4.5708ZM2.5249 2.5249C2.64624 2.40356 2.83869 2.39059 2.9751 2.49463L3.54248 2.92822C3.75249 3.08911 3.77256 3.39834 3.58545 3.58545C3.39823 3.77252 3.08901 3.75176 2.92822 3.5415L2.49561 2.9751C2.39132 2.83872 2.40358 2.64635 2.5249 2.5249ZM7.02393 2.49463C7.16035 2.39031 7.35366 2.40346 7.4751 2.5249C7.59631 2.64635 7.60865 2.83877 7.50439 2.9751L7.07178 3.5415C6.91102 3.75172 6.60178 3.7724 6.41455 3.58545C6.22739 3.39829 6.24737 3.08908 6.45752 2.92822L7.02393 2.49463ZM4.99268 1.6001C5.16865 1.6001 5.31837 1.7296 5.34326 1.90381L5.42822 2.50146C5.46577 2.76429 5.26207 2.99951 4.99658 2.99951C4.73331 2.9995 4.53004 2.76836 4.56396 2.50732L4.64209 1.90771C4.66508 1.73172 4.81521 1.60023 4.99268 1.6001Z" fill="white"/>
</g>
<defs>
<filter id="filter0_i_1587_714" x="0" y="0" width="10" height="10" filterUnits="userSpaceOnUse" color-interpolation-filters="sRGB">
<feFlood flood-opacity="0" result="BackgroundImageFix"/>
<feBlend mode="normal" in="SourceGraphic" in2="BackgroundImageFix" result="shape"/>
<feColorMatrix in="SourceAlpha" type="matrix" values="0 0 0 0 0 0 0 0 0 0 0 0 0 0 0 0 0 0 127 0" result="hardAlpha"/>
<feOffset/>
<feGaussianBlur stdDeviation="1"/>
<feComposite in2="hardAlpha" operator="arithmetic" k2="-1" k3="1"/>
<feColorMatrix type="matrix" values="0 0 0 0 0.942 0 0 0 0 0.94 0 0 0 0 1 0 0 0 0.1 0"/>
<feBlend mode="hard-light" in2="shape" result="effect1_innerShadow_1587_714"/>
</filter>
</defs>
</svg>
