<svg width="10" height="10" viewBox="0 0 10 10" fill="none" xmlns="http://www.w3.org/2000/svg">
<g filter="url(#filter0_i_1587_725)">
<path fill-rule="evenodd" clip-rule="evenodd" d="M5.02504 1.79666C5.14186 1.80406 5.24501 1.87889 5.44984 2.02908L5.76918 2.26443C5.85308 2.32595 5.89537 2.35684 5.94301 2.37576C5.95002 2.37854 5.95733 2.38119 5.96449 2.38357C6.01321 2.39975 6.06562 2.40313 6.16957 2.40994L6.56508 2.43533C6.81855 2.45194 6.94543 2.46063 7.03969 2.53006C7.05328 2.54007 7.06653 2.55064 7.07875 2.56228C7.16347 2.64305 7.19319 2.76674 7.25356 3.01346L7.34828 3.3992C7.37295 3.50001 7.3855 3.55042 7.40981 3.59549C7.41331 3.60197 7.41669 3.60874 7.42055 3.61502C7.44746 3.65873 7.48592 3.69532 7.56117 3.76736L7.84731 4.04178C8.0307 4.21733 8.12241 4.30505 8.15004 4.41873C8.154 4.43507 8.15695 4.45182 8.15883 4.46853C8.17182 4.58484 8.11585 4.69883 8.00356 4.92654L7.82777 5.28299C7.78181 5.37618 7.759 5.4232 7.74867 5.47342C7.74717 5.48073 7.74585 5.48849 7.74477 5.49588C7.73738 5.54653 7.74322 5.59865 7.75453 5.70193L7.7975 6.09646C7.82513 6.34869 7.83873 6.47504 7.78676 6.57986C7.77928 6.59492 7.77068 6.60981 7.76137 6.62381C7.69651 6.72107 7.58047 6.77262 7.34828 6.87478L6.985 7.03396C6.88976 7.07587 6.84162 7.09689 6.80141 7.12869C6.79548 7.13338 6.78948 7.13831 6.78383 7.14334C6.74548 7.17741 6.71664 7.22088 6.65883 7.3074L6.43813 7.63748C6.29706 7.84861 6.22696 7.9548 6.11977 8.00174C6.10432 8.00849 6.08809 8.01358 6.07191 8.01834C5.9596 8.05134 5.83727 8.01618 5.5934 7.9451L5.21254 7.83377C5.11276 7.80468 5.06262 7.7903 5.01137 7.78885C5.00388 7.78864 4.99639 7.78863 4.98891 7.78885C4.93764 7.7903 4.88756 7.80467 4.78774 7.83377L4.40688 7.9451C4.163 8.01618 4.04068 8.05134 3.92836 8.01834C3.91221 8.01359 3.89594 8.00848 3.88051 8.00174C3.77334 7.95479 3.70321 7.84859 3.56215 7.63748L3.34145 7.3074C3.28365 7.2209 3.25479 7.17741 3.21645 7.14334C3.21081 7.13833 3.20478 7.13337 3.19887 7.12869C3.15866 7.0969 3.11048 7.07585 3.01527 7.03396L2.65199 6.87478C2.41982 6.77263 2.30375 6.72108 2.23891 6.62381C2.22959 6.6098 2.221 6.59493 2.21352 6.57986C2.16154 6.47504 2.17515 6.34869 2.20277 6.09646L2.24574 5.70193C2.25706 5.59864 2.2629 5.54653 2.25551 5.49588C2.25442 5.48848 2.2531 5.48074 2.2516 5.47342C2.24127 5.4232 2.21847 5.3762 2.1725 5.28299L1.99672 4.92654C1.88443 4.69885 1.82845 4.58484 1.84145 4.46853C1.84332 4.45182 1.84627 4.43508 1.85024 4.41873C1.87786 4.30505 1.96958 4.21733 2.15297 4.04178L2.4391 3.76736C2.51436 3.69532 2.55281 3.65873 2.57973 3.61502C2.58359 3.60873 2.58696 3.60198 2.59047 3.59549C2.61478 3.55042 2.62732 3.50002 2.65199 3.3992L2.74672 3.01346C2.80708 2.76678 2.83683 2.64305 2.92152 2.56228C2.93373 2.55065 2.94701 2.54006 2.96059 2.53006C3.05484 2.46063 3.18172 2.45194 3.4352 2.43533L3.8307 2.40994C3.93465 2.40313 3.98707 2.39975 4.03578 2.38357C4.04296 2.38119 4.05024 2.37855 4.05727 2.37576C4.10493 2.35684 4.14716 2.32597 4.23109 2.26443L4.55043 2.02908C4.75528 1.87887 4.8584 1.80406 4.97524 1.79666C4.99182 1.79562 5.00846 1.79563 5.02504 1.79666ZM5.00063 3.40017C4.11704 3.40017 3.40015 4.11622 3.40004 4.99978C3.40004 5.88344 4.11697 6.60037 5.00063 6.60037C5.88408 6.60014 6.60023 5.88329 6.60023 4.99978C6.60013 4.11636 5.88402 3.40041 5.00063 3.40017Z" fill="white"/>
</g>
<defs>
<filter id="filter0_i_1587_725" x="0" y="0" width="10" height="10" filterUnits="userSpaceOnUse" color-interpolation-filters="sRGB">
<feFlood flood-opacity="0" result="BackgroundImageFix"/>
<feBlend mode="normal" in="SourceGraphic" in2="BackgroundImageFix" result="shape"/>
<feColorMatrix in="SourceAlpha" type="matrix" values="0 0 0 0 0 0 0 0 0 0 0 0 0 0 0 0 0 0 127 0" result="hardAlpha"/>
<feOffset/>
<feGaussianBlur stdDeviation="1"/>
<feComposite in2="hardAlpha" operator="arithmetic" k2="-1" k3="1"/>
<feColorMatrix type="matrix" values="0 0 0 0 0.942 0 0 0 0 0.94 0 0 0 0 1 0 0 0 0.1 0"/>
<feBlend mode="hard-light" in2="shape" result="effect1_innerShadow_1587_725"/>
</filter>
</defs>
</svg>
