<svg width="10" height="10" viewBox="0 0 10 10" fill="none" xmlns="http://www.w3.org/2000/svg">
<g filter="url(#filter0_i_1587_654)">
<path d="M3.30042 1.75C3.687 1.75002 4.00061 2.06361 4.00061 2.4502V5.20055C4.00061 5.36738 4.00061 5.45079 4.02229 5.51394C4.02682 5.52713 4.02737 5.52854 4.03285 5.54137C4.05911 5.60275 4.15267 5.70624 4.33979 5.91323C4.56404 6.1613 4.70081 6.48991 4.70081 6.85059C4.70063 7.62363 4.0735 8.25 3.30042 8.25C2.52736 8.24996 1.9002 7.62361 1.90002 6.85059C1.90002 6.48992 2.03683 6.16131 2.26109 5.91322C2.44818 5.70627 2.54172 5.60279 2.56798 5.54141C2.57346 5.52858 2.57401 5.52717 2.57854 5.51398C2.60022 5.45083 2.60022 5.36742 2.60022 5.2006V2.4502C2.60022 2.0636 2.91382 1.75 3.30042 1.75ZM6.97034 2.56445L7.97034 3.66406C8.15586 3.8684 8.14041 4.18444 7.93616 4.37012C7.73188 4.55541 7.41575 4.54092 7.2301 4.33691C7.18431 4.2863 7.10022 4.3187 7.10022 4.38695V6.10059C7.09987 6.37643 6.87614 6.60059 6.60022 6.60059C6.32438 6.60049 6.10057 6.37637 6.10022 6.10059V4.38695C6.10022 4.3187 6.01613 4.2863 5.97034 4.33691C5.78461 4.54082 5.4685 4.55554 5.26428 4.37012C5.06009 4.18449 5.04475 3.8684 5.2301 3.66406L6.2301 2.56445C6.29828 2.48944 6.33237 2.45193 6.36633 2.42745C6.50601 2.32678 6.69443 2.32678 6.8341 2.42745C6.86807 2.45193 6.90216 2.48944 6.97034 2.56445Z" fill="white"/>
</g>
<defs>
<filter id="filter0_i_1587_654" x="0" y="0" width="10" height="10" filterUnits="userSpaceOnUse" color-interpolation-filters="sRGB">
<feFlood flood-opacity="0" result="BackgroundImageFix"/>
<feBlend mode="normal" in="SourceGraphic" in2="BackgroundImageFix" result="shape"/>
<feColorMatrix in="SourceAlpha" type="matrix" values="0 0 0 0 0 0 0 0 0 0 0 0 0 0 0 0 0 0 127 0" result="hardAlpha"/>
<feOffset/>
<feGaussianBlur stdDeviation="1"/>
<feComposite in2="hardAlpha" operator="arithmetic" k2="-1" k3="1"/>
<feColorMatrix type="matrix" values="0 0 0 0 0.942 0 0 0 0 0.94 0 0 0 0 1 0 0 0 0.1 0"/>
<feBlend mode="hard-light" in2="shape" result="effect1_innerShadow_1587_654"/>
</filter>
</defs>
</svg>
