<svg width="10" height="10" viewBox="0 0 10 10" fill="none" xmlns="http://www.w3.org/2000/svg">
<g filter="url(#filter0_i_1587_644)">
<path d="M3.25 1.75C3.63659 1.75002 3.9502 2.06361 3.9502 2.4502V5.20055C3.9502 5.36738 3.9502 5.45079 3.97188 5.51394C3.97641 5.52713 3.97695 5.52854 3.98244 5.54137C4.0087 5.60275 4.10225 5.70624 4.28937 5.91323C4.51362 6.1613 4.65039 6.48991 4.65039 6.85059C4.65021 7.62363 4.02309 8.25 3.25 8.25C2.47694 8.24996 1.84979 7.62361 1.84961 6.85059C1.84961 6.48992 1.98642 6.16131 2.21068 5.91322C2.39776 5.70627 2.4913 5.60279 2.51756 5.54141C2.52305 5.52858 2.52359 5.52717 2.52812 5.51398C2.5498 5.45083 2.5498 5.36742 2.5498 5.2006V2.4502C2.5498 2.0636 2.8634 1.75 3.25 1.75ZM6.5498 2.40039C6.82585 2.40051 7.0498 2.62432 7.0498 2.90039C7.0498 3.0864 7.0498 3.17941 7.08014 3.25279C7.12074 3.35103 7.19878 3.42907 7.29701 3.46967C7.3704 3.5 7.46373 3.5 7.65039 3.5C7.92621 3.50022 8.15018 3.72418 8.15039 4C8.15014 4.27579 7.92619 4.49978 7.65039 4.5C7.46346 4.5 7.37 4.5 7.29631 4.53062C7.19864 4.57121 7.12102 4.64883 7.08043 4.7465C7.0498 4.8202 7.0498 4.91366 7.0498 5.10059C7.04945 5.37636 6.82563 5.60047 6.5498 5.60059C6.27406 5.60038 6.05016 5.3763 6.0498 5.10059C6.0498 4.91392 6.0498 4.82059 6.01947 4.74721C5.97887 4.64897 5.90083 4.57093 5.80259 4.53033C5.72921 4.5 5.63621 4.5 5.4502 4.5C5.17421 4.5 4.95044 4.27593 4.9502 4C4.95041 3.72404 5.17418 3.5 5.4502 3.5C5.63621 3.5 5.72921 3.5 5.80259 3.46967C5.90083 3.42907 5.97887 3.35103 6.01947 3.25279C6.0498 3.17941 6.0498 3.0864 6.0498 2.90039C6.0498 2.62438 6.27384 2.4006 6.5498 2.40039Z" fill="white"/>
</g>
<defs>
<filter id="filter0_i_1587_644" x="0" y="0" width="10" height="10" filterUnits="userSpaceOnUse" color-interpolation-filters="sRGB">
<feFlood flood-opacity="0" result="BackgroundImageFix"/>
<feBlend mode="normal" in="SourceGraphic" in2="BackgroundImageFix" result="shape"/>
<feColorMatrix in="SourceAlpha" type="matrix" values="0 0 0 0 0 0 0 0 0 0 0 0 0 0 0 0 0 0 127 0" result="hardAlpha"/>
<feOffset/>
<feGaussianBlur stdDeviation="1"/>
<feComposite in2="hardAlpha" operator="arithmetic" k2="-1" k3="1"/>
<feColorMatrix type="matrix" values="0 0 0 0 0.942 0 0 0 0 0.94 0 0 0 0 1 0 0 0 0.1 0"/>
<feBlend mode="hard-light" in2="shape" result="effect1_innerShadow_1587_644"/>
</filter>
</defs>
</svg>
