<svg width="10" height="10" viewBox="0 0 10 10" fill="none" xmlns="http://www.w3.org/2000/svg">
<g filter="url(#filter0_i_1587_649)">
<path d="M3.25 1.75C3.63659 1.75002 3.9502 2.06361 3.9502 2.4502V5.20055C3.9502 5.36738 3.9502 5.45079 3.97188 5.51394C3.97641 5.52713 3.97695 5.52854 3.98244 5.54137C4.0087 5.60275 4.10225 5.70624 4.28937 5.91323C4.51362 6.1613 4.65039 6.48991 4.65039 6.85059C4.65021 7.62363 4.02309 8.25 3.25 8.25C2.47694 8.24996 1.84979 7.62361 1.84961 6.85059C1.84961 6.48992 1.98642 6.16131 2.21068 5.91322C2.39776 5.70627 2.4913 5.60279 2.51756 5.54141C2.52305 5.52858 2.52359 5.52717 2.52812 5.51398C2.5498 5.45083 2.5498 5.36742 2.5498 5.2006V2.4502C2.5498 2.0636 2.8634 1.75 3.25 1.75ZM7.59961 3.4502C7.90335 3.45022 8.15039 3.69626 8.15039 4C8.15036 4.30372 7.90333 4.54978 7.59961 4.5498H5.5C5.19626 4.5498 4.95023 4.30373 4.9502 4C4.9502 3.69624 5.19624 3.4502 5.5 3.4502H7.59961Z" fill="white"/>
</g>
<defs>
<filter id="filter0_i_1587_649" x="0" y="0" width="10" height="10" filterUnits="userSpaceOnUse" color-interpolation-filters="sRGB">
<feFlood flood-opacity="0" result="BackgroundImageFix"/>
<feBlend mode="normal" in="SourceGraphic" in2="BackgroundImageFix" result="shape"/>
<feColorMatrix in="SourceAlpha" type="matrix" values="0 0 0 0 0 0 0 0 0 0 0 0 0 0 0 0 0 0 127 0" result="hardAlpha"/>
<feOffset/>
<feGaussianBlur stdDeviation="1"/>
<feComposite in2="hardAlpha" operator="arithmetic" k2="-1" k3="1"/>
<feColorMatrix type="matrix" values="0 0 0 0 0.942 0 0 0 0 0.94 0 0 0 0 1 0 0 0 0.1 0"/>
<feBlend mode="hard-light" in2="shape" result="effect1_innerShadow_1587_649"/>
</filter>
</defs>
</svg>
