<svg width="10" height="10" viewBox="0 0 10 10" fill="none" xmlns="http://www.w3.org/2000/svg">
<g filter="url(#filter0_i_1587_659)">
<path d="M3.30038 1.75C3.68697 1.75002 4.00058 2.06361 4.00058 2.4502V5.20055C4.00058 5.36738 4.00058 5.45079 4.02226 5.51394C4.02679 5.52713 4.02734 5.52854 4.03282 5.54137C4.05908 5.60275 4.15264 5.70624 4.33975 5.91323C4.56401 6.1613 4.70078 6.48991 4.70078 6.85059C4.7006 7.62363 4.07347 8.25 3.30038 8.25C2.52733 8.24996 1.90017 7.62361 1.89999 6.85059C1.89999 6.48992 2.0368 6.16131 2.26106 5.91322C2.44815 5.70627 2.54169 5.60279 2.56795 5.54141C2.57343 5.52858 2.57398 5.52717 2.57851 5.51398C2.60019 5.45083 2.60019 5.36742 2.60019 5.2006V2.4502C2.60019 2.0636 2.91379 1.75 3.30038 1.75ZM6.60019 2.39941C6.87615 2.39941 7.09989 2.62352 7.10019 2.89941V4.61305C7.10019 4.6813 7.18428 4.7137 7.23007 4.66309C7.41573 4.45901 7.73183 4.44452 7.93613 4.62988C8.1404 4.81558 8.15589 5.1316 7.97031 5.33594L6.97031 6.43555C6.90213 6.51056 6.86804 6.54807 6.83407 6.57255C6.6944 6.67322 6.50598 6.67322 6.3663 6.57255C6.33234 6.54807 6.29825 6.51056 6.23007 6.43555L5.23007 5.33594C5.04466 5.1316 5.06004 4.81553 5.26425 4.62988C5.46848 4.44439 5.78457 4.45911 5.97031 4.66309C6.0161 4.7137 6.10019 4.6813 6.10019 4.61305V2.89941C6.10048 2.62358 6.32431 2.39951 6.60019 2.39941Z" fill="white"/>
</g>
<defs>
<filter id="filter0_i_1587_659" x="0" y="0" width="10" height="10" filterUnits="userSpaceOnUse" color-interpolation-filters="sRGB">
<feFlood flood-opacity="0" result="BackgroundImageFix"/>
<feBlend mode="normal" in="SourceGraphic" in2="BackgroundImageFix" result="shape"/>
<feColorMatrix in="SourceAlpha" type="matrix" values="0 0 0 0 0 0 0 0 0 0 0 0 0 0 0 0 0 0 127 0" result="hardAlpha"/>
<feOffset/>
<feGaussianBlur stdDeviation="1"/>
<feComposite in2="hardAlpha" operator="arithmetic" k2="-1" k3="1"/>
<feColorMatrix type="matrix" values="0 0 0 0 0.942 0 0 0 0 0.94 0 0 0 0 1 0 0 0 0.1 0"/>
<feBlend mode="hard-light" in2="shape" result="effect1_innerShadow_1587_659"/>
</filter>
</defs>
</svg>
