<svg width="10" height="10" viewBox="0 0 10 10" fill="none" xmlns="http://www.w3.org/2000/svg">
<g filter="url(#filter0_i_1587_640)">
<path d="M5 1.75C5.38659 1.75002 5.7002 2.06361 5.7002 2.4502V5.20055C5.7002 5.36738 5.7002 5.45079 5.72188 5.51393C5.72641 5.52713 5.72695 5.52854 5.73244 5.54137C5.7587 5.60275 5.85226 5.70624 6.03937 5.91323C6.26362 6.1613 6.40039 6.4899 6.40039 6.85059C6.40022 7.62364 5.77309 8.25 5 8.25C4.22694 8.24996 3.59978 7.62361 3.59961 6.85059C3.59961 6.48992 3.73641 6.16131 3.96068 5.91322C4.14776 5.70626 4.2413 5.60279 4.26756 5.54141C4.27305 5.52858 4.27359 5.52717 4.27812 5.51398C4.2998 5.45083 4.2998 5.36742 4.2998 5.2006V2.4502C4.2998 2.0636 4.6134 1.75 5 1.75Z" fill="white"/>
</g>
<defs>
<filter id="filter0_i_1587_640" x="0" y="0" width="10" height="10" filterUnits="userSpaceOnUse" color-interpolation-filters="sRGB">
<feFlood flood-opacity="0" result="BackgroundImageFix"/>
<feBlend mode="normal" in="SourceGraphic" in2="BackgroundImageFix" result="shape"/>
<feColorMatrix in="SourceAlpha" type="matrix" values="0 0 0 0 0 0 0 0 0 0 0 0 0 0 0 0 0 0 127 0" result="hardAlpha"/>
<feOffset/>
<feGaussianBlur stdDeviation="1"/>
<feComposite in2="hardAlpha" operator="arithmetic" k2="-1" k3="1"/>
<feColorMatrix type="matrix" values="0 0 0 0 0.942 0 0 0 0 0.94 0 0 0 0 1 0 0 0 0.1 0"/>
<feBlend mode="hard-light" in2="shape" result="effect1_innerShadow_1587_640"/>
</filter>
</defs>
</svg>
