<svg width="10" height="10" viewBox="0 0 10 10" fill="none" xmlns="http://www.w3.org/2000/svg">
<g filter="url(#filter0_i_1587_759)">
<path fill-rule="evenodd" clip-rule="evenodd" d="M4.84602 2.48975C4.92121 2.54387 5.02392 2.54454 5.09953 2.49102C6.14934 1.74795 6.92459 2.12238 7.30604 2.42821C7.43079 2.52823 7.35691 2.70887 7.19909 2.73452C7.02395 2.76299 6.80195 2.80947 6.56645 2.88477C6.37847 2.94489 6.42094 3.19928 6.61063 3.25377C7.75533 3.58255 7.78061 4.45775 7.70552 4.92075C7.68242 5.06319 7.51325 5.10827 7.39939 5.01962C7.09995 4.7865 6.54052 4.41845 5.8912 4.32023C5.77115 4.30208 5.67263 4.40533 5.68343 4.52626C5.74778 5.24715 5.82272 6.23328 5.84911 7.23999C5.85784 7.57299 5.86192 7.73959 5.7661 7.85523C5.75272 7.87136 5.73695 7.88733 5.72118 7.90113C5.60809 7.99986 5.43851 7.99976 5.09911 7.99976C4.63631 7.99976 4.40463 8.00003 4.28759 7.88355C4.26943 7.86547 4.25745 7.85179 4.24266 7.83081C4.14759 7.69588 4.1907 7.44339 4.27684 6.93921C4.43335 6.02316 4.42523 5.06993 4.39443 4.45786C4.38898 4.34952 4.29658 4.26586 4.18914 4.2808C3.55015 4.36964 3.00037 4.75373 2.70319 5.00165C2.58969 5.09635 2.41466 5.05358 2.39198 4.90752C2.32252 4.46036 2.3522 3.64936 3.35411 3.29611C3.53727 3.23153 3.5732 2.97824 3.38816 2.91928C3.14755 2.84262 2.91856 2.79513 2.73563 2.76589C2.5716 2.73968 2.49919 2.54714 2.63298 2.44869C3.0479 2.14336 3.85668 1.77761 4.84602 2.48975Z" fill="white"/>
</g>
<defs>
<filter id="filter0_i_1587_759" x="0" y="0" width="10" height="10" filterUnits="userSpaceOnUse" color-interpolation-filters="sRGB">
<feFlood flood-opacity="0" result="BackgroundImageFix"/>
<feBlend mode="normal" in="SourceGraphic" in2="BackgroundImageFix" result="shape"/>
<feColorMatrix in="SourceAlpha" type="matrix" values="0 0 0 0 0 0 0 0 0 0 0 0 0 0 0 0 0 0 127 0" result="hardAlpha"/>
<feOffset/>
<feGaussianBlur stdDeviation="1"/>
<feComposite in2="hardAlpha" operator="arithmetic" k2="-1" k3="1"/>
<feColorMatrix type="matrix" values="0 0 0 0 0.942 0 0 0 0 0.94 0 0 0 0 1 0 0 0 0.1 0"/>
<feBlend mode="hard-light" in2="shape" result="effect1_innerShadow_1587_759"/>
</filter>
</defs>
</svg>
