<svg width="10" height="10" viewBox="0 0 10 10" fill="none" xmlns="http://www.w3.org/2000/svg">
<g filter="url(#filter0_i_1587_739)">
<path d="M4.87158 1.7002C5.22823 1.70022 5.54499 1.8697 5.74606 2.13237C5.80927 2.21496 5.9186 2.25372 6.01982 2.22983C6.1023 2.21037 6.18838 2.20022 6.27686 2.2002C6.88468 2.2002 7.37724 2.69178 7.37744 3.29883C7.37744 3.49977 7.32296 3.68762 7.2284 3.84941C7.1636 3.96025 7.18542 4.11175 7.27879 4.19988C7.49092 4.40011 7.62341 4.68352 7.62354 4.99805C7.62354 5.6052 7.13081 6.09754 6.52295 6.09766C6.36101 6.09766 6.20729 6.06265 6.06886 5.99989C5.97471 5.9572 5.86055 5.97393 5.78226 6.04142C5.78148 6.04209 5.78071 6.04275 5.77993 6.04342C5.72921 6.08691 5.69686 6.14947 5.70073 6.21617C5.7163 6.48495 5.75813 6.78981 5.84912 7.11621C6.00221 7.66537 6.0783 7.93981 6.01025 8.07715C5.9842 8.12973 5.9631 8.15804 5.91943 8.19727C5.80542 8.29963 5.5625 8.2998 5.07666 8.2998C4.59052 8.2998 4.34694 8.29969 4.23291 8.19727C4.1893 8.15808 4.16813 8.12972 4.14209 8.07715C4.07411 7.93979 4.15017 7.66523 4.30322 7.11621C4.39017 6.80432 4.43073 6.51202 4.4476 6.25214C4.45216 6.18182 4.41657 6.11613 4.36172 6.07188C4.3607 6.07106 4.35968 6.07023 4.35867 6.06941C4.27094 5.99813 4.14238 5.9892 4.04587 6.04805C3.88001 6.14918 3.68567 6.20801 3.47705 6.20801C2.8691 6.208 2.37646 5.71562 2.37646 5.1084C2.37648 4.85336 2.46351 4.61884 2.60944 4.43242C2.67271 4.3516 2.68321 4.23802 2.63594 4.14692C2.55757 3.99589 2.5132 3.82446 2.51318 3.64258C2.51318 3.03539 3.00586 2.54303 3.61377 2.54297C3.71725 2.54297 3.81334 2.47943 3.85254 2.38367C4.0167 1.98268 4.41101 1.7002 4.87158 1.7002Z" fill="white"/>
</g>
<defs>
<filter id="filter0_i_1587_739" x="0" y="0" width="10" height="10" filterUnits="userSpaceOnUse" color-interpolation-filters="sRGB">
<feFlood flood-opacity="0" result="BackgroundImageFix"/>
<feBlend mode="normal" in="SourceGraphic" in2="BackgroundImageFix" result="shape"/>
<feColorMatrix in="SourceAlpha" type="matrix" values="0 0 0 0 0 0 0 0 0 0 0 0 0 0 0 0 0 0 127 0" result="hardAlpha"/>
<feOffset/>
<feGaussianBlur stdDeviation="1"/>
<feComposite in2="hardAlpha" operator="arithmetic" k2="-1" k3="1"/>
<feColorMatrix type="matrix" values="0 0 0 0 0.942 0 0 0 0 0.94 0 0 0 0 1 0 0 0 0.1 0"/>
<feBlend mode="hard-light" in2="shape" result="effect1_innerShadow_1587_739"/>
</filter>
</defs>
</svg>
