<svg width="10" height="10" viewBox="0 0 10 10" fill="none" xmlns="http://www.w3.org/2000/svg">
<g filter="url(#filter0_i_1587_753)">
<path fill-rule="evenodd" clip-rule="evenodd" d="M6.63015 3.34359C6.76951 3.48989 6.66581 3.73189 6.46375 3.73189C6.25419 3.73189 6.15398 3.98945 6.30845 4.13108L6.91012 4.68273C7.08407 4.84223 6.97123 5.13228 6.73522 5.13228C6.50001 5.13228 6.38676 5.42067 6.55912 5.58072L6.93802 5.93258C7.18839 6.16507 7.31357 6.28132 7.33122 6.3801C7.35111 6.49142 7.30672 6.60446 7.2164 6.67249C7.13625 6.73287 6.96541 6.73287 6.62374 6.73287H6.17294C6.07751 6.73287 6.02979 6.73287 5.98905 6.74463C5.87441 6.7777 5.78348 6.88839 5.7733 7.00727C5.76968 7.04952 5.7781 7.09208 5.79495 7.17721C5.89246 7.66979 5.94119 7.91614 5.85062 8.05318C5.83403 8.07826 5.82021 8.09553 5.79886 8.11666C5.682 8.23213 5.45441 8.23287 5.00003 8.23287C4.54568 8.23287 4.31806 8.23213 4.2012 8.11666C4.17987 8.09554 4.16604 8.07826 4.14944 8.05318C4.05887 7.91614 4.10761 7.66978 4.20511 7.17721C4.22196 7.09208 4.23038 7.04952 4.22676 7.00727C4.21658 6.88839 4.12566 6.7777 4.01102 6.74463C3.97027 6.73287 3.92255 6.73287 3.82712 6.73287H3.37632C3.03465 6.73287 2.86382 6.73287 2.78366 6.67249C2.69334 6.60446 2.64895 6.49142 2.66884 6.3801C2.68649 6.28132 2.81167 6.16507 3.06204 5.93258L3.44095 5.58072C3.6133 5.42067 3.50005 5.13228 3.26484 5.13228C3.02883 5.13228 2.91599 4.84223 3.08995 4.68273L3.69161 4.13108C3.84608 3.98945 3.74588 3.73189 3.53631 3.73189C3.33426 3.73189 3.23055 3.48989 3.36991 3.34359L4.58731 2.06556C4.77025 1.87351 4.86172 1.77748 4.97577 1.76823C4.99192 1.76691 5.00815 1.76691 5.0243 1.76823C5.13834 1.77748 5.22981 1.87351 5.41275 2.06556L6.63015 3.34359Z" fill="white"/>
</g>
<defs>
<filter id="filter0_i_1587_753" x="0" y="0" width="10" height="10" filterUnits="userSpaceOnUse" color-interpolation-filters="sRGB">
<feFlood flood-opacity="0" result="BackgroundImageFix"/>
<feBlend mode="normal" in="SourceGraphic" in2="BackgroundImageFix" result="shape"/>
<feColorMatrix in="SourceAlpha" type="matrix" values="0 0 0 0 0 0 0 0 0 0 0 0 0 0 0 0 0 0 127 0" result="hardAlpha"/>
<feOffset/>
<feGaussianBlur stdDeviation="1"/>
<feComposite in2="hardAlpha" operator="arithmetic" k2="-1" k3="1"/>
<feColorMatrix type="matrix" values="0 0 0 0 0.942 0 0 0 0 0.94 0 0 0 0 1 0 0 0 0.1 0"/>
<feBlend mode="hard-light" in2="shape" result="effect1_innerShadow_1587_753"/>
</filter>
</defs>
</svg>
