<svg width="10" height="10" viewBox="0 0 10 10" fill="none" xmlns="http://www.w3.org/2000/svg">
<g filter="url(#filter0_i_1587_672)">
<path fill-rule="evenodd" clip-rule="evenodd" d="M5.08244 2.1084C5.15639 2.12366 5.20666 2.15516 5.21818 2.16211C5.24877 2.18048 5.27402 2.19994 5.28947 2.21289C5.32142 2.23974 5.35244 2.27144 5.37932 2.2998C5.43504 2.35862 5.50263 2.43737 5.5756 2.52734C5.72324 2.70943 5.91098 2.95825 6.10295 3.2334C6.47774 3.7706 6.9083 4.46307 7.07853 4.97363C7.24751 5.48056 7.31975 6.19293 7.03752 6.80469C6.89243 7.11895 6.65618 7.40094 6.30705 7.59961C5.96128 7.79624 5.526 7.90039 4.99943 7.90039C4.47319 7.90032 4.03841 7.79612 3.69279 7.59961C3.34374 7.4009 3.10637 7.11895 2.96135 6.80469C2.67931 6.19304 2.75145 5.48046 2.92033 4.97363C3.09048 4.46311 3.5221 3.77063 3.89689 3.2334C4.08875 2.95841 4.27567 2.70938 4.42326 2.52734C4.4962 2.4374 4.56382 2.35866 4.61955 2.2998C4.64646 2.2714 4.67836 2.2398 4.71037 2.21289C4.72574 2.2 4.7503 2.1804 4.78068 2.16211C4.79508 2.15346 4.88029 2.09977 4.99943 2.09961L5.08244 2.1084ZM6.11174 4.95996C5.89197 4.98019 5.73042 5.17566 5.75041 5.39551C5.79808 5.92418 5.29959 6.42273 4.77092 6.375C4.55104 6.35501 4.35556 6.51651 4.33537 6.73633C4.31538 6.95621 4.47786 7.15169 4.69767 7.17188C5.72419 7.26515 6.64051 6.34878 6.54728 5.32227C6.5271 5.10245 6.33162 4.93997 6.11174 4.95996ZM3.17814 6.05469C3.17909 6.06647 3.18188 6.07808 3.18303 6.08984C3.17989 6.05797 3.17687 6.0261 3.17521 5.99414C3.17626 6.01432 3.17651 6.03454 3.17814 6.05469ZM3.17326 5.81738C3.17241 5.84858 3.17282 5.87981 3.17326 5.91113C3.17284 5.87983 3.1724 5.84857 3.17326 5.81738ZM3.18249 5.65527C3.18224 5.65527 3.18203 5.65546 3.18201 5.65571C3.18064 5.67045 3.18124 5.68538 3.1801 5.7002C3.18124 5.68539 3.18159 5.67054 3.18298 5.65581C3.183 5.65552 3.18278 5.65527 3.18249 5.65527ZM3.22404 5.3877C3.21629 5.42532 3.2087 5.46334 3.20256 5.50195C3.20867 5.46334 3.21633 5.42532 3.22404 5.3877ZM3.26994 5.19727C3.27948 5.16402 3.28961 5.13144 3.30021 5.09961C3.31899 5.04331 3.34154 4.98382 3.3676 4.92188C3.3415 4.98389 3.31803 5.04325 3.29924 5.09961C3.28866 5.13136 3.27939 5.16409 3.26994 5.19727ZM3.24846 5.27441C3.24261 5.29751 3.23811 5.32112 3.23283 5.34473C3.24095 5.30831 3.24973 5.27247 3.2592 5.2373C3.25588 5.24969 3.25163 5.26188 3.24846 5.27441Z" fill="white"/>
</g>
<defs>
<filter id="filter0_i_1587_672" x="0" y="0" width="10" height="10" filterUnits="userSpaceOnUse" color-interpolation-filters="sRGB">
<feFlood flood-opacity="0" result="BackgroundImageFix"/>
<feBlend mode="normal" in="SourceGraphic" in2="BackgroundImageFix" result="shape"/>
<feColorMatrix in="SourceAlpha" type="matrix" values="0 0 0 0 0 0 0 0 0 0 0 0 0 0 0 0 0 0 127 0" result="hardAlpha"/>
<feOffset/>
<feGaussianBlur stdDeviation="1"/>
<feComposite in2="hardAlpha" operator="arithmetic" k2="-1" k3="1"/>
<feColorMatrix type="matrix" values="0 0 0 0 0.942 0 0 0 0 0.94 0 0 0 0 1 0 0 0 0.1 0"/>
<feBlend mode="hard-light" in2="shape" result="effect1_innerShadow_1587_672"/>
</filter>
</defs>
</svg>
