<svg width="10" height="10" viewBox="0 0 10 10" fill="none" xmlns="http://www.w3.org/2000/svg">
<g filter="url(#filter0_i_1587_664)">
<path d="M6.0498 5.40039C6.80006 5.4004 7.40038 6.01793 7.40039 6.75879C7.40029 7.49005 6.808 8.10041 6.06738 8.10059H6.02148C5.59027 8.10051 5.18953 7.87736 4.96094 7.51172C4.84411 7.32446 4.90075 7.07799 5.08789 6.96094C5.27522 6.84386 5.52256 6.90057 5.63965 7.08789C5.72205 7.21963 5.8661 7.29973 6.02148 7.2998H6.06738C6.35683 7.29962 6.59951 7.05763 6.59961 6.75879C6.5996 6.45034 6.34887 6.2002 6.0498 6.2002H3C2.77915 6.2002 2.59971 6.02063 2.59961 5.7998C2.59982 5.57907 2.77922 5.40039 3 5.40039H6.0498ZM6.66699 1.89941C7.40765 1.89963 8 2.50989 8 3.24121C7.99999 3.98195 7.40047 4.5994 6.65039 4.59961H2.40039C2.17961 4.59961 2.00021 4.42093 2 4.2002C2 3.97928 2.17948 3.7998 2.40039 3.7998H6.65039C6.94929 3.79959 7.20018 3.54953 7.2002 3.24121C7.2002 2.94231 6.95647 2.70041 6.66699 2.7002H6.62207C6.46662 2.7002 6.3217 2.78034 6.23926 2.91211C6.12216 3.09903 5.87564 3.15577 5.68848 3.03906C5.50121 2.92202 5.4446 2.67559 5.56152 2.48828C5.79016 2.1226 6.19079 1.89942 6.62207 1.89941H6.66699Z" fill="white"/>
</g>
<defs>
<filter id="filter0_i_1587_664" x="0" y="0" width="10" height="10" filterUnits="userSpaceOnUse" color-interpolation-filters="sRGB">
<feFlood flood-opacity="0" result="BackgroundImageFix"/>
<feBlend mode="normal" in="SourceGraphic" in2="BackgroundImageFix" result="shape"/>
<feColorMatrix in="SourceAlpha" type="matrix" values="0 0 0 0 0 0 0 0 0 0 0 0 0 0 0 0 0 0 127 0" result="hardAlpha"/>
<feOffset/>
<feGaussianBlur stdDeviation="1"/>
<feComposite in2="hardAlpha" operator="arithmetic" k2="-1" k3="1"/>
<feColorMatrix type="matrix" values="0 0 0 0 0.942 0 0 0 0 0.94 0 0 0 0 1 0 0 0 0.1 0"/>
<feBlend mode="hard-light" in2="shape" result="effect1_innerShadow_1587_664"/>
</filter>
</defs>
</svg>
