<svg width="10" height="10" viewBox="0 0 10 10" fill="none" xmlns="http://www.w3.org/2000/svg">
<g filter="url(#filter0_i_1251_667)">
<path d="M5.41063 2.53406C5.50879 2.56036 5.55787 2.57351 5.59373 2.57011C5.6 2.56952 5.60322 2.56908 5.60942 2.56799C5.64491 2.56176 5.68339 2.5392 5.76035 2.49408C6.26632 2.19748 6.94156 1.91521 7.51859 2.06198C7.65768 2.09739 7.72204 2.2479 7.68362 2.3862L7.31351 3.71921C7.24569 3.96399 7.34019 4.22419 7.53421 4.38815C7.7021 4.5299 7.90227 4.71589 8.05569 4.91061C8.26063 5.17079 8.02088 5.41164 7.70413 5.50827C7.23977 5.64974 7.63621 6.01004 7.76273 6.29343C7.8332 6.45143 7.65032 6.53609 7.47757 6.54538C6.15804 6.61636 6.55163 7.978 5.00003 7.978C3.44863 7.97788 3.84205 6.61628 2.52249 6.54538C2.34991 6.53605 2.14122 6.48148 2.13284 6.30905C2.1158 5.94495 2.73797 5.61703 2.29788 5.49655C1.97846 5.40899 1.7395 5.17082 1.94437 4.91061C2.09778 4.71587 2.29795 4.52993 2.46585 4.38815C2.66 4.22418 2.75443 3.96408 2.68655 3.71921L2.31644 2.3862C2.27803 2.24794 2.34246 2.09745 2.48148 2.06198C3.05503 1.91598 3.72576 2.19386 4.23077 2.48848C4.30648 2.53266 4.34434 2.55474 4.3792 2.561C4.3853 2.56209 4.38845 2.56253 4.39462 2.56315C4.42986 2.56668 4.47826 2.55428 4.57505 2.52948C4.70593 2.49595 4.84306 2.47804 4.98441 2.478C5.13177 2.478 5.27466 2.49762 5.41063 2.53406ZM4.56155 6.54733C4.44471 6.54759 4.35557 6.65328 4.3721 6.76901C4.4168 7.08128 4.68458 7.31775 5.00003 7.31784C5.31559 7.31784 5.58427 7.08138 5.62894 6.76901C5.64549 6.65316 5.55552 6.54737 5.43851 6.54733H4.56155ZM3.51273 4.72702C3.39186 4.65652 3.24027 4.74335 3.24026 4.88327V5.15378C3.2404 5.46878 3.41846 5.75704 3.70023 5.89792L3.7598 5.92722C4.12741 6.11102 4.56046 5.84404 4.56058 5.43307C4.56058 5.37407 4.52853 5.31925 4.47757 5.28952L3.51273 4.72702ZM6.7598 4.88327C6.75977 4.74336 6.60819 4.65652 6.48734 4.72702L5.52249 5.28952C5.47153 5.31925 5.44046 5.37407 5.44046 5.43307C5.44056 5.84405 5.87265 6.111 6.24026 5.92722L6.29984 5.89792C6.58161 5.75703 6.75967 5.46879 6.7598 5.15378V4.88327Z" fill="white"/>
</g>
<defs>
<filter id="filter0_i_1251_667" x="0" y="0" width="10" height="10" filterUnits="userSpaceOnUse" color-interpolation-filters="sRGB">
<feFlood flood-opacity="0" result="BackgroundImageFix"/>
<feBlend mode="normal" in="SourceGraphic" in2="BackgroundImageFix" result="shape"/>
<feColorMatrix in="SourceAlpha" type="matrix" values="0 0 0 0 0 0 0 0 0 0 0 0 0 0 0 0 0 0 127 0" result="hardAlpha"/>
<feOffset/>
<feGaussianBlur stdDeviation="1"/>
<feComposite in2="hardAlpha" operator="arithmetic" k2="-1" k3="1"/>
<feColorMatrix type="matrix" values="0 0 0 0 0.942 0 0 0 0 0.94 0 0 0 0 1 0 0 0 0.1 0"/>
<feBlend mode="hard-light" in2="shape" result="effect1_innerShadow_1251_667"/>
</filter>
</defs>
</svg>
