<svg width="10" height="10" viewBox="0 0 10 10" fill="none" xmlns="http://www.w3.org/2000/svg">
<g filter="url(#filter0_i_1214_637)">
<path d="M4.44444 2C5.54901 2 6.44444 2.44772 6.44444 3C6.44444 3 6.44444 3.30931 6.44444 3.92976C6.44444 4.17612 6.44444 4.2993 6.509 4.38105C6.51874 4.39339 6.52766 4.40309 6.53911 4.41385C6.61506 4.48515 6.74822 4.49655 7.01455 4.51934C8.50447 4.64688 6.44445 5.41144 6.44444 7C6.44444 7.55228 5.54901 8 4.44444 8C4.4391 8 4.45246 8 4.4496 7.99995C4.31173 7.99732 4.18171 7.88481 4.1593 7.74874C4.15884 7.74592 4.15873 7.74515 4.1585 7.74361L4.0089 6.71289C3.95986 6.37668 3.478 6.36796 3.4171 6.70215L3.34269 7.11011C3.28578 7.42212 3.25733 7.57813 3.10816 7.64124C3.09193 7.64811 3.06238 7.65694 3.04504 7.6601C2.8857 7.68913 2.80277 7.60205 2.63692 7.42788C2.51352 7.29829 2.44444 7.15329 2.44444 7L2.44444 3C2.44445 2.44772 3.33988 2 4.44444 2ZM4.44444 2.5C3.89216 2.5 3.44444 2.72386 3.44444 3C3.44444 3.27614 3.89216 3.5 4.44444 3.5C4.99673 3.5 5.44444 3.27614 5.44444 3C5.44444 2.72386 4.99673 2.5 4.44444 2.5Z" fill="white"/>
</g>
<defs>
<filter id="filter0_i_1214_637" x="0" y="0" width="10" height="10" filterUnits="userSpaceOnUse" color-interpolation-filters="sRGB">
<feFlood flood-opacity="0" result="BackgroundImageFix"/>
<feBlend mode="normal" in="SourceGraphic" in2="BackgroundImageFix" result="shape"/>
<feColorMatrix in="SourceAlpha" type="matrix" values="0 0 0 0 0 0 0 0 0 0 0 0 0 0 0 0 0 0 127 0" result="hardAlpha"/>
<feOffset/>
<feGaussianBlur stdDeviation="1"/>
<feComposite in2="hardAlpha" operator="arithmetic" k2="-1" k3="1"/>
<feColorMatrix type="matrix" values="0 0 0 0 0.942 0 0 0 0 0.94 0 0 0 0 1 0 0 0 0.1 0"/>
<feBlend mode="hard-light" in2="shape" result="effect1_innerShadow_1214_637"/>
</filter>
</defs>
</svg>
